<?xml version="1.0" standalone="no"?>
<!DOCTYPE svg PUBLIC "-//W3C//DTD SVG 20010904//EN"
 "http://www.w3.org/TR/2001/REC-SVG-20010904/DTD/svg10.dtd">
<svg version="1.0" xmlns="http://www.w3.org/2000/svg"
 width="3072.000000pt" height="2048.000000pt" viewBox="0 0 3072.000000 2048.000000"
 preserveAspectRatio="xMidYMid meet">

<g transform="translate(0.000000,2048.000000) scale(0.100000,-0.100000)"
fill="#000000" stroke="none">
<path d="M0 19605 l0 -875 28 6 27 7 -28 -22 -27 -22 0 -391 c0 -368 1 -390
17 -383 35 15 63 17 63 6 0 -6 -6 -11 -13 -11 -7 0 -25 -13 -40 -28 l-27 -28
0 -937 c0 -916 1 -939 20 -959 21 -22 17 -43 -6 -34 -12 5 -14 -243 -14 -1699
0 -1130 3 -1705 10 -1705 6 0 10 -6 10 -12 0 -7 4 -19 9 -27 14 -22 41 4 41
40 0 15 4 30 9 33 30 19 68 -40 46 -70 -8 -12 -10 -26 -5 -40 11 -28 -5 -44
-47 -44 -32 0 -37 6 -34 41 1 9 -7 19 -19 22 l-20 5 0 -779 c0 -573 3 -779 11
-779 8 0 10 -12 6 -34 -4 -26 -1 -39 14 -52 11 -10 17 -24 14 -31 -2 -8 4 -24
15 -36 29 -30 21 -51 -20 -57 -30 -4 -35 -9 -38 -35 -2 -27 -1 -28 11 -12 20
25 53 22 61 -5 9 -35 7 -138 -3 -138 -9 0 -29 21 -30 32 -1 5 -10 23 -21 40
l-20 33 0 -522 c0 -585 -8 -528 72 -524 35 2 37 1 44 -34 5 -26 2 -41 -8 -51
-21 -22 -48 -7 -48 26 0 25 -18 39 -52 40 -5 0 -8 -422 -8 -938 l0 -938 66
-11 c36 -6 69 -14 72 -18 12 -12 15 -136 3 -148 -6 -6 -11 -21 -11 -33 0 -28
-37 -38 -67 -19 -21 14 -49 55 -44 65 1 2 -2 6 -8 8 -8 3 -11 -62 -11 -210 l0
-214 33 4 33 4 1 -57 c1 -52 0 -56 -20 -53 -17 2 -23 11 -25 41 -2 20 -7 37
-13 37 -5 0 -9 -360 -9 -939 l0 -938 53 -6 c29 -4 80 -2 114 3 45 7 69 7 90
-2 36 -15 134 -19 150 -6 9 7 21 4 41 -10 15 -12 41 -24 56 -28 25 -6 26 -8
11 -23 -8 -10 -15 -23 -15 -29 0 -7 -4 -12 -9 -12 -5 0 -13 -9 -16 -21 -10
-29 -56 -45 -71 -24 -11 15 -16 13 -48 -19 -29 -28 -44 -35 -75 -34 -37 0
-101 -20 -101 -33 0 -3 -14 -4 -31 -3 -24 2 -33 -3 -36 -17 -5 -16 -11 -18
-38 -13 -18 3 -43 3 -54 -1 -21 -6 -21 -9 -21 -430 l0 -423 41 5 c36 5 41 4
37 -13 -2 -13 -14 -21 -38 -24 l-35 -5 -3 -329 -2 -328 157 6 c222 10 736 26
811 26 34 0 62 4 62 10 0 12 -101 108 -165 156 -130 98 -151 120 -168 184 -21
76 -22 89 -2 69 9 -8 17 -30 18 -49 2 -40 59 -101 187 -200 129 -100 150 -120
157 -147 6 -25 7 -26 77 -19 241 21 893 46 1190 46 275 0 367 -29 383 -123 8
-49 -17 -70 -110 -92 -47 -11 -77 -23 -77 -31 0 -13 57 -34 95 -34 19 0 59
-20 41 -20 -5 0 -2 -7 5 -16 11 -14 10 -18 -10 -34 -26 -19 -24 -22 30 -39 21
-7 41 -21 47 -35 9 -21 4 -32 -38 -88 -62 -82 -153 -166 -207 -190 -58 -25
-145 -32 -233 -18 -131 21 -779 27 -946 10 -54 -6 -154 -11 -221 -10 -70 0
-123 -4 -123 -9 0 -6 -43 -9 -97 -9 -58 1 -107 -3 -120 -10 -13 -7 -24 -8 -28
-3 -6 10 -196 8 -213 -3 -6 -3 -14 -1 -17 5 -8 13 -80 2 -110 -16 -33 -21 -75
-28 -180 -29 -79 -2 -110 -6 -147 -24 l-48 -21 0 -1311 0 -1310 15360 0 15360
0 0 7633 0 7634 -122 119 c-307 297 -321 312 -426 474 -168 259 -189 280 -265
280 -60 0 -94 -20 -227 -135 -142 -122 -251 -197 -360 -248 -76 -35 -334 -122
-357 -120 -7 0 -13 -3 -13 -7 0 -4 -10 -10 -22 -13 -13 -2 -32 -8 -43 -13 -19
-7 -19 -7 -3 9 9 9 22 17 28 17 7 0 23 9 37 20 18 14 33 18 51 13 18 -4 23 -3
17 7 -5 8 -2 11 11 8 11 -2 24 3 30 11 6 8 31 22 55 32 27 11 36 18 24 19 -15
0 -17 2 -6 9 7 5 26 8 42 7 24 -2 33 10 19 24 -3 3 -10 14 -16 25 -6 11 -19
22 -29 23 -11 3 -15 0 -11 -7 4 -6 0 -11 -8 -11 -9 0 -16 7 -16 15 0 18 -21
20 -39 2 -11 -10 -13 -9 -8 5 5 15 0 16 -44 11 -36 -4 -53 -2 -59 7 -4 7 -32
14 -61 16 -66 3 -169 28 -178 43 -4 6 -25 12 -47 14 -22 2 -49 9 -61 15 -12 7
-29 12 -37 12 -9 0 -16 4 -16 9 0 5 -21 12 -47 16 -27 4 -51 12 -55 18 -3 6
-17 12 -30 14 -33 4 -102 35 -111 50 -4 7 -23 15 -42 19 -19 3 -35 10 -35 15
0 5 -6 9 -13 9 -8 0 -22 9 -32 20 -10 11 -24 20 -32 20 -8 0 -33 13 -56 28
-23 16 -62 40 -86 53 -24 13 -56 35 -71 49 -116 107 -170 160 -170 168 0 4
-13 21 -30 37 -16 16 -30 35 -30 42 0 7 -9 21 -20 30 -11 10 -20 21 -20 26 0
5 -11 23 -25 41 -14 18 -25 40 -25 48 0 9 -7 21 -15 28 -8 7 -15 24 -15 37 0
14 -8 37 -19 51 -10 15 -21 47 -25 71 -4 24 -13 56 -20 70 -24 44 -35 102 -47
226 -11 124 -4 301 12 311 6 3 7 14 4 24 -3 10 -1 21 5 25 5 3 10 17 10 29 0
22 42 133 71 186 8 14 32 45 54 69 22 23 43 51 47 62 4 10 16 19 27 19 11 0
23 9 26 21 6 17 9 19 16 8 6 -11 14 -7 36 18 15 17 45 37 66 43 20 6 43 17 50
23 24 23 75 47 100 47 13 0 30 7 37 15 7 8 21 15 30 15 28 0 51 11 44 21 -3 5
1 9 9 9 8 0 43 9 78 20 35 12 97 26 137 32 44 7 67 15 60 20 -13 8 23 13 71
10 14 -1 30 3 36 8 6 5 54 12 106 15 147 8 359 42 359 57 0 5 17 8 38 8 21 0
48 9 62 20 l25 20 -22 0 c-13 0 -23 5 -23 10 0 6 10 10 22 10 20 0 21 1 3 20
-18 19 -17 20 3 20 l22 0 -20 20 c-13 13 -33 20 -61 20 -47 0 -69 18 -69 54 0
16 -6 26 -15 26 -8 0 -24 8 -34 17 -11 9 -27 18 -36 19 -20 3 -56 34 -50 44
11 18 -66 60 -113 60 -17 0 -22 3 -15 8 23 14 -47 103 -109 140 -16 9 -28 23
-28 32 0 8 -18 26 -40 40 -31 19 -40 31 -40 53 0 15 -8 36 -18 47 -10 11 -24
36 -31 57 -8 21 -17 40 -20 43 -9 7 -30 42 -41 68 -13 30 -28 262 -18 268 5 3
8 0 8 -7 0 -32 20 11 23 48 1 23 6 45 10 49 4 4 7 18 7 31 0 18 5 23 25 23 14
0 25 5 25 10 0 6 7 10 15 10 8 0 15 9 15 20 0 11 7 23 15 26 8 4 13 10 10 14
-6 10 24 36 58 49 15 6 31 21 36 34 5 14 17 27 25 30 9 4 16 16 16 27 0 20 0
20 22 -2 l21 -21 18 21 c9 12 34 26 56 30 23 5 38 14 38 22 0 21 62 50 105 50
23 0 46 8 60 20 23 20 44 25 87 21 12 -1 48 7 80 18 32 10 81 19 108 20 28 0
73 2 100 5 144 13 416 -1 423 -21 2 -7 15 -13 28 -13 14 0 22 -4 19 -10 -3 -5
2 -10 12 -10 10 0 31 -7 48 -16 16 -8 37 -13 47 -11 11 3 15 0 11 -9 -3 -8 0
-14 6 -14 6 0 11 5 11 10 0 16 22 12 36 -7 7 -10 17 -18 23 -18 5 0 39 -28 76
-62 67 -64 80 -72 87 -51 3 9 6 9 12 0 4 -7 2 -12 -3 -12 -21 0 -11 -27 15
-41 33 -17 81 -79 114 -147 14 -29 30 -52 36 -52 11 0 34 -64 34 -94 0 -9 7
-30 15 -45 17 -34 30 -261 15 -261 -6 0 -10 -18 -10 -39 0 -29 -6 -44 -21 -54
-19 -14 -20 -16 -3 -25 16 -9 16 -12 4 -28 -8 -9 -13 -19 -11 -21 8 -9 -11
-72 -24 -77 -8 -3 -15 -11 -15 -18 0 -8 -9 -20 -20 -28 -11 -8 -20 -20 -20
-28 0 -7 -27 -39 -60 -71 -33 -32 -60 -67 -60 -78 0 -23 -56 -67 -85 -66 -11
1 -14 -1 -7 -4 16 -6 16 -23 0 -23 -7 0 -24 -19 -37 -41 -18 -32 -25 -38 -32
-28 -8 11 -17 5 -44 -26 l-35 -40 0 28 c0 33 -21 36 -50 7 l-20 -20 22 0 c19
0 20 -2 6 -17 -9 -10 -13 -24 -11 -30 3 -9 -7 -13 -31 -13 -29 0 -36 -4 -36
-20 0 -16 7 -20 35 -20 19 0 35 -4 35 -10 0 -5 -8 -10 -17 -10 -9 0 -14 -3
-10 -6 3 -3 37 -7 76 -9 48 -2 75 -8 86 -19 11 -10 31 -16 59 -15 23 1 52 -3
64 -10 12 -7 27 -9 32 -6 5 3 19 1 31 -5 11 -7 37 -13 58 -15 20 -2 43 -5 51
-8 23 -8 216 -31 363 -43 l57 -4 0 1190 0 1190 -4742 0 c-4515 0 -4740 -1
-4726 -17 9 -10 23 -34 31 -53 8 -19 26 -47 40 -62 14 -15 23 -28 21 -30 -2
-2 18 -27 44 -55 74 -80 127 -104 402 -178 209 -56 395 -122 431 -152 8 -7 20
-13 25 -13 22 0 150 -98 206 -157 46 -50 100 -208 92 -272 -5 -42 -19 -53 -59
-46 -53 9 -359 8 -385 -2 -14 -4 -32 -8 -40 -7 -8 1 -23 2 -32 3 -10 0 -18 8
-18 17 0 12 -4 11 -19 -7 -13 -16 -29 -23 -57 -24 -22 0 -44 -3 -49 -7 -15 -8
-147 -10 -178 -3 -32 8 -39 25 -27 66 12 40 10 42 -22 30 -14 -5 -31 -6 -39
-1 -11 7 -7 16 20 44 19 20 33 38 30 40 -11 11 -79 17 -79 8 0 -19 -31 -42
-56 -42 -29 0 -32 16 -3 23 35 9 20 40 -21 42 -19 1 -43 5 -52 9 -12 6 -18 4
-18 -5 0 -8 -7 -23 -15 -33 -13 -18 -15 -16 -27 28 -12 47 -24 54 -59 35 -16
-8 -30 -5 -65 11 -24 12 -44 26 -44 31 0 5 -15 15 -34 23 -27 11 -81 68 -81
86 0 3 -24 29 -53 59 -43 45 -54 51 -67 41 -8 -7 -24 -10 -35 -7 -22 6 -50
-16 -50 -39 0 -19 -7 -18 -37 6 -32 25 -38 25 -63 -2 l-20 -22 -31 23 c-28 21
-34 22 -102 11 -70 -11 -117 -31 -117 -50 0 -6 -3 -9 -7 -9 -5 1 -15 1 -23 0
-13 -1 -13 -2 0 -11 12 -8 11 -10 -6 -10 -21 0 -54 -38 -58 -65 -4 -26 -40
-63 -57 -60 -10 2 -23 -3 -29 -10 -6 -8 -17 -11 -25 -9 -7 3 -15 -3 -18 -13
-4 -17 -4 -17 -12 2 -19 44 -44 41 -150 -17 -38 -21 -76 -38 -83 -38 -16 0
-68 -36 -104 -72 -30 -30 -36 -53 -16 -61 7 -3 3 -6 -9 -6 -18 -1 -23 5 -23
23 0 13 -6 26 -13 29 -19 7 -107 -85 -107 -111 0 -11 -10 -28 -22 -36 -18 -13
-19 -16 -6 -16 39 0 44 -72 9 -133 -15 -26 -37 -32 -35 -9 1 7 2 23 3 36 0 15
7 23 17 22 9 0 19 5 22 13 3 10 -3 12 -27 6 -24 -5 -31 -3 -31 9 0 19 -15 21
-29 4 -47 -57 -66 -82 -63 -85 9 -11 -1 -33 -18 -38 -18 -6 -20 -12 -15 -41 8
-55 -8 -74 -61 -74 -69 0 -184 -27 -344 -80 -359 -119 -474 -174 -617 -295
-52 -44 -113 -93 -135 -110 l-40 -30 -367 1 c-459 1 -734 23 -1261 99 -430 62
-804 150 -1105 257 -456 163 -630 327 -612 578 15 219 204 394 680 629 200 98
275 130 479 201 75 26 167 65 203 86 37 22 87 51 113 66 l47 28 -8292 0 -8293
0 0 -875z m1026 759 c20 5 24 1 33 -31 14 -48 14 -96 1 -88 -5 3 -10 0 -10 -9
0 -33 -99 7 -101 42 -2 34 3 68 14 94 11 26 12 26 25 6 10 -14 21 -18 38 -14z
m14 26 c0 -5 -2 -10 -4 -10 -3 0 -8 5 -11 10 -3 6 -1 10 4 10 6 0 11 -4 11
-10z m-600 -36 c0 -14 4 -33 9 -42 18 -36 22 -72 7 -72 -20 0 -35 23 -39 58
-2 18 -7 35 -10 39 -12 11 -8 41 6 46 19 7 27 -2 27 -29z m1069 -92 c63 -67
92 -132 94 -214 l2 -73 -37 2 c-20 1 -57 12 -81 23 -37 18 -48 29 -62 68 -10
26 -24 55 -33 64 -19 23 -12 103 12 141 26 39 61 36 105 -11z m-819 -103 c0
-10 -4 -20 -9 -24 -16 -9 -30 28 -36 91 l-6 59 26 -54 c14 -29 25 -62 25 -72z
m-470 -155 c12 -30 10 -153 -2 -160 -5 -3 -15 0 -24 6 -11 10 -12 16 -3 27 9
10 9 23 0 54 -20 68 6 134 29 73z m665 -125 c19 -37 19 -74 -1 -94 -9 -8 -13
-22 -10 -30 8 -21 -7 -56 -20 -47 -18 12 -26 72 -10 72 22 0 27 28 11 73 -8
23 -15 47 -15 54 0 21 30 2 45 -28z m19755 -53 c0 -3 -4 -8 -10 -11 -5 -3 -10
-1 -10 4 0 6 5 11 10 11 6 0 10 -2 10 -4z m-20405 -127 c5 -22 3 -34 -6 -40
-20 -12 -28 2 -22 39 7 41 19 41 28 1z m335 -3 c0 -3 -4 -8 -10 -11 -5 -3 -10
-1 -10 4 0 6 5 11 10 11 6 0 10 -2 10 -4z m335 -34 c-3 -3 -11 0 -18 7 -9 10
-8 11 6 5 10 -3 15 -9 12 -12z m19595 -57 c0 -8 -4 -15 -10 -15 -5 0 -10 7
-10 15 0 8 5 15 10 15 6 0 10 -7 10 -15z m-210 -5 c0 -5 -4 -10 -10 -10 -5 0
-10 5 -10 10 0 6 5 10 10 10 6 0 10 -4 10 -10z m-20040 -162 c0 -27 -4 -38
-12 -36 -16 6 -32 62 -24 84 11 29 36 -4 36 -48z m20010 -14 c0 -14 -49 -64
-63 -64 -13 0 1 47 20 69 17 21 43 18 43 -5z m-386 7 c8 -13 -4 -42 -15 -35
-12 7 -12 44 0 44 6 0 12 -4 15 -9z m273 -27 c-3 -3 -12 -4 -19 -1 -8 3 -5 6
6 6 11 1 17 -2 13 -5z m33 -24 c0 -5 -4 -10 -10 -10 -5 0 -10 5 -10 10 0 6 5
10 10 10 6 0 10 -4 10 -10z m-19317 -25 c15 -13 27 -32 27 -41 0 -16 -1 -16
-18 -1 -10 10 -28 17 -39 17 -22 0 -33 16 -25 38 6 18 24 14 55 -13z m2083
-76 c3 -5 18 -9 33 -9 16 0 44 -6 63 -14 19 -8 46 -17 59 -19 13 -2 31 -6 39
-10 67 -25 180 -59 252 -77 47 -12 164 -47 260 -79 95 -32 196 -63 223 -70
114 -27 638 -189 700 -217 17 -7 122 -43 235 -79 113 -37 214 -71 225 -75 11
-5 49 -16 85 -25 36 -9 106 -31 155 -47 88 -29 160 -49 455 -128 80 -22 159
-46 175 -54 17 -9 42 -16 57 -16 15 0 30 -4 33 -10 3 -5 17 -10 29 -10 13 0
75 -15 137 -34 63 -19 130 -37 149 -41 19 -4 67 -18 105 -30 158 -51 220 -69
227 -67 4 1 40 -9 80 -22 40 -13 89 -27 108 -31 19 -4 41 -11 50 -15 22 -12
182 -57 285 -80 50 -11 113 -27 140 -35 28 -7 95 -26 150 -40 55 -14 123 -33
150 -41 28 -8 108 -30 178 -49 70 -19 132 -37 138 -41 6 -3 52 -16 103 -29 50
-12 121 -32 156 -44 95 -31 314 -91 332 -91 8 0 66 -16 129 -35 195 -61 203
-63 243 -69 21 -4 43 -9 49 -13 9 -5 125 -33 262 -63 22 -5 53 -13 68 -19 16
-6 41 -11 56 -11 15 0 31 -4 37 -9 5 -4 126 -36 269 -71 143 -34 312 -77 375
-95 63 -19 151 -43 195 -54 143 -35 407 -111 480 -137 22 -8 69 -21 105 -28
63 -14 161 -42 385 -111 233 -72 322 -98 380 -111 33 -8 74 -19 90 -25 68 -24
296 -92 380 -114 50 -13 142 -40 205 -60 63 -20 153 -47 200 -59 47 -13 139
-38 205 -55 66 -18 129 -36 140 -41 33 -13 76 -27 150 -49 80 -23 210 -60 240
-68 11 -3 79 -23 150 -45 131 -40 141 -43 250 -72 33 -9 96 -29 140 -43 44
-14 91 -27 105 -29 21 -3 122 -37 180 -61 8 -3 18 -7 22 -7 3 -1 10 -4 14 -8
4 -5 13 -8 21 -8 7 0 54 -20 104 -45 94 -47 200 -132 230 -186 9 -16 22 -36
29 -44 37 -45 79 -156 106 -285 35 -164 14 -772 -32 -945 -35 -130 -94 -219
-204 -303 -22 -17 -66 -36 -80 -34 -3 0 -12 -4 -20 -8 -26 -14 -200 -40 -292
-44 -47 -2 -94 -9 -105 -15 -17 -10 -17 -10 0 -11 25 0 21 -19 -7 -26 -22 -5
-36 -25 -50 -66 -3 -11 -11 -15 -21 -12 -11 5 -15 -1 -15 -25 0 -24 -4 -31
-20 -31 -11 0 -20 -6 -20 -13 0 -8 -9 -22 -20 -32 -14 -13 -18 -25 -13 -48 5
-22 3 -28 -6 -23 -15 10 -40 -21 -41 -49 0 -11 -16 -37 -35 -58 -18 -21 -40
-51 -47 -67 -13 -29 -38 -41 -38 -18 0 6 -9 1 -20 -12 -11 -13 -20 -35 -20
-50 0 -16 -6 -30 -14 -33 -19 -8 -50 -71 -36 -75 13 -5 13 -32 0 -32 -26 0
-70 -45 -70 -70 0 -20 -10 -32 -40 -50 -22 -14 -40 -31 -40 -38 0 -22 -42 -51
-72 -52 -16 0 -28 -4 -28 -9 0 -6 -13 -18 -30 -28 -34 -20 -40 -43 -10 -43 11
0 20 -6 20 -13 0 -8 -9 -22 -20 -32 -20 -18 -20 -17 -20 13 0 44 -20 40 -48
-8 -18 -33 -20 -40 -7 -40 22 0 18 -28 -5 -35 -11 -3 -20 -15 -20 -25 0 -9 -9
-20 -20 -23 -13 -3 -20 0 -20 9 0 12 -4 12 -20 2 -11 -7 -20 -18 -20 -24 0 -5
-14 -20 -31 -33 -25 -19 -28 -25 -18 -37 10 -12 8 -19 -9 -37 l-22 -21 0 32
c0 18 -4 32 -10 32 -5 0 -10 -4 -10 -9 0 -6 -13 -18 -30 -28 -16 -9 -30 -22
-30 -27 0 -13 -59 -64 -82 -72 -10 -3 -18 -14 -18 -24 0 -11 -16 -28 -37 -41
-21 -13 -39 -27 -41 -31 -2 -4 -8 -8 -13 -8 -6 0 -15 -5 -22 -10 -7 -6 -28
-21 -47 -33 -19 -13 -34 -30 -32 -39 1 -9 -10 -20 -27 -28 -16 -6 -37 -20 -47
-31 -9 -10 -25 -19 -36 -19 -10 0 -18 -4 -18 -10 0 -5 -18 -20 -40 -32 -22
-13 -40 -31 -40 -40 0 -9 -17 -27 -37 -39 -21 -13 -39 -27 -41 -31 -2 -4 -10
-8 -18 -8 -8 0 -14 -4 -14 -9 0 -5 -13 -14 -29 -21 -16 -6 -37 -20 -47 -31
-10 -11 -30 -19 -51 -19 -32 0 -33 -1 -33 -39 0 -38 -1 -39 -33 -38 -33 1 -77
-27 -77 -50 0 -6 -12 -13 -27 -15 -18 -2 -27 -8 -25 -17 4 -18 -20 -34 -29
-19 -4 6 -17 -4 -30 -25 -13 -20 -30 -37 -36 -37 -7 0 -13 -11 -13 -24 0 -27
-16 -36 -66 -36 -19 0 -34 -4 -34 -10 0 -5 9 -10 21 -10 17 0 18 -2 7 -13 -7
-7 -20 -16 -28 -20 -8 -4 -23 -13 -33 -19 -14 -11 -19 -10 -28 2 -8 11 -12 12
-16 3 -2 -7 -10 -13 -17 -13 -19 0 -86 -66 -86 -84 0 -9 -7 -16 -15 -16 -9 0
-18 -7 -21 -15 -4 -8 -10 -15 -16 -15 -5 0 -24 -11 -42 -25 -18 -14 -45 -25
-59 -25 -14 0 -32 -7 -41 -15 -8 -8 -19 -15 -24 -15 -5 0 -15 -7 -22 -15 -8
-10 -30 -15 -61 -15 -27 0 -49 -4 -49 -10 0 -5 -22 -10 -49 -10 -39 0 -56 -5
-77 -25 -21 -20 -38 -25 -75 -25 -37 0 -49 -4 -49 -15 0 -12 -16 -15 -80 -15
-59 0 -80 -3 -80 -13 0 -22 -112 -97 -145 -97 -9 0 -27 -11 -41 -25 -14 -14
-36 -25 -49 -25 -26 0 -34 -15 -12 -23 6 -3 -13 -5 -43 -5 -89 -1 -185 -13
-191 -24 -8 -13 -159 1 -159 15 0 5 -9 2 -20 -8 -19 -17 -22 -17 -36 -3 -13
13 -23 14 -57 5 -30 -8 -42 -7 -45 1 -2 8 -30 12 -75 12 -40 1 -91 5 -115 9
-23 5 -45 5 -47 0 -7 -10 -159 1 -163 12 -2 5 -28 9 -57 9 -29 0 -66 7 -81 15
-16 8 -45 18 -64 21 -19 4 -38 12 -42 17 -4 8 -14 7 -31 0 -26 -12 -178 1
-209 18 -10 5 -38 9 -62 9 -24 0 -57 7 -72 15 -16 8 -49 15 -72 15 -48 0 -148
26 -157 41 -4 5 -18 9 -32 9 -14 0 -32 8 -39 18 -11 14 -16 15 -33 5 -16 -10
-24 -9 -44 7 -14 11 -30 20 -36 20 -6 0 -11 5 -11 11 0 7 -11 8 -30 4 -17 -4
-30 -2 -30 3 0 9 -41 18 -120 28 -13 2 -30 10 -36 19 -7 10 -27 15 -58 15 -34
0 -46 4 -46 15 0 11 -13 15 -54 15 -30 0 -58 5 -61 10 -3 6 -15 10 -26 10 -10
0 -19 4 -19 9 0 9 -36 21 -80 27 -13 1 -26 8 -28 13 -2 6 -9 11 -17 11 -7 0
-18 7 -26 16 -7 8 -30 24 -51 35 -21 11 -36 24 -33 29 4 6 -1 10 -10 10 -19 0
-75 40 -75 53 0 5 -24 42 -54 83 -30 41 -60 90 -66 109 -6 19 -18 35 -26 35
-8 0 -14 7 -14 15 0 8 5 15 11 15 6 0 -3 12 -20 26 -17 14 -31 34 -31 44 0 10
-4 22 -10 25 -5 3 -10 1 -10 -4 0 -6 -4 -11 -10 -11 -5 0 -10 9 -10 19 0 11
-9 23 -20 26 -11 3 -21 11 -21 16 -1 5 -2 14 -3 21 0 7 -17 21 -36 32 -19 11
-39 26 -43 33 -4 7 -15 13 -22 13 -9 0 -15 10 -15 25 0 14 -7 28 -15 31 -9 4
-14 13 -13 22 4 21 -58 62 -94 62 -25 0 -28 3 -23 21 5 16 3 20 -11 17 -12 -2
-20 6 -26 30 -5 17 -15 32 -22 32 -8 0 -16 4 -18 8 -1 4 -20 18 -40 31 -23 13
-38 30 -38 42 0 10 -4 19 -10 19 -5 0 -10 -7 -10 -15 0 -10 -6 -12 -17 -7 -35
14 -63 37 -63 52 0 8 -18 26 -39 39 -40 24 -62 71 -35 71 8 0 14 5 14 11 0 6
-6 9 -14 6 -8 -3 -26 3 -39 14 -14 10 -28 19 -32 19 -3 0 -13 6 -21 14 -10 11
-11 15 -1 19 7 2 3 8 -11 16 -12 6 -22 21 -22 32 0 11 -9 29 -20 41 -17 19
-20 19 -20 5 0 -31 -25 -18 -44 23 -11 22 -23 40 -28 40 -4 0 -8 16 -8 36 0
27 -5 37 -20 41 -11 3 -20 8 -20 12 0 12 -45 56 -82 81 -38 25 -51 62 -25 74
10 5 10 7 0 12 -7 3 -13 11 -13 18 0 13 -35 46 -49 46 -5 0 -11 7 -15 15 -3 8
-17 20 -31 27 -15 7 -25 19 -25 33 0 12 -9 31 -20 43 -12 13 -20 35 -20 57 0
22 -6 38 -15 41 -8 4 -15 14 -15 23 -1 21 -34 61 -52 61 -7 0 -22 12 -33 27
-11 15 -30 37 -43 50 -22 22 -22 23 -2 23 11 0 20 5 20 10 0 6 -4 10 -10 10
-5 0 -10 6 -10 13 0 12 -34 47 -45 47 -8 0 -64 64 -65 73 0 4 9 7 20 7 11 0
20 5 20 11 0 5 -4 8 -9 5 -5 -3 -20 3 -34 14 -14 11 -30 20 -36 20 -6 0 -11
11 -11 23 0 13 -9 32 -20 42 -11 10 -20 28 -20 40 0 12 -9 31 -20 43 -11 12
-20 35 -20 51 0 21 -6 32 -20 36 -11 3 -21 12 -21 18 -3 27 -5 33 -16 52 -6
11 -15 17 -19 13 -11 -11 -34 11 -34 32 0 21 -31 80 -42 80 -5 0 -8 8 -8 19 0
10 -7 24 -15 31 -8 7 -15 21 -15 30 0 21 -31 80 -42 80 -5 0 -8 8 -8 19 0 10
-7 24 -15 31 -20 17 -19 30 3 30 13 0 10 6 -13 25 -16 13 -36 24 -42 25 -7 0
-13 6 -13 14 0 8 6 16 13 19 8 3 2 15 -18 36 -20 22 -26 34 -18 39 15 10 -6
82 -24 82 -8 0 -13 15 -13 40 0 36 -2 40 -25 40 -22 0 -25 4 -25 36 0 35 -26
94 -42 94 -4 0 -8 15 -8 34 0 18 -7 39 -15 46 -8 7 -15 21 -15 32 0 10 -8 30
-17 44 -13 20 -14 27 -4 34 10 6 10 12 0 29 -8 11 -17 21 -21 21 -5 0 -8 7 -8
15 0 8 5 15 11 15 6 0 -3 19 -20 42 -22 30 -31 53 -31 80 0 31 -4 38 -20 38
-18 0 -20 7 -20 87 0 75 -3 90 -21 110 -14 14 -24 40 -27 73 -3 33 -9 50 -18
50 -10 0 -14 13 -14 40 0 29 -4 40 -15 40 -11 0 -15 11 -15 40 0 22 -4 40 -9
40 -5 0 -12 35 -16 78 -4 42 -12 80 -19 85 -8 5 -6 10 7 18 18 11 24 59 7 59
-5 0 -10 18 -10 40 0 36 -2 40 -26 40 l-25 0 1 168 c1 92 1 173 1 181 -1 9 -9
11 -25 7 -22 -5 -26 -1 -44 53 -11 33 -18 62 -14 65 3 3 0 6 -6 6 -6 0 -9 7
-6 15 4 9 1 15 -8 15 -7 0 -18 8 -24 18 -6 9 -29 23 -50 31 -21 8 -68 27 -104
43 -35 17 -103 43 -150 59 -182 62 -512 172 -650 215 -80 25 -174 56 -210 69
-36 13 -139 46 -230 75 -291 91 -433 141 -516 181 -75 35 -85 43 -124 104 -40
62 -44 73 -51 157 -4 50 -5 150 -3 222 6 208 9 729 5 866 -4 139 6 193 44 234
23 25 30 27 105 25 44 -1 83 -6 86 -10z m-2376 -50 c7 -11 9 -28 5 -37 -6 -15
-8 -15 -21 2 -16 23 -19 56 -4 56 5 0 14 -9 20 -21z m-306 -5 c7 -19 -1 -34
-19 -34 -18 0 -28 17 -21 35 7 20 32 19 40 -1z m582 -41 c15 -15 28 -17 19 -3
-3 6 -2 10 3 10 11 0 33 -46 25 -54 -12 -12 -43 -6 -43 9 0 18 -20 20 -20 3 0
-7 -5 -5 -11 5 -6 10 -8 30 -4 45 5 18 9 22 13 12 3 -8 11 -20 18 -27z m18834
-133 c0 -5 -2 -10 -4 -10 -3 0 -8 5 -11 10 -3 6 -1 10 4 10 6 0 11 -4 11 -10z
m-19062 -91 c3 -22 -1 -25 -25 -23 -41 2 -41 2 -48 25 -9 27 9 39 44 30 18 -5
27 -15 29 -32z m-384 5 c9 -22 8 -24 -9 -18 -8 4 -15 12 -15 20 0 19 16 18 24
-2z m613 3 c11 4 14 2 9 -5 -11 -18 -36 -14 -35 6 0 9 3 12 5 5 3 -7 12 -9 21
-6z m-559 -67 c10 -17 10 -21 -3 -27 -21 -7 -39 11 -32 31 8 22 20 20 35 -4z
m609 -20 c-4 -30 -8 -35 -27 -28 -11 3 10 58 22 58 4 0 6 -14 5 -30z m-343
-146 c4 -10 1 -14 -6 -12 -15 5 -23 28 -10 28 5 0 13 -7 16 -16z m296 -50 c28
-39 34 -57 38 -116 l5 -69 -39 3 -39 3 -3 113 c-1 61 -1 112 1 112 2 0 19 -21
37 -46z m-750 -25 c0 -11 -4 -17 -10 -14 -5 3 -10 13 -10 21 0 8 5 14 10 14 6
0 10 -9 10 -21z m85 -9 c4 -6 23 -17 43 -26 20 -8 40 -20 44 -27 13 -20 9 -37
-7 -37 -9 0 -26 -7 -40 -16 -18 -12 -34 -13 -65 -7 l-41 8 21 23 c12 13 20 26
17 28 -6 7 -47 -18 -47 -28 0 -5 -4 -8 -10 -8 -5 0 -10 16 -10 35 0 28 4 35
19 35 10 0 24 7 31 15 14 17 36 20 45 5z m1819 -201 c8 -50 0 -72 -21 -56 -54
44 -64 68 -47 111 6 14 9 14 34 -1 20 -11 30 -27 34 -54z m-1486 24 c17 -13
32 -28 32 -32 0 -4 -15 -8 -32 -8 -37 0 -57 20 -58 55 0 25 4 24 58 -15z
m-240 -91 c2 -7 -7 -12 -22 -12 -16 0 -26 6 -26 15 0 18 42 15 48 -3z m213 -9
c0 -10 2 -31 4 -48 3 -16 1 -39 -2 -50 -5 -16 -8 -11 -14 20 -11 57 -11 95 1
95 6 0 10 -8 11 -17z m366 -89 c26 -7 39 -44 15 -44 -14 0 -15 -2 -3 -9 9 -6
15 -27 15 -58 l1 -48 -35 3 c-57 4 -60 7 -60 64 0 94 10 107 67 92z m-304
-379 c15 -14 27 -31 27 -38 0 -27 -13 -57 -24 -57 -15 0 -49 36 -66 68 -26 52
16 70 63 27z m307 -95 c13 -8 13 -10 -2 -10 -9 0 -20 5 -23 10 -8 13 5 13 25
0z m16680 -21 c0 -5 -5 -7 -12 -3 -7 5 -9 2 -5 -9 4 -11 2 -14 -9 -10 -11 4
-12 9 -3 19 14 17 29 18 29 3z m120 -13 c0 -22 -19 -30 -35 -16 -22 18 -18 30
10 30 15 0 25 -6 25 -14z m-16776 -52 c20 -7 23 -74 4 -74 -18 1 -54 31 -67
58 -11 20 -10 22 18 22 16 0 36 -3 45 -6z m-795 -23 c6 -10 8 -21 5 -23 -2 -3
0 -16 5 -30 19 -50 -20 -61 -68 -19 -25 22 -26 34 -5 66 19 30 49 32 63 6z
m804 -68 c4 -2 7 -22 7 -44 0 -32 -4 -39 -19 -39 -25 0 -61 46 -61 77 0 22 3
24 33 18 17 -4 35 -9 40 -12z m-518 -238 c-30 -51 -39 -54 -72 -23 -28 26 -29
38 -3 38 10 0 36 12 57 26 47 31 52 19 18 -41z m86 -42 c-8 -15 -10 -15 -11
-2 0 17 10 32 18 25 2 -3 -1 -13 -7 -23z m290 -231 c64 -42 78 -62 89 -127 11
-65 1 -95 -30 -95 -15 0 -20 7 -20 29 0 39 -14 46 -30 15 -30 -55 -112 -33
-129 34 -19 79 0 157 41 165 13 2 25 5 29 6 3 0 25 -12 50 -27z m-621 -233 c0
-14 -41 -48 -57 -49 -21 0 -15 28 9 44 26 19 48 21 48 5z m-40 -535 c0 -17
-22 -14 -28 4 -2 7 3 12 12 12 9 0 16 -7 16 -16z m45 -184 c0 -22 -39 -19 -43
3 -3 15 1 18 20 15 12 -2 23 -10 23 -18z m29 -85 c9 -14 13 -25 9 -25 -12 1
-46 50 -35 50 6 0 17 -11 26 -25z m28611 -524 c-56 -25 -95 -33 -95 -21 0 5
10 10 23 10 12 0 33 7 47 14 14 8 34 14 45 14 12 0 4 -6 -20 -17z m-6993
-1112 c134 -39 235 -101 306 -187 46 -56 191 -299 256 -429 44 -88 106 -257
106 -288 0 -23 -18 -18 -25 8 -35 118 -146 344 -234 477 -38 58 -73 110 -78
115 -4 6 -15 23 -23 39 -19 37 -130 139 -186 170 -84 47 -237 86 -338 86 -55
0 -55 5 1 26 46 17 119 11 215 -17z m-6572 -169 c0 -5 -4 -10 -9 -10 -6 0 -13
5 -16 10 -3 6 1 10 9 10 9 0 16 -4 16 -10z m5850 -203 c0 -2 -38 -27 -84 -55
-112 -69 -219 -154 -340 -271 -54 -53 -90 -83 -80 -67 21 33 198 194 299 271
98 75 205 138 205 122z m-4793 -124 c-4 -3 -46 -7 -94 -9 -60 -1 -77 1 -53 6
44 9 156 12 147 3z m1193 -37 c-15 -14 -157 -66 -181 -66 -27 0 8 18 76 40 39
12 77 26 85 31 23 13 36 10 20 -5z m-1210 -57 c14 -1 1 -5 -29 -9 -61 -9 -104
-1 -61 11 14 4 34 6 45 3 11 -2 31 -4 45 -5z m-122 -21 c-3 -7 -22 -16 -44
-19 -85 -15 -100 -18 -134 -28 -19 -6 -44 -11 -55 -11 -18 0 -18 1 3 16 33 23
78 34 149 35 35 1 63 5 63 10 0 5 5 9 11 9 6 0 9 -6 7 -12z m987 -18 c-3 -5
-11 -10 -16 -10 -6 0 -7 5 -4 10 3 6 11 10 16 10 6 0 7 -4 4 -10z m68 3 c-7
-2 -19 -2 -25 0 -7 3 -2 5 12 5 14 0 19 -2 13 -5z m-875 -49 c12 -4 22 -11 22
-16 0 -5 -6 -5 -16 0 -9 5 -25 7 -35 5 -11 -3 -19 0 -19 6 0 12 14 14 48 5z
m-15758 -68 c0 -8 -4 -18 -10 -21 -5 -3 -10 -4 -10 -1 0 2 -3 11 -6 20 -4 11
-1 16 10 16 9 0 16 -6 16 -14z m15129 -51 c-10 -10 -22 -13 -35 -8 -16 6 -15
8 11 14 17 4 32 7 35 8 2 0 -3 -6 -11 -14z m111 -15 c0 -5 -2 -10 -4 -10 -3 0
-8 5 -11 10 -3 6 -1 10 4 10 6 0 11 -4 11 -10z m-243 -20 c39 -23 77 -60 70
-67 -5 -5 -117 74 -117 82 0 10 16 5 47 -15z m152 -15 c5 -2 8 3 7 13 -1 12 5
16 24 14 13 -1 27 -6 30 -10 20 -28 67 -52 104 -53 32 0 37 -2 21 -9 -14 -6
-6 -7 23 -3 34 5 42 3 42 -11 0 -9 -7 -16 -17 -16 -9 0 -13 -3 -10 -7 4 -3
-10 -12 -30 -19 -35 -12 -41 -11 -73 10 -19 12 -60 31 -90 42 -30 10 -57 21
-60 24 -3 3 -18 12 -34 20 -49 25 -44 40 9 25 25 -8 50 -17 54 -20z m212 24
c9 -6 -1 -9 -30 -9 -36 0 -42 -2 -32 -14 8 -9 8 -16 2 -20 -5 -4 -12 3 -16 14
-3 11 -11 20 -16 20 -6 0 -8 4 -4 9 7 12 78 12 96 0z m644 -14 c30 -14 78 -30
107 -35 69 -11 244 -66 232 -72 -24 -13 -112 -7 -231 17 -100 20 -137 24 -152
16 -13 -7 -22 -8 -26 -1 -3 5 1 10 10 10 9 0 14 4 11 8 -2 4 -33 9 -67 10 -76
3 -91 12 -23 13 59 1 161 16 122 18 -16 0 -28 6 -28 11 0 6 -7 10 -15 10 -8 0
-15 5 -15 10 0 16 17 12 75 -15z m-485 5 c11 -8 0 -10 -37 -8 -29 1 -55 -1
-59 -4 -7 -8 85 -28 139 -30 l42 -1 -38 -4 c-38 -4 -43 -23 -6 -23 11 0 17 -4
14 -10 -9 -14 81 -13 107 1 17 9 20 9 16 -2 -4 -10 5 -14 31 -16 108 -5 183
-16 170 -24 -11 -7 -9 -9 8 -9 12 0 24 -3 26 -7 5 -9 -162 0 -228 11 -22 4
-69 12 -103 18 -42 7 -59 14 -50 19 9 6 4 9 -15 9 -16 0 -35 7 -43 15 -9 8
-26 15 -38 15 -26 0 -61 34 -51 49 8 14 95 14 115 1z m50 -10 c0 -5 -7 -10
-16 -10 -8 0 -12 5 -9 10 3 6 10 10 16 10 5 0 9 -4 9 -10z m125 -10 c3 -5 2
-10 -4 -10 -5 0 -13 5 -16 10 -3 6 -2 10 4 10 5 0 13 -4 16 -10z m1062 -72
c51 -80 93 -163 93 -183 0 -9 5 -13 10 -10 6 3 10 -1 10 -10 0 -8 4 -23 9 -33
31 -61 51 -112 51 -130 0 -11 4 -23 9 -26 9 -6 61 -157 61 -178 0 -6 7 -16 16
-22 9 -7 17 -24 17 -39 2 -25 3 -26 16 -10 12 17 13 16 6 -4 -4 -15 -2 -23 6
-23 20 0 68 -60 62 -78 -4 -10 -2 -13 5 -8 8 5 12 0 12 -13 0 -11 9 -25 20
-31 11 -6 20 -15 20 -19 0 -17 54 -91 66 -91 27 0 144 -158 144 -195 0 -14 3
-25 8 -25 4 0 13 -14 21 -31 12 -27 11 -36 -14 -92 -15 -34 -34 -70 -42 -79
-21 -24 -26 -83 -15 -166 11 -77 8 -105 -12 -99 -23 7 -106 195 -161 365 -91
283 -140 420 -187 527 -25 55 -53 125 -63 155 -22 69 -64 182 -122 330 -25 63
-56 149 -69 190 -36 113 -33 116 23 28z m-1287 22 c0 -5 -5 -10 -11 -10 -5 0
-7 5 -4 10 3 6 8 10 11 10 2 0 4 -4 4 -10z m195 0 c-3 -5 -10 -10 -16 -10 -5
0 -9 5 -9 10 0 6 7 10 16 10 8 0 12 -4 9 -10z m-665 -19 c0 -6 58 -31 73 -31
4 0 7 7 7 15 0 9 6 12 16 8 8 -3 13 -12 9 -21 -3 -8 0 -21 7 -29 7 -8 11 -28
10 -44 -2 -29 -2 -29 21 -14 22 14 29 13 114 -25 50 -22 104 -40 119 -40 16
-1 40 -7 54 -15 14 -8 39 -14 57 -15 17 0 34 -4 37 -9 3 -4 33 -11 66 -15 34
-4 58 -11 55 -17 -4 -5 0 -9 7 -10 7 0 40 -3 73 -6 96 -11 128 -9 133 6 2 8 1
11 -4 8 -5 -3 -20 1 -34 9 -23 13 -18 13 53 8 82 -6 109 9 37 21 -22 4 -40 11
-40 16 0 12 57 12 65 -1 9 -15 108 -12 130 4 21 14 135 18 135 4 0 -4 -9 -8
-19 -8 -11 0 -37 -15 -57 -34 -21 -19 -50 -38 -64 -41 -14 -4 -33 -14 -42 -22
-24 -21 -99 -27 -91 -7 4 10 -4 14 -30 14 -22 0 -37 -6 -41 -15 -3 -8 -15 -15
-27 -15 -15 0 -19 4 -15 16 5 14 1 16 -24 11 -16 -4 -30 -3 -30 2 0 4 -23 6
-51 3 -29 -3 -76 2 -112 11 -34 9 -93 23 -132 32 -38 9 -81 20 -95 24 -14 5
-44 14 -67 21 -24 7 -43 16 -43 20 0 4 -12 12 -26 18 -14 7 -23 8 -19 2 7 -11
-42 5 -61 21 -6 5 -19 7 -28 3 -12 -5 -18 2 -22 26 -5 22 -20 41 -47 61 -22
16 -45 29 -51 29 -6 0 -17 9 -23 20 -11 16 -10 18 2 14 8 -4 15 -9 15 -13z
m6900 -26 c0 -8 -2 -15 -4 -15 -2 0 -6 7 -10 15 -3 8 -1 15 4 15 6 0 10 -7 10
-15z m-6550 -40 c7 -8 8 -15 2 -15 -5 0 -15 7 -22 15 -7 8 -8 15 -2 15 5 0 15
-7 22 -15z m207 -21 c-3 -3 -12 -4 -19 -1 -8 3 -5 6 6 6 11 1 17 -2 13 -5z
m420 -20 c-3 -3 -12 -4 -19 -1 -8 3 -5 6 6 6 11 1 17 -2 13 -5z m-907 -27 c14
-13 32 -26 42 -29 9 -4 22 -18 30 -31 7 -13 23 -42 35 -64 37 -67 134 -143
182 -143 31 0 17 20 -45 65 -31 22 -63 47 -73 56 -10 8 -25 18 -34 22 -20 7
-23 26 -4 28 29 3 42 -6 120 -85 81 -81 85 -84 148 -95 36 -6 77 -11 92 -11
14 0 38 -11 53 -25 16 -15 39 -25 55 -25 16 0 29 -4 29 -8 0 -13 -68 -6 -86 9
-11 9 -15 9 -10 2 11 -20 -5 -15 -20 5 -10 14 -15 15 -25 5 -11 -11 -10 -13 4
-13 9 0 17 -7 17 -15 0 -17 -11 -19 -26 -7 -5 5 -39 17 -77 27 -37 9 -70 21
-73 26 -3 5 -15 9 -26 9 -21 0 -21 0 3 -26 16 -18 -1 -10 -56 26 -44 28 -81
56 -83 61 -2 5 -9 9 -16 9 -17 0 -100 83 -103 103 -1 8 -48 83 -79 125 -21 29
-6 28 26 -1z m637 7 c-3 -3 -12 -4 -19 -1 -8 3 -5 6 6 6 11 1 17 -2 13 -5z
m246 -1 c-13 -2 -33 -2 -45 0 -13 2 -3 4 22 4 25 0 35 -2 23 -4z m-583 -28 c7
-8 8 -15 2 -15 -5 0 -15 7 -22 15 -7 8 -8 15 -2 15 5 0 15 -7 22 -15z m-15422
-52 c2 -7 -5 -14 -15 -14 -16 -1 -16 -2 0 -6 9 -2 17 -9 17 -14 0 -10 59 -49
74 -49 5 0 -1 12 -15 26 l-24 27 37 -24 c70 -45 110 -136 92 -207 -11 -43 -26
-50 -52 -24 -27 27 -50 34 -74 21 -12 -7 -18 -17 -15 -29 3 -10 -1 -21 -8 -24
-8 -3 -11 -13 -8 -27 5 -19 3 -20 -18 -14 -13 4 -29 12 -36 17 -6 5 -20 8 -30
7 -28 -3 -53 11 -53 32 0 10 7 19 15 19 20 0 19 24 -1 41 -33 27 2 165 58 231
23 29 48 33 56 11z m15135 -41 c13 -26 32 -60 42 -77 l20 -30 -38 28 c-20 15
-37 24 -37 20 -1 -17 -39 63 -40 83 -1 50 22 40 53 -24z m1589 -26 c33 21 -64
-98 -131 -161 -181 -169 -317 -242 -553 -298 -140 -34 -338 -37 -383 -7 l-30
20 41 -6 c26 -4 44 -2 48 5 4 7 0 11 -11 11 -11 0 -28 7 -39 15 -27 20 -51 20
-34 0 18 -22 4 -19 -51 11 -27 15 -46 31 -43 35 3 5 -7 9 -23 9 -15 1 -39 7
-53 15 -14 8 -39 14 -56 15 -70 0 -195 92 -226 165 -7 17 -18 36 -25 43 -7 7
-13 21 -13 30 0 10 10 2 25 -20 14 -20 25 -41 25 -45 0 -17 106 -112 133 -118
15 -4 30 -11 33 -16 7 -12 44 -12 44 0 0 6 -17 22 -37 37 -97 71 -127 95 -141
115 -10 14 1 9 36 -15 27 -20 54 -36 60 -36 6 0 33 -21 59 -46 49 -48 87 -68
110 -60 8 3 11 1 8 -4 -3 -6 5 -10 19 -10 14 0 26 5 26 12 0 6 7 4 18 -5 10
-10 27 -16 38 -16 16 1 16 2 2 6 -9 2 -15 10 -12 18 6 14 -29 30 -45 20 -6 -3
-25 8 -43 26 -23 21 -27 29 -13 24 11 -4 30 -9 41 -10 26 -4 74 -34 74 -46 0
-5 4 -9 10 -9 5 0 7 7 3 16 -5 13 4 10 33 -10 21 -14 44 -26 51 -26 17 0 17
20 1 21 -7 0 -3 5 10 11 12 6 22 15 22 20 0 4 14 8 32 8 34 0 29 -15 -7 -22
-11 -3 8 -5 43 -5 34 -1 65 3 68 8 7 12 55 0 74 -18 13 -13 10 -14 -27 -8 -31
5 -43 3 -43 -5 0 -7 8 -10 20 -7 10 3 21 0 23 -6 2 -7 13 -7 33 -1 44 14 119
3 119 -18 0 -24 24 -46 33 -31 4 6 30 14 57 18 67 10 183 66 253 122 31 26 59
50 62 53 4 5 128 105 185 148 6 5 18 11 28 15 9 3 17 12 18 19 0 10 2 10 6 0
2 -6 10 -9 15 -6z m-1247 -56 c3 -5 3 -10 -1 -10 -12 0 -84 44 -84 51 0 9 77
-28 85 -41z m35 10 c0 -5 8 -11 18 -11 16 -1 16 -2 0 -6 -10 -2 -25 3 -34 11
-14 15 -14 16 0 16 9 0 16 -4 16 -10z m162 -10 c12 -11 18 -20 12 -20 -11 1
-44 25 -44 34 0 11 10 7 32 -14z m-37 -14 c17 -13 28 -27 25 -29 -3 -3 -21 7
-39 24 -40 35 -29 39 14 5z m-55 -16 c0 -5 -4 -10 -10 -10 -5 0 -10 5 -10 10
0 6 5 10 10 10 6 0 10 -4 10 -10z m-15740 -4 c0 -2 -7 -7 -16 -10 -8 -3 -12
-2 -9 4 6 10 25 14 25 6z m15878 -23 c-10 -2 -26 -2 -35 0 -10 3 -2 5 17 5 19
0 27 -2 18 -5z m47 -53 c8 -13 -15 -13 -35 0 -12 8 -11 10 7 10 12 0 25 -4 28
-10z m-72 -90 c7 0 8 -3 1 -10 -12 -12 -56 -1 -48 12 3 5 13 7 21 4 8 -3 20
-6 26 -6z m557 -18 c0 -9 -70 -47 -106 -57 -12 -3 -26 0 -33 8 -8 11 -5 16 15
25 14 7 33 12 44 12 10 0 22 5 25 10 7 12 55 13 55 2z m-16272 -42 c12 -11 26
-20 32 -20 5 0 10 -4 10 -10 0 -18 -53 -10 -87 13 -18 12 -33 25 -33 30 0 15
57 6 78 -13z m15387 -61 c48 -11 115 -41 115 -51 0 -11 -7 -10 -74 13 -71 25
-146 57 -146 63 0 3 15 0 33 -6 17 -5 50 -14 72 -19z m6635 -56 c0 -113 -40
-298 -90 -407 -34 -75 -85 -146 -105 -146 -17 0 -20 21 -6 36 23 23 83 143
105 208 39 117 76 283 76 344 0 28 3 33 10 22 5 -8 10 -34 10 -57z m-6392 -30
c-10 -2 -26 -2 -35 0 -10 3 -2 5 17 5 19 0 27 -2 18 -5z m-16060 -222 c11 -7
10 -10 -3 -15 -19 -7 -35 0 -35 15 0 11 20 12 38 0z m390 -163 c20 -20 14 -28
-23 -28 -23 0 -35 5 -35 13 0 28 36 37 58 15z m-60 -60 c-5 -32 -28 -35 -28
-4 0 17 5 26 16 26 10 0 14 -7 12 -22z m19247 -423 c63 -28 196 -161 268 -267
28 -43 75 -107 102 -143 28 -37 108 -143 179 -238 71 -95 133 -173 137 -175 5
-2 9 -9 9 -16 0 -7 8 -21 18 -32 10 -10 27 -34 37 -51 11 -18 22 -33 26 -33 4
0 17 -20 28 -44 12 -24 33 -57 46 -72 14 -16 25 -32 25 -36 0 -7 6 -15 57 -76
13 -15 23 -31 23 -36 0 -5 7 -17 15 -26 24 -27 96 -162 154 -290 6 -14 15 -32
21 -40 17 -27 158 -324 165 -350 4 -14 16 -37 26 -52 11 -14 19 -33 19 -41 0
-9 6 -22 14 -29 7 -8 19 -32 27 -53 8 -22 22 -48 31 -59 9 -10 27 -44 39 -75
12 -31 26 -61 31 -68 6 -7 7 -17 4 -22 -4 -5 -2 -12 4 -16 5 -3 10 -15 10 -25
0 -10 6 -23 13 -27 12 -8 67 -114 67 -130 0 -5 14 -19 31 -33 29 -23 94 -78
130 -108 32 -28 123 -92 131 -92 4 0 8 -5 8 -11 0 -6 14 -22 30 -36 21 -17 30
-34 30 -54 0 -16 5 -29 10 -29 6 0 10 -18 10 -40 0 -22 -4 -40 -9 -40 -13 0
-41 -87 -41 -126 0 -17 6 -37 13 -43 8 -6 19 -30 26 -53 13 -43 37 -78 53 -78
12 0 58 -46 58 -58 0 -5 11 -14 25 -20 22 -10 24 -15 14 -33 -6 -13 -8 -39 -5
-64 5 -29 2 -55 -10 -84 -14 -34 -14 -46 -4 -71 10 -24 10 -33 0 -45 -11 -13
-9 -21 10 -47 18 -25 20 -34 11 -54 -6 -13 -16 -24 -23 -24 -10 0 -9 -3 1 -9
8 -5 14 -24 15 -43 l1 -35 -37 9 c-152 34 -309 173 -381 338 -11 25 -34 65
-51 90 -17 25 -30 48 -29 51 2 5 -77 48 -127 68 -23 9 -21 10 17 10 24 1 43
-4 46 -11 4 -10 7 -10 18 -1 17 17 49 17 50 1 0 -7 5 -3 11 10 6 12 15 22 20
22 4 0 8 15 8 33 -1 68 -94 112 -207 96 -61 -9 -111 -11 -153 -7 -21 3 -25 8
-25 33 0 40 41 150 77 203 15 24 28 49 28 56 0 23 -36 46 -82 52 -40 6 -62 0
-160 -39 -117 -47 -146 -57 -151 -55 -1 1 -12 -4 -24 -11 -18 -9 -23 -9 -24 1
0 9 -2 10 -5 1 -3 -7 -18 -10 -42 -6 -82 13 -89 38 -19 67 23 9 51 22 62 28
43 25 136 68 145 68 5 0 34 9 65 21 73 27 96 52 88 93 -8 42 -32 76 -52 76 -9
0 -33 14 -53 30 -24 20 -60 36 -100 45 -56 13 -146 43 -218 72 -73 31 -178
135 -211 211 -8 17 -17 32 -21 32 -5 0 -8 6 -8 12 0 29 -65 140 -135 228 -41
52 -160 178 -265 279 -176 169 -210 211 -177 211 6 0 4 5 -6 11 -9 5 -21 8
-25 5 -4 -2 -14 -1 -22 5 -12 7 -9 9 10 10 23 0 23 1 5 9 -19 8 -19 9 3 9 13
1 21 5 18 10 -3 4 3 16 14 26 24 21 26 58 5 75 -8 7 -15 19 -15 26 0 8 -6 14
-13 14 -8 0 -19 11 -25 25 -8 17 -20 25 -38 25 -19 0 -25 4 -21 15 4 8 -6 27
-21 43 -15 16 -36 40 -47 54 -11 13 -28 27 -37 31 -10 3 -18 13 -18 22 0 8 -4
15 -10 15 -5 0 -10 7 -10 15 0 16 -13 35 -38 58 -7 7 -22 20 -33 30 -36 33
-22 120 22 136 16 5 32 18 36 27 6 16 7 16 14 -2 7 -18 8 -18 8 2 1 25 49 52
57 31 3 -8 24 -14 51 -16 38 -2 45 1 39 14 -3 10 -2 14 5 10 5 -4 17 -1 26 6
13 11 18 10 33 -9 10 -12 22 -22 27 -22 14 0 79 -63 87 -83 6 -17 7 -17 23 -2
21 21 13 45 -64 205 -172 354 -213 431 -241 445 -11 6 -26 16 -34 23 -8 6 -42
18 -76 26 -66 15 -117 9 -176 -21 -39 -20 -187 -131 -276 -206 -42 -36 -45
-37 -52 -18 -4 11 -20 23 -35 27 -15 4 -82 32 -148 61 -66 30 -133 59 -148 65
-15 6 -27 14 -25 19 4 12 111 99 122 99 4 0 5 -11 2 -25 -5 -20 -3 -25 12 -25
11 0 27 -9 37 -20 29 -32 35 -31 295 51 59 19 147 56 225 96 26 13 99 24 245
37 86 7 192 -5 245 -29z m-1535 -302 c-137 -123 -181 -168 -189 -197 l-9 -31
-1 28 c-1 37 43 101 108 155 43 37 127 91 140 92 2 0 -20 -21 -49 -47z m946
-106 c-28 -48 -57 -77 -98 -98 -36 -18 -78 -25 -78 -13 0 15 119 138 145 150
42 18 54 2 31 -39z m-18726 -2 c0 -14 -4 -25 -9 -25 -5 0 -16 -3 -25 -6 -12
-5 -16 0 -16 18 0 29 7 38 32 38 13 0 18 -7 18 -25z m305 -65 c0 -8 -8 -16
-17 -18 -13 -2 -18 3 -18 18 0 15 5 20 18 18 9 -2 17 -10 17 -18z m-491 -16
c9 -22 8 -24 -9 -24 -8 0 -15 9 -15 20 0 24 15 27 24 4z m17889 -9 c-10 -13
-24 -26 -31 -29 -7 -3 -2 8 10 24 12 17 26 30 30 30 5 0 1 -11 -9 -25z
m-17413 -85 c0 -5 -10 -10 -22 -10 -19 0 -20 2 -8 10 19 13 30 13 30 0z m-237
-89 l16 -28 -38 -13 c-42 -14 -61 -8 -61 17 0 22 29 53 49 53 9 0 24 -13 34
-29z m6917 9 c168 -11 343 -22 390 -25 116 -7 410 -32 610 -52 91 -9 190 -16
220 -17 30 0 57 -4 60 -8 4 -5 155 -22 287 -31 18 -2 35 -5 38 -8 3 -4 28 -5
56 -2 28 2 66 -1 86 -8 19 -6 65 -12 102 -14 36 -1 73 -5 81 -8 21 -8 72 -16
160 -26 41 -5 86 -11 100 -14 14 -3 67 -11 118 -18 50 -6 92 -16 92 -20 0 -5
16 -9 36 -9 19 0 43 -4 52 -9 9 -5 31 -10 47 -12 17 -2 35 -6 40 -9 6 -4 36
-15 68 -24 34 -11 54 -22 50 -28 -3 -6 -1 -8 5 -4 6 3 26 0 44 -8 18 -8 55
-24 81 -35 26 -12 67 -29 90 -38 23 -9 49 -22 58 -30 18 -15 45 -17 53 -4 3 5
14 7 24 5 9 -3 46 2 82 11 36 9 90 21 120 26 71 12 267 2 348 -18 34 -8 69
-13 76 -10 17 7 109 -21 190 -57 79 -35 184 -146 201 -211 13 -54 17 -167 6
-178 -6 -6 -11 -19 -11 -29 0 -10 -4 -18 -8 -18 -4 0 -14 -16 -21 -36 -8 -22
-26 -43 -46 -55 -18 -11 -36 -26 -39 -34 -3 -8 -12 -15 -21 -15 -9 0 -26 -6
-38 -14 -31 -21 -166 -38 -272 -36 -49 1 -92 3 -96 6 -7 4 -115 23 -159 27
-40 5 -80 18 -80 28 0 5 -10 9 -22 9 -26 0 -82 17 -120 36 -16 7 -28 9 -28 5
0 -5 -17 -5 -37 -1 -64 14 -191 20 -195 10 -2 -5 -12 -11 -23 -13 -11 -1 -24
-5 -30 -9 -5 -3 -32 -9 -60 -13 -27 -4 -65 -14 -84 -21 -18 -8 -48 -14 -66
-14 -17 0 -35 -3 -39 -7 -16 -17 -370 1 -541 27 -33 5 -91 12 -130 15 -38 3
-92 10 -120 15 -27 5 -75 12 -105 15 -30 3 -107 15 -170 25 -63 11 -160 26
-215 35 -108 17 -371 60 -420 70 -16 3 -48 8 -70 11 -22 3 -67 10 -100 15 -33
5 -89 13 -125 18 -36 4 -87 13 -115 19 -27 6 -86 15 -130 21 -44 5 -93 12
-110 15 -16 3 -59 11 -95 17 -36 7 -101 20 -145 29 -44 10 -114 24 -155 30
-96 16 -284 77 -328 107 -19 13 -41 23 -48 23 -8 0 -14 6 -14 14 0 8 -8 17
-18 21 -11 3 -24 15 -30 28 -7 12 -16 29 -21 37 -36 57 -50 110 -52 195 -2 77
1 97 22 140 28 59 78 118 95 111 7 -3 20 4 30 15 12 14 31 19 68 20 41 1 127
10 156 18 3 0 142 -8 310 -19z m12250 0 c0 -5 -2 -10 -4 -10 -3 0 -8 5 -11 10
-3 6 -1 10 4 10 6 0 11 -4 11 -10z m-18935 -30 c0 -13 -5 -25 -12 -27 -13 -5
-27 32 -18 47 11 18 30 5 30 -20z m26163 -143 c2 -11 -3 -17 -16 -17 -26 0
-34 11 -20 27 14 17 32 12 36 -10z m442 -32 c0 -8 -7 -15 -15 -15 -9 0 -12 6
-9 15 4 8 10 15 15 15 5 0 9 -7 9 -15z m-26595 -100 c0 -36 -29 -47 -38 -15
-8 30 2 52 22 48 10 -2 16 -14 16 -33z m26395 15 c0 -5 -5 -10 -11 -10 -5 0
-7 5 -4 10 3 6 8 10 11 10 2 0 4 -4 4 -10z m-8535 -30 c3 -5 2 -10 -4 -10 -5
0 -13 5 -16 10 -3 6 -2 10 4 10 5 0 13 -4 16 -10z m-18105 -50 c0 -5 -7 -10
-15 -10 -8 0 -15 -4 -15 -10 0 -5 -4 -10 -9 -10 -6 0 -9 9 -8 20 1 14 8 20 24
20 13 0 23 -4 23 -10z m18385 -110 c2 -3 16 -119 30 -256 14 -137 30 -265 35
-284 4 -19 11 -177 15 -350 5 -239 10 -328 22 -369 l15 -53 45 6 c47 6 67 -1
158 -53 102 -58 140 -53 277 39 51 34 95 65 98 69 12 15 59 35 144 62 72 23
110 29 183 29 50 0 94 -4 97 -9 14 -23 -41 -46 -184 -77 -150 -33 -358 -170
-376 -248 l-7 -29 74 7 c101 10 237 58 285 101 7 5 29 24 49 40 44 35 85 77
85 86 0 4 12 11 28 17 35 12 54 -6 71 -68 7 -25 21 -59 30 -75 10 -17 21 -43
24 -57 l7 -27 -72 37 c-40 20 -87 36 -103 36 -17 0 -80 -23 -140 -51 -183 -86
-230 -98 -380 -98 -153 1 -216 17 -310 80 -51 34 -65 50 -96 113 -48 96 -76
273 -89 562 -22 488 -45 813 -60 818 -5 2 -10 7 -10 11 0 10 48 2 55 -9z m389
-120 c15 -15 -17 -22 -47 -11 -39 15 -35 35 5 27 18 -3 37 -11 42 -16z
m-18746 -252 c9 -32 4 -57 -5 -30 -3 6 -9 12 -14 12 -12 0 -12 -37 1 -42 6 -2
6 -8 0 -18 -8 -13 -10 -12 -10 3 0 9 -5 17 -11 17 -20 0 -4 -35 19 -38 17 -3
22 2 22 17 0 12 4 21 10 21 5 0 7 -14 3 -32 -6 -37 -23 -62 -23 -36 0 10 -10
18 -22 20 -26 3 -36 44 -19 76 7 13 7 22 -2 31 -9 9 -8 14 3 21 26 17 39 11
48 -22z m-313 -24 c12 -3 26 -14 32 -24 10 -15 9 -17 -10 -12 -12 2 -29 10
-37 17 -8 7 -22 15 -30 18 -21 7 18 9 45 1z m673 -47 c2 -11 -3 -17 -16 -17
-23 0 -37 26 -19 34 19 7 32 1 35 -17z m-388 -57 c0 -5 -2 -10 -4 -10 -3 0 -8
5 -11 10 -3 6 -1 10 4 10 6 0 11 -4 11 -10z m-275 -107 c-7 -17 -8 -16 -18 5
-5 12 -14 22 -19 22 -4 0 -8 10 -8 22 0 22 0 22 26 -4 19 -19 25 -32 19 -45z
m319 -41 c2 -26 3 -63 2 -82 -2 -19 -4 -52 -5 -72 -1 -30 -5 -38 -20 -38 -47
0 -51 7 -51 104 0 98 12 130 48 133 17 1 21 -6 26 -45z m-262 -2 c-2 -19 -4
-65 -4 -102 -1 -63 -2 -68 -23 -68 -39 0 -91 84 -63 102 9 5 10 8 1 8 -9 0 -8
8 3 28 7 15 14 34 14 42 0 12 2 13 9 1 7 -11 10 -9 16 8 5 15 13 21 28 19 19
-3 21 -8 19 -38z m-106 15 c-3 -20 -20 -20 -24 -1 -2 9 3 16 11 16 9 0 14 -7
13 -15z m697 -30 c57 -24 73 -63 68 -171 -1 -19 -64 -74 -84 -74 -11 0 -8 58
3 65 17 10 11 58 -11 84 -11 13 -21 22 -24 20 -2 -3 -5 -35 -7 -72 -5 -92 -17
-100 -68 -50 -33 34 -40 47 -40 80 0 47 16 101 39 126 18 21 61 18 124 -8z
m161 -280 c-4 -8 -8 -15 -10 -15 -2 0 -4 7 -4 15 0 8 4 15 10 15 5 0 7 -7 4
-15z m30 -39 c9 -38 -2 -57 -31 -51 -38 6 -41 15 -11 40 15 13 24 26 21 29 -4
3 -2 6 4 6 6 0 14 -11 17 -24z m22753 18 c-3 -4 11 -18 31 -32 20 -13 43 -33
49 -42 7 -10 24 -21 38 -24 14 -4 24 -10 22 -14 -3 -12 49 -61 78 -72 14 -5
25 -17 25 -28 0 -19 64 -57 80 -47 5 3 14 -3 19 -14 6 -11 24 -22 41 -26 22
-5 30 -12 30 -28 0 -18 2 -19 10 -7 7 11 12 12 21 3 8 -8 6 -55 -10 -184 -24
-201 -28 -267 -36 -554 -4 -115 -13 -248 -21 -295 -8 -47 -19 -106 -23 -133
-5 -26 -11 -51 -15 -55 -4 -3 -4 18 1 48 4 30 8 91 8 135 l0 79 -60 43 c-33
23 -138 95 -232 160 -95 65 -203 139 -240 166 -78 55 -235 137 -308 161 -63
20 -67 39 -25 120 17 32 35 79 41 104 6 26 19 56 29 67 10 11 20 31 22 44 1
14 13 36 25 50 13 14 32 36 43 49 11 13 18 27 15 32 -3 4 1 10 9 13 9 4 12 14
9 28 -4 14 -2 20 5 16 6 -4 16 6 23 22 7 16 18 27 23 24 5 -4 7 0 4 9 -4 8 -3
20 1 27 11 17 52 69 77 96 12 13 19 27 15 31 -3 3 4 3 16 0 13 -4 31 -3 40 3
10 6 12 11 6 11 -7 0 -13 5 -13 10 0 6 29 10 67 10 36 0 64 -3 60 -6z m-22850
-36 c-3 -8 -6 -5 -6 6 -1 11 2 17 5 13 3 -3 4 -12 1 -19z m-490 -218 c-3 -11
-1 -20 4 -20 13 0 11 -13 -5 -35 -11 -15 -17 -17 -28 -7 -8 6 -18 9 -21 6 -8
-8 -1 52 8 66 3 5 15 10 27 10 15 0 19 -5 15 -20z m93 -45 c0 -15 -6 -25 -15
-25 -18 0 -38 37 -31 56 9 24 46 -2 46 -31z m255 -18 c22 -31 19 -94 -3 -106
-19 -10 -62 -5 -63 8 0 3 -2 25 -5 48 -10 74 33 104 71 50z m16693 -317 c-7
-10 -14 -17 -17 -15 -4 4 18 35 25 35 2 0 -1 -9 -8 -20z m-74 -82 c-27 -29
-53 -55 -59 -57 -5 -2 2 9 17 25 14 16 39 43 54 61 15 18 30 30 32 28 3 -3
-17 -28 -44 -57z m-16890 -7 c10 -16 -23 -34 -49 -27 -44 11 -29 28 32 35 6 0
14 -3 17 -8z m-244 -47 c0 -16 -9 -17 -29 -5 -8 5 -11 16 -7 26 5 14 9 15 21
5 8 -7 15 -19 15 -26z m19938 -30 c5 -9 18 -14 28 -12 10 2 24 -2 29 -9 9 -12
29 -15 125 -23 l25 -2 -25 -7 c-42 -13 76 -23 140 -12 58 9 66 8 56 -7 -9 -15
-136 -23 -213 -13 -80 10 -149 40 -176 77 -10 13 -13 24 -8 24 6 0 14 -7 19
-16z m-2916 -56 c-17 -24 -39 -52 -50 -64 -10 -11 -57 -65 -103 -120 -46 -55
-124 -145 -173 -200 -49 -54 -113 -129 -143 -167 -62 -77 -196 -223 -231 -251
l-24 -19 13 25 c8 15 56 69 106 122 51 53 114 122 140 154 25 31 96 113 157
182 62 69 138 159 170 200 64 81 159 187 164 184 2 -2 -10 -22 -26 -46z
m-17007 -58 c3 -5 -1 -10 -9 -10 -8 0 -18 5 -21 10 -3 6 1 10 9 10 8 0 18 -4
21 -10z m35 -149 c0 -11 -4 -22 -9 -25 -12 -8 -34 21 -26 34 11 17 35 11 35
-9z m20481 -22 c5 -8 9 -11 9 -7 0 4 19 -1 42 -12 23 -10 46 -16 52 -13 5 3 6
1 2 -5 -4 -6 -21 -8 -44 -5 -57 9 -84 21 -76 35 5 7 2 9 -9 5 -8 -3 -21 0 -27
8 -9 11 -6 13 15 11 15 -2 31 -9 36 -17z m-20641 1 c0 -5 -4 -10 -9 -10 -6 0
-13 5 -16 10 -3 6 1 10 9 10 9 0 16 -4 16 -10z m20906 -47 c-4 -4 19 -15 51
-24 32 -10 50 -18 41 -18 -38 -2 -174 21 -183 31 -7 8 -5 9 6 5 13 -4 33 -2
88 12 2 1 1 -2 -3 -6z m-3597 -100 c-75 -124 -224 -292 -371 -419 -99 -85
-202 -189 -338 -339 -35 -38 -120 -129 -190 -201 -69 -71 -136 -144 -148 -161
l-22 -31 68 -25 c37 -14 126 -52 197 -84 360 -165 374 -170 434 -139 18 10 55
16 93 16 93 0 106 -6 118 -51 10 -37 9 -40 -22 -69 -29 -27 -38 -30 -73 -25
-47 7 -176 44 -190 56 -6 4 -35 17 -65 29 -30 11 -80 32 -110 47 -30 14 -89
40 -130 58 -41 18 -88 40 -105 49 -16 9 -35 16 -41 16 -6 0 -43 17 -81 38 -39
20 -74 38 -79 39 -5 1 -36 12 -69 24 -80 28 -132 34 -305 34 -140 0 -147 -1
-204 -29 -59 -29 -96 -58 -96 -75 0 -13 113 -89 169 -113 184 -79 383 -139
516 -153 192 -20 288 -61 424 -182 20 -18 44 -33 54 -33 15 0 16 -3 7 -20 -11
-21 -11 -21 -29 2 -10 12 -29 23 -42 24 -25 2 -45 8 -96 30 -17 8 -35 14 -40
14 -6 0 -23 6 -39 14 -16 8 -60 20 -97 27 -55 10 -72 11 -89 0 -11 -7 -50 -15
-86 -18 -58 -4 -74 -2 -117 20 -27 14 -62 28 -77 32 -15 4 -32 13 -39 21 -6 8
-17 14 -24 14 -7 0 -23 8 -36 18 -63 46 -242 112 -404 148 -55 12 -128 29
-163 38 -82 21 -215 12 -251 -15 -13 -11 -33 -19 -43 -19 -14 0 -18 -5 -14
-15 4 -11 -2 -15 -24 -15 -16 0 -35 -7 -44 -15 -8 -8 -22 -15 -32 -15 -22 0
-54 -28 -54 -47 0 -34 54 -125 93 -157 62 -50 213 -149 285 -187 93 -50 136
-78 184 -118 9 -8 41 -28 71 -45 30 -17 66 -40 81 -50 27 -19 29 -19 84 -1 87
27 227 102 312 166 44 33 120 72 120 61 0 -12 -30 -53 -79 -108 -59 -65 -81
-92 -81 -102 0 -4 -13 -21 -30 -39 -29 -31 -29 -32 -11 -55 10 -12 20 -30 24
-40 10 -28 -78 -43 -253 -43 -125 0 -175 5 -260 24 -99 22 -146 43 -135 62 3
4 -9 12 -27 18 -94 30 -506 145 -618 171 -70 16 -147 37 -170 45 -39 14 -44
14 -56 -2 -12 -16 -33 -87 -36 -120 -1 -7 12 -45 27 -84 25 -61 36 -76 79
-105 28 -19 57 -34 64 -34 8 0 25 -9 39 -20 14 -11 33 -20 42 -20 10 0 21 -4
27 -9 12 -12 227 -123 274 -141 19 -8 67 -32 105 -55 39 -22 86 -47 105 -57
19 -9 75 -35 124 -58 91 -43 172 -112 241 -205 17 -22 33 -42 36 -45 4 -3 25
-42 48 -87 47 -93 53 -151 21 -193 -11 -14 -20 -30 -20 -36 0 -13 -77 -86
-107 -102 -11 -6 -29 -8 -41 -5 -22 5 -30 25 -47 113 -24 118 -113 215 -246
269 -323 130 -482 204 -589 275 -30 20 -64 36 -75 36 -22 0 -185 -144 -185
-163 1 -22 215 -155 372 -231 86 -42 159 -76 162 -76 2 0 58 -29 123 -64 65
-35 154 -82 198 -104 44 -23 97 -56 117 -74 20 -18 44 -39 52 -46 9 -7 18 -25
22 -40 9 -42 74 -203 97 -241 26 -43 108 -128 172 -177 61 -47 95 -76 154
-130 26 -23 89 -73 141 -112 52 -39 122 -96 155 -126 33 -31 80 -70 105 -88
25 -18 56 -43 70 -56 14 -13 41 -33 60 -45 45 -28 56 -38 137 -122 27 -27 57
-57 67 -65 18 -14 19 -13 14 13 -7 37 13 36 63 -4 42 -33 53 -65 19 -56 -10 3
-22 0 -25 -7 -3 -8 -7 -8 -11 2 -3 6 -14 12 -25 12 -18 0 -18 -2 -2 -34 19
-40 12 -66 -17 -66 -17 0 -20 -4 -15 -19 4 -12 -9 -49 -33 -98 -42 -83 -70
-169 -98 -298 -27 -123 -25 -130 44 -231 66 -97 148 -262 217 -438 55 -140 59
-156 45 -156 -6 0 -10 -8 -8 -17 2 -9 -7 -22 -19 -28 -13 -7 -31 -19 -40 -28
-10 -8 -29 -15 -43 -15 -14 0 -39 -4 -55 -9 -63 -21 -138 13 -265 119 -53 45
-158 102 -210 113 -28 6 -118 12 -275 17 -62 3 -88 8 -116 26 -20 12 -45 22
-55 22 -11 0 -29 7 -40 15 -45 31 -126 43 -344 51 -85 2 -179 8 -207 13 -29 4
-53 5 -53 1 0 -4 -71 -5 -157 -2 -87 3 -167 5 -178 5 -11 0 -54 -3 -95 -7 -80
-8 -110 -2 -149 33 -28 24 -49 27 -57 7 -3 -8 -18 -16 -33 -19 -17 -4 -31 -14
-34 -27 -3 -12 -11 -18 -19 -15 -8 3 -23 -3 -33 -15 -31 -34 -67 -26 -125 30
-29 28 -57 50 -64 50 -7 0 -23 -11 -35 -24 -29 -31 -81 -56 -115 -56 -33 0
-106 22 -106 32 0 5 -7 8 -15 8 -9 0 -18 7 -22 15 -3 9 -24 25 -47 36 -63 30
-243 34 -659 14 -197 -9 -365 -14 -375 -10 -27 10 -434 6 -536 -5 -103 -12
-453 -15 -548 -5 -42 4 -84 2 -125 -8 -60 -14 -108 -12 -228 10 -52 10 -145 9
-220 -1 -33 -4 -69 -8 -80 -7 -10 0 -24 -4 -31 -10 -6 -5 -29 -11 -50 -14
-117 -14 -164 -17 -211 -16 -29 1 -53 -2 -53 -7 0 -5 -21 -8 -47 -7 -27 1 -54
-2 -60 -8 -9 -6 -18 -5 -29 4 -11 9 -17 10 -23 1 -4 -7 -84 -11 -261 -13 -189
-1 -262 -5 -281 -14 -14 -8 -69 -16 -123 -18 -80 -4 -99 -8 -111 -23 -13 -18
-14 -18 -20 -2 -5 13 -15 16 -38 12 -67 -11 -77 -15 -74 -27 1 -7 -11 -13 -27
-15 -18 -2 -26 0 -22 7 9 13 -17 4 -61 -22 -18 -10 -38 -16 -45 -14 -8 3 -6 6
5 6 9 1 17 6 17 12 0 7 -7 8 -17 4 -19 -8 -32 -9 -48 -5 -29 7 -75 -1 -75 -14
0 -10 -12 -13 -47 -10 -28 1 -51 -2 -55 -9 -5 -8 -11 -7 -22 2 -9 7 -13 18 -9
24 3 6 1 7 -5 3 -7 -4 -12 -1 -12 6 0 11 -2 10 -9 0 -7 -11 -9 -11 -14 2 -4 9
-13 16 -22 16 -8 0 -15 4 -15 10 0 5 -10 12 -23 15 -13 4 -31 19 -41 36 -9 16
-22 29 -28 29 -5 0 -8 7 -4 15 3 9 0 15 -10 15 -8 0 -21 6 -29 13 -27 26 -56
47 -63 47 -10 0 -42 38 -42 50 0 5 -11 17 -25 26 -14 9 -25 21 -25 26 0 6 -13
27 -30 48 -16 21 -30 42 -30 47 0 6 -9 18 -19 27 -11 10 -29 38 -41 64 -67
149 -89 170 -218 213 -35 12 -79 34 -97 50 -18 16 -38 29 -43 29 -6 0 -16 9
-22 19 -5 11 -19 23 -31 26 -11 4 -24 17 -28 29 -7 16 -36 32 -122 63 -133 49
-175 55 -584 84 -159 11 -291 22 -293 24 -14 14 177 14 483 0 408 -19 843 -30
834 -21 -13 14 -311 37 -589 46 -168 5 -404 14 -525 20 -121 6 -384 15 -585
20 -409 10 -1008 31 -1635 57 -560 24 -963 23 -1065 -2 -41 -10 -79 -21 -85
-25 -5 -4 -26 -11 -45 -15 -19 -4 -37 -11 -40 -16 -3 -4 -42 -11 -86 -15 -76
-6 -84 -5 -130 21 -64 37 -81 52 -113 99 -75 112 -86 165 -52 261 11 30 17 55
15 55 -2 0 3 15 13 33 20 37 28 200 13 257 -52 194 -62 256 -56 347 5 87 4 93
-17 108 -12 8 -31 15 -42 15 -11 0 -26 4 -34 9 -25 16 7 48 93 94 44 23 81 48
84 55 2 7 -9 15 -27 18 -28 6 -36 15 -32 37 1 5 -2 6 -7 3 -5 -3 -18 14 -28
37 -10 23 -28 56 -40 73 -11 18 -30 80 -43 140 -12 60 -26 123 -32 141 -5 17
-10 84 -11 148 l-2 117 35 30 c75 67 193 91 444 92 135 1 155 -1 197 -21 96
-46 121 -142 122 -468 1 -247 -2 -297 -15 -289 -15 9 -10 -50 10 -113 11 -33
27 -118 36 -189 25 -192 9 -318 -52 -407 -15 -23 -33 -46 -40 -52 -32 -27 -12
-114 36 -158 43 -39 62 -41 401 -53 189 -6 315 -28 346 -58 45 -45 176 -58
824 -81 234 -8 594 -21 800 -30 206 -8 535 -19 730 -25 195 -6 443 -15 550
-21 342 -17 952 -39 1365 -49 971 -24 1261 -31 1575 -40 323 -10 502 -8 2105
25 143 3 748 8 1345 11 1121 7 1326 2 1391 -32 16 -8 29 -12 29 -9 0 4 -44 58
-97 122 -255 302 -323 390 -430 553 -64 96 -142 214 -174 262 -32 47 -76 119
-98 160 -46 88 -74 109 -183 137 -46 12 -130 38 -188 57 -130 44 -165 51 -173
32 -4 -11 2 -13 23 -10 15 2 31 -1 35 -7 7 -12 -30 -82 -62 -116 -10 -11 -43
-56 -74 -100 -30 -44 -76 -109 -102 -145 -26 -36 -87 -119 -136 -185 -88 -121
-150 -186 -198 -208 -22 -10 -27 -8 -39 8 -25 34 -49 58 -102 104 -29 25 -52
49 -52 53 0 5 25 34 55 65 30 31 55 60 55 65 0 14 -16 9 -35 -12 -26 -29 -63
-27 -59 3 10 74 11 137 3 137 -17 0 -41 29 -34 40 4 6 11 8 16 5 5 -4 9 3 9
14 0 12 5 21 10 21 6 0 10 -10 10 -21 0 -33 23 -8 55 59 15 31 32 66 38 77 41
75 84 175 147 345 39 107 96 245 125 305 47 97 176 306 213 344 21 22 88 123
111 168 12 24 30 97 42 164 34 204 57 250 156 308 118 69 165 106 305 238 141
133 284 245 374 292 38 20 62 25 138 26 90 1 92 2 205 59 63 32 151 73 197 91
46 18 128 62 183 99 55 36 104 66 108 66 4 0 26 18 48 40 84 82 53 30 -54 -92
-13 -15 -28 -25 -32 -22 -5 3 -9 0 -9 -5 0 -6 -6 -11 -14 -11 -7 0 -20 -8 -27
-17 -12 -15 -12 -16 4 -10 14 5 17 3 13 -11 -5 -15 7 -22 71 -44 43 -14 106
-37 141 -50 l63 -23 32 36 c18 19 73 82 124 140 50 57 106 120 124 139 170
184 285 304 339 354 95 88 238 233 373 379 66 70 121 127 124 127 2 0 -6 -17
-18 -37z m-16914 -102 c3 -5 1 -12 -5 -16 -5 -3 -10 1 -10 9 0 18 6 21 15 7z
m16305 -323 c0 -19 -72 -88 -92 -88 -28 0 -22 21 19 62 36 37 73 50 73 26z
m-14419 -258 c10 -8 32 -62 49 -120 62 -212 74 -243 110 -299 43 -66 106 -120
167 -144 62 -24 183 -35 508 -47 160 -6 310 -12 335 -15 25 -2 155 -9 290 -15
313 -13 434 -19 595 -31 72 -5 216 -14 320 -19 105 -5 240 -14 300 -19 61 -6
173 -15 250 -22 77 -6 156 -15 175 -20 38 -9 108 -18 198 -24 31 -3 71 -7 87
-9 17 -3 62 -8 100 -12 73 -6 110 -11 110 -14 0 -1 18 -3 40 -5 22 -1 73 -8
113 -15 41 -6 76 -9 79 -7 3 3 23 -1 45 -9 21 -7 110 -18 196 -24 86 -6 174
-15 195 -20 21 -4 46 -6 55 -3 10 2 24 -3 31 -11 7 -9 35 -19 62 -22 30 -4 49
-12 49 -20 0 -7 10 -14 23 -16 12 -2 22 -10 22 -18 0 -8 -10 -16 -22 -18 -13
-2 -23 -8 -23 -13 0 -5 -11 -9 -25 -9 -14 0 -25 -4 -25 -10 0 -5 -7 -10 -15
-10 -8 0 -15 5 -15 11 0 8 -4 8 -13 0 -16 -12 -177 -16 -254 -6 -37 5 -53 4
-53 -4 0 -6 -7 -11 -15 -11 -8 0 -15 4 -15 9 0 5 -34 9 -76 8 -41 -1 -77 -1
-79 1 -1 2 -168 4 -371 6 -203 2 -380 6 -394 9 -14 3 -108 8 -210 12 -102 4
-198 9 -215 11 -16 2 -181 13 -365 24 -388 23 -569 35 -880 55 -124 8 -290 19
-370 24 -80 6 -206 13 -280 16 -174 8 -437 32 -497 46 -114 25 -263 123 -315
207 -59 95 -82 203 -74 351 7 120 16 168 47 238 11 24 19 51 20 60 0 14 2 15
6 3 4 -8 14 -21 24 -30z m13888 -74 c-23 -25 -46 -46 -52 -46 -5 0 13 22 39
49 61 62 72 59 13 -3z m7726 -43 c-6 -32 -25 -38 -25 -7 0 9 5 12 12 8 8 -5 9
-2 5 9 -4 10 -3 32 1 50 l7 32 3 -29 c2 -16 1 -44 -3 -63z m-35 -145 c-6 -21
-15 -38 -20 -38 -13 0 -13 -1 7 83 17 69 18 70 21 32 2 -22 -1 -57 -8 -77z
m-23453 80 c-3 -8 -6 -5 -6 6 -1 11 2 17 5 13 3 -3 4 -12 1 -19z m23530 -65
c-14 -61 -33 -86 -23 -29 8 44 25 91 30 85 3 -2 -1 -27 -7 -56z m-7050 -8
c109 -36 275 -113 368 -171 28 -17 102 -57 165 -89 101 -50 125 -67 200 -144
47 -48 101 -115 120 -149 82 -147 110 -202 102 -202 -4 0 -17 19 -29 43 -31
65 -139 215 -189 264 -51 49 -177 138 -249 176 -156 80 -360 173 -470 212 -27
10 -54 22 -59 27 -6 4 -18 8 -27 8 -19 0 -129 47 -129 55 0 16 104 0 197 -30z
m-16480 3 c-3 -8 -6 -5 -6 6 -1 11 2 17 5 13 3 -3 4 -12 1 -19z m-17 -84 c16
-16 17 -75 1 -117 -10 -27 -13 -27 -73 -23 -35 2 -64 5 -65 5 -2 1 -3 32 -3
69 l0 68 38 11 c43 13 81 8 102 -13z m23507 -6 c-3 -8 -6 -5 -6 6 -1 11 2 17
5 13 3 -3 4 -12 1 -19z m-23207 -25 c11 -12 22 -146 13 -158 -5 -7 -35 -9 -78
-5 l-70 5 -3 65 c-2 35 0 75 3 89 6 23 9 23 67 18 33 -3 64 -9 68 -14z m22273
-18 c-3 -13 -11 -30 -19 -36 -21 -17 -18 -45 25 -217 40 -162 60 -281 41 -251
-9 16 -23 73 -56 234 -8 39 -21 98 -30 132 -16 69 -11 107 19 141 25 27 25 27
20 -3z m877 18 c0 -5 -5 -15 -10 -23 -8 -12 -10 -11 -10 8 0 12 5 22 10 22 6
0 10 -3 10 -7z m-7203 -23 c32 -9 43 -18 48 -38 7 -27 -15 -54 -38 -47 -111
34 -117 37 -117 59 0 23 35 48 55 41 6 -2 29 -9 52 -15z m7259 -15 c-3 -8 -10
-15 -16 -15 -14 0 -12 37 3 43 15 5 21 -8 13 -28z m-23072 9 c12 -5 16 -20 16
-60 0 -44 -4 -55 -21 -65 -34 -18 -44 5 -41 94 2 37 12 44 46 31z m23006 -24
c0 -5 -4 -10 -10 -10 -5 0 -10 5 -10 10 0 6 5 10 10 10 6 0 10 -4 10 -10z
m-10 -40 c0 -5 -5 -10 -11 -10 -5 0 -7 5 -4 10 3 6 8 10 11 10 2 0 4 -4 4 -10z
m116 -27 c-1 -1 -19 -5 -39 -7 -27 -4 -37 -1 -37 9 0 16 61 25 72 10 4 -5 6
-11 4 -12z m-22 -69 c24 -23 19 -34 -14 -34 -33 0 -35 3 -20 31 13 23 14 23
34 3z m-23614 -45 c0 -5 -4 -9 -10 -9 -5 0 -10 7 -10 16 0 8 5 12 10 9 6 -3
10 -10 10 -16z m23520 -29 c0 -5 -4 -10 -10 -10 -5 0 -10 5 -10 10 0 6 5 10
10 10 6 0 10 -4 10 -10z m0 -30 c0 -5 -5 -10 -11 -10 -5 0 -7 5 -4 10 3 6 8
10 11 10 2 0 4 -4 4 -10z m81 -22 c10 -18 9 -20 -6 -15 -9 4 -19 7 -21 7 -2 0
-4 7 -4 15 0 22 18 18 31 -7z m-23684 -139 c13 -13 4 -59 -13 -59 -19 0 -25
16 -18 45 7 27 14 31 31 14z m161 -40 c-3 -27 -33 -38 -41 -16 -8 20 22 62 35
49 5 -5 8 -20 6 -33z m232 15 c0 -10 -7 -14 -22 -12 -32 5 -35 28 -4 28 17 0
26 -5 26 -16z m23257 -56 c-3 -8 -6 -5 -6 6 -1 11 2 17 5 13 3 -3 4 -12 1 -19z
m-80 -40 c-2 -13 -4 -5 -4 17 -1 22 1 32 4 23 2 -10 2 -28 0 -40z m-16123 10
c130 -28 203 -87 227 -185 20 -81 19 -412 -1 -578 -26 -207 -47 -270 -112
-335 -60 -60 -107 -74 -253 -75 -120 0 -134 2 -185 26 -30 15 -72 45 -92 68
-40 45 -108 177 -108 210 0 11 -4 30 -9 43 -4 13 -11 52 -15 88 -4 36 -11 92
-16 125 -5 33 -12 113 -15 179 -3 65 -10 127 -15 137 -6 10 -10 29 -10 42 0
34 -52 127 -71 127 -5 0 -18 9 -29 20 -11 11 -15 20 -9 20 6 0 8 8 4 19 -10
34 8 40 180 62 44 6 109 14 145 19 80 10 316 3 384 -12z m-774 -74 c0 -8 -7
-14 -15 -14 -15 0 -21 21 -9 33 10 9 24 -2 24 -19z m16953 -7 c-3 -5 -9 -3
-14 4 -4 7 -5 17 -2 22 3 5 9 3 14 -4 4 -7 5 -17 2 -22z m-5959 -67 l17 -35
-21 24 c-11 13 -20 30 -20 39 0 19 3 15 24 -28z m4783 4 c5 -14 -45 -25 -53
-13 -9 15 7 30 29 27 11 -2 22 -8 24 -14z m-4748 -84 c0 -10 -3 -8 -9 5 -12
27 -12 43 0 25 5 -8 9 -22 9 -30z m-17873 -4 c6 -25 -1 -46 -15 -46 -11 0 -21
38 -14 56 8 22 22 17 29 -10z m23784 -1 c0 -8 -2 -15 -4 -15 -2 0 -6 7 -10 15
-3 8 -1 15 4 15 6 0 10 -7 10 -15z m-1182 -170 l-1 -90 -7 65 c-4 36 -8 94 -8
130 0 60 1 62 9 25 4 -22 7 -80 7 -130z m1109 -131 c-3 -3 -12 -4 -19 -1 -8 3
-5 6 6 6 11 1 17 -2 13 -5z m-23727 -427 c0 -34 -48 -49 -71 -21 -10 13 -10
17 2 25 21 13 69 11 69 -4z m23657 -353 c-3 -3 -12 -4 -19 -1 -8 3 -5 6 6 6
11 1 17 -2 13 -5z m-26 -108 c5 3 9 0 9 -5 0 -6 -7 -11 -15 -11 -8 0 -15 8
-14 18 0 10 3 12 6 4 2 -6 9 -10 14 -6z m-10953 -261 c12 -14 25 -25 30 -25 4
0 16 -15 26 -34 19 -36 16 -86 -5 -86 -6 0 -9 7 -6 15 13 32 -18 27 -50 -10
-32 -37 -35 -62 -7 -51 12 5 12 0 -1 -24 -12 -22 -13 -35 -5 -49 16 -32 12
-57 -14 -69 -21 -9 -25 -7 -41 26 -17 36 -18 37 -26 13 -6 -15 -5 -28 2 -37 9
-11 6 -14 -14 -14 -20 0 -28 7 -38 34 -7 19 -16 33 -21 30 -5 -3 -6 -10 -2
-15 3 -6 3 -17 0 -25 -5 -12 -8 -12 -19 -3 -10 10 -11 24 -3 60 5 26 14 45 18
42 5 -3 18 3 29 13 16 14 24 16 38 7 34 -21 56 22 25 48 -12 10 -17 10 -23 1
-6 -10 -37 -11 -61 -2 -3 2 -8 2 -12 1 -12 -2 -10 47 2 54 6 3 10 17 10 29 0
32 31 68 71 82 52 19 73 16 97 -11z m692 3 c0 -18 -70 -156 -87 -169 -11 -10
-16 -10 -23 1 -5 8 -18 11 -38 7 -21 -4 -32 -2 -36 8 -8 22 -23 18 -47 -9 -12
-14 -28 -22 -35 -19 -42 16 15 114 60 106 19 -4 36 4 67 31 30 25 52 36 75 36
18 0 36 5 39 10 8 14 25 13 25 -2z m-1255 -8 c3 -6 15 -6 30 0 18 7 29 4 48
-10 28 -22 46 -88 27 -100 -6 -4 -10 -24 -8 -45 2 -32 8 -40 28 -45 22 -6 25
-4 26 21 1 16 7 35 14 44 11 14 15 12 31 -15 11 -17 19 -39 19 -50 0 -11 7
-20 15 -20 11 0 15 12 15 50 0 28 4 50 9 50 4 0 8 -27 7 -59 -1 -44 4 -64 17
-79 15 -16 16 -24 7 -41 -12 -24 -30 -28 -30 -7 0 7 -7 27 -16 42 l-15 29 3
-40 c3 -39 2 -40 -29 -42 -31 -3 -33 -1 -39 38 l-7 41 -13 -32 c-8 -18 -14
-43 -14 -56 0 -13 -5 -24 -10 -24 -16 0 -30 46 -30 96 0 24 -4 44 -10 44 -5 0
-10 10 -10 23 0 27 -16 54 -27 44 -4 -5 -1 -12 7 -18 13 -8 13 -11 -2 -23 -20
-15 -23 -43 -8 -66 8 -12 10 -12 11 5 1 17 2 16 9 -5 5 -17 3 -29 -6 -36 -8
-6 -14 -18 -14 -26 0 -18 -20 -38 -37 -38 -14 0 -18 46 -4 52 4 2 10 40 13 86
4 66 2 82 -10 82 -7 0 -16 -9 -19 -20 -4 -15 -11 -19 -25 -14 -22 6 -47 -19
-48 -48 0 -22 13 -23 30 -3 10 12 16 13 24 5 8 -8 8 -13 0 -18 -17 -11 -34
-72 -27 -100 l6 -25 -22 22 c-16 16 -21 33 -21 71 0 28 -7 67 -17 88 l-16 37
-10 -57 c-5 -32 -13 -58 -19 -58 -12 0 -44 -31 -51 -50 -4 -11 -6 -9 -6 5 -1
11 -6 27 -12 35 -10 13 -10 13 -6 0 3 -9 -4 -27 -15 -40 -16 -20 -23 -22 -38
-12 -14 8 -21 8 -29 -2 -15 -18 -3 -27 25 -20 15 4 24 2 24 -5 0 -7 -22 -11
-59 -11 -53 0 -61 3 -92 35 -19 19 -40 35 -46 35 -7 0 -13 4 -13 9 0 16 -40 0
-55 -22 -13 -18 -24 -20 -102 -18 -87 2 -168 2 -188 0 -5 -1 -28 1 -50 5 -57
8 -252 8 -300 0 -83 -15 -679 -9 -670 6 3 6 -1 10 -9 10 -9 0 -16 -6 -16 -12
0 -9 -3 -10 -8 -2 -5 8 -142 13 -437 19 -600 10 -960 21 -1100 33 -66 6 -259
13 -430 15 -177 3 -321 10 -335 15 -14 6 -18 11 -10 12 10 1 9 4 -5 10 -15 7
-9 9 25 9 26 1 50 -3 56 -9 5 -5 24 -6 49 0 22 5 55 10 73 10 23 0 31 4 26 12
-5 8 -2 9 12 4 28 -11 74 -13 74 -4 0 5 21 8 48 6 31 -2 46 -7 45 -15 -4 -16
24 -17 29 -1 3 7 9 8 19 3 8 -5 23 -8 34 -7 17 2 17 1 5 -7 -12 -8 -8 -11 17
-11 41 0 63 9 63 26 0 8 3 14 8 15 4 0 21 3 37 5 17 2 38 5 48 6 20 3 37 53
37 111 0 33 3 37 25 37 14 0 28 -7 31 -15 4 -8 18 -15 33 -15 45 0 53 -12 52
-78 0 -34 4 -64 9 -67 4 -3 17 7 28 22 17 23 23 26 33 16 16 -16 46 -17 51 -3
2 7 25 5 67 -5 41 -11 79 -14 110 -10 l48 6 -1 60 c-1 49 3 63 18 75 23 16 95
9 112 -12 6 -8 14 -44 17 -80 4 -37 9 -69 12 -73 10 -9 22 19 29 68 4 25 13
54 21 64 13 18 14 18 24 -2 6 -11 11 -33 11 -49 0 -35 29 -53 45 -28 8 13 14
11 42 -16 21 -20 37 -28 42 -22 5 5 12 38 16 74 3 35 10 69 15 74 5 5 33 11
63 14 53 4 54 4 68 -29 7 -19 14 -54 14 -79 l0 -45 45 -6 c55 -8 68 1 72 49 2
30 8 38 31 46 34 12 60 -9 60 -48 0 -32 30 -56 72 -56 36 0 57 12 54 31 -1 8
0 21 4 29 3 8 8 32 12 53 3 20 11 37 18 37 7 1 31 5 55 9 35 7 47 5 67 -11 22
-17 25 -27 25 -83 0 -68 6 -75 58 -75 40 0 48 9 66 69 19 66 40 91 77 91 15 0
31 5 34 10 3 6 17 10 31 10 38 0 53 -45 41 -121 -5 -33 -7 -62 -4 -65 3 -4 22
-3 42 0 26 5 39 14 47 34 41 101 48 111 68 87 7 -8 23 -15 36 -15 16 0 22 -4
18 -14 -3 -7 2 -16 10 -19 9 -4 16 -11 16 -17 0 -6 11 -23 25 -38 21 -23 28
-25 44 -15 13 8 29 9 51 3 48 -14 62 -4 55 39 -7 41 7 117 25 135 6 6 33 11
60 10 68 -1 87 -21 96 -95 6 -53 10 -61 30 -58 3 1 19 -11 34 -26 34 -32 60
-28 60 10 0 65 54 114 104 95 24 -9 28 -8 33 10 16 62 70 -30 59 -100 -7 -44
6 -80 29 -80 13 0 17 21 29 166 4 40 11 51 48 70 44 23 69 11 101 -47 l28 -51
-24 -21 c-20 -19 -23 -27 -16 -52 10 -32 42 -61 75 -67 14 -2 19 3 20 22 1 14
6 35 12 47 6 11 9 23 6 26 -4 3 -1 28 6 56 11 47 14 51 57 65 38 13 51 13 72
3 37 -17 53 -54 47 -107 -3 -25 -1 -52 4 -60 8 -12 10 -8 11 15 l1 30 8 -33
c13 -55 21 -49 14 10 -6 51 -4 60 22 97 16 22 33 41 38 41 4 0 21 11 38 25 30
25 91 35 103 15z m914 -24 l32 -33 -7 -78 c-7 -77 -51 -195 -73 -195 -5 0 -16
-3 -24 -6 -11 -4 -17 4 -22 25 -8 40 -20 46 -47 26 l-23 -15 22 -6 c20 -5 39
-31 30 -41 -9 -9 -57 18 -57 31 0 18 -34 38 -46 28 -5 -4 -3 0 4 8 6 8 12 23
12 33 0 10 9 21 20 24 10 3 22 14 25 24 8 24 20 24 45 -1 19 -19 21 -19 49 -2
48 27 44 74 -4 55 -9 -3 -25 3 -37 13 -15 14 -22 16 -25 7 -6 -18 -23 -16 -23
2 0 8 5 15 10 15 6 0 10 8 9 18 0 10 -3 12 -6 4 -2 -6 -9 -10 -14 -7 -4 3 -14
-3 -21 -15 -16 -25 -44 -26 -50 -2 -7 25 1 42 17 36 7 -3 23 9 36 27 21 30 23
31 30 11 10 -27 43 -19 70 19 11 16 24 29 28 29 4 0 22 -15 40 -34z m521 -35
c0 -16 6 -31 14 -34 24 -9 48 -66 41 -95 -3 -14 -9 -21 -13 -15 -4 5 -17 15
-29 22 -16 8 -23 21 -23 41 0 58 -34 29 -44 -37 -5 -32 -2 -46 11 -59 12 -12
17 -31 15 -64 -1 -38 2 -49 16 -55 16 -6 16 -7 -1 -17 -13 -7 -22 -7 -30 1 -6
6 -19 11 -29 11 -12 0 -19 11 -23 38 -4 20 -11 53 -16 72 -18 71 -12 107 26
148 26 28 37 34 43 24 7 -10 11 -5 15 17 8 39 27 40 27 2z m-5200 -10 c5 -11
7 -26 4 -34 -3 -8 -1 -18 5 -22 6 -3 11 -14 11 -23 0 -12 -3 -13 -12 -4 -15
15 -51 15 -66 0 -15 -15 -18 -11 -25 29 -5 28 -2 34 26 52 40 26 44 26 57 2z
m560 -37 c0 -8 -7 -14 -15 -14 -15 0 -21 21 -9 33 10 9 24 -2 24 -19z m3550
-7 c0 -26 -48 -132 -53 -117 -14 42 -15 62 -2 66 8 3 18 19 24 35 10 29 31 40
31 16z m5657 -57 c6 -23 36 -26 96 -9 46 13 55 7 38 -25 -10 -17 -32 -29 -83
-44 -103 -30 -152 -5 -93 46 15 13 22 28 19 37 -4 8 -1 15 6 15 6 0 14 -9 17
-20z m388 10 c4 -7 12 -7 25 0 10 6 21 6 24 1 3 -4 25 -11 48 -15 65 -11 71
-12 102 -25 50 -20 17 -34 -66 -27 -40 3 -88 6 -106 6 -17 -1 -41 4 -51 9 -10
6 -44 13 -74 16 -42 5 -57 3 -64 -8 -11 -19 -51 -39 -63 -32 -15 10 -12 20 15
50 21 22 32 26 58 22 18 -3 52 -2 77 3 65 11 68 11 75 0z m-5225 -51 c0 -18
-10 -48 -22 -68 -29 -49 -28 -48 -39 -28 -6 9 -20 17 -33 17 -28 0 -49 38 -34
63 5 9 19 17 31 17 12 0 31 7 41 15 34 26 56 19 56 -16z m121 -8 c5 -23 3 -34
-7 -38 -29 -11 -43 21 -28 62 10 24 28 12 35 -24z m-270 -41 c5 0 9 -7 9 -15
0 -8 -7 -15 -15 -15 -8 0 -15 -5 -15 -11 0 -5 -4 -8 -9 -5 -13 9 -23 74 -15
99 7 20 9 19 22 -15 8 -21 19 -38 23 -38z m-399 25 c-12 -22 -27 -2 -18 22 5
12 10 13 17 6 7 -7 8 -17 1 -28z m88 5 c0 -11 -4 -20 -10 -20 -5 0 -10 9 -10
20 0 11 5 20 10 20 6 0 10 -9 10 -20z m5170 3 c14 -6 33 -14 43 -17 24 -8 21
-25 -5 -35 -56 -20 -76 -21 -83 -4 -3 10 -1 19 4 21 6 2 8 14 5 29 -4 14 -3
24 2 21 5 -2 20 -9 34 -15z m-101 -29 c36 -30 39 -49 10 -65 -25 -13 -31 -8
-52 49 -20 51 -6 57 42 16z m-100 -31 c17 -21 31 -43 31 -51 0 -14 -31 -28
-75 -34 -24 -3 -29 2 -41 34 -15 44 -6 57 19 26 l19 -23 -5 25 c-2 14 -8 33
-12 43 -14 33 32 19 64 -20z m-9116 20 c-24 -2 -62 -2 -85 0 -24 2 -5 4 42 4
47 0 66 -2 43 -4z m-2478 -44 c334 -12 1256 -26 2215 -35 415 -3 757 -8 760
-9 9 -5 173 -14 490 -25 162 -6 383 -15 490 -20 107 -5 299 -12 425 -16 267
-6 325 -14 371 -49 37 -28 74 -95 74 -131 0 -13 7 -48 15 -79 18 -69 23 -342
7 -372 -7 -11 -19 -24 -29 -28 -26 -12 -191 -13 -393 -4 -96 4 -391 12 -655
18 -264 6 -592 16 -730 21 -137 6 -520 17 -850 25 -330 8 -726 19 -880 25
-154 5 -417 15 -585 20 -1609 54 -1663 57 -1720 98 -21 16 -50 64 -80 132 -9
22 -15 103 -15 217 0 89 3 105 23 132 12 17 22 34 22 39 0 18 56 47 105 53 58
9 561 2 940 -12z m7011 -28 c-10 -15 -46 -14 -46 2 0 7 5 18 12 25 10 10 15 9
26 -2 8 -8 11 -19 8 -25z m1198 24 c16 -8 46 -18 67 -21 22 -4 39 -10 39 -13
0 -4 -16 -22 -35 -41 -19 -19 -35 -42 -35 -52 0 -10 -3 -18 -7 -18 -5 0 -19
-3 -32 -7 -21 -5 -23 -4 -16 13 4 10 11 35 14 54 6 30 2 38 -21 58 -47 40 -31
56 26 27z m3234 -40 c40 -41 44 -47 30 -61 -11 -11 -21 -12 -39 -5 -29 11 -84
85 -74 100 12 21 38 10 83 -34z m-6255 15 c7 0 6 -4 -3 -10 -19 -12 -67 -13
-75 -1 -6 10 32 20 53 15 8 -2 19 -4 25 -4z m167 -6 c0 -2 -26 -4 -57 -3 -34
0 -50 3 -40 7 17 7 97 4 97 -4z m-547 -1 c-62 -2 -164 -2 -225 0 -62 1 -12 3
112 3 124 0 174 -2 113 -3z m3619 -7 c8 -8 23 -15 33 -17 10 -2 20 -9 22 -15
2 -7 -6 -10 -21 -7 -21 4 -28 0 -36 -21 -11 -31 -25 -33 -40 -6 -6 11 -17 20
-25 20 -14 0 -17 4 -19 32 -1 11 19 19 66 27 4 0 13 -5 20 -13z m2890 -18 c22
-19 59 -84 51 -91 -3 -4 -19 -7 -35 -7 -32 0 -48 28 -48 81 0 32 8 36 32 17z
m-16528 -40 c9 -36 7 -48 -8 -48 -24 0 -39 26 -26 49 14 27 26 27 34 -1z
m2189 16 c3 -4 0 -13 -8 -20 -7 -8 -15 -18 -17 -24 -5 -17 -38 0 -38 20 0 22
47 39 63 24z m11137 -49 c-17 -31 -30 -62 -30 -70 0 -21 -23 -18 -56 7 l-28
22 25 6 c13 3 28 15 34 25 31 58 37 65 60 65 l25 0 -30 -55z m3103 15 c41 -48
47 -110 12 -110 -17 0 -65 89 -65 120 0 29 24 25 53 -10z m-2943 -20 c0 -5 -4
-10 -10 -10 -5 0 -10 5 -10 10 0 6 5 10 10 10 6 0 10 -4 10 -10z m2864 -51 c3
-33 3 -72 0 -85 -6 -24 -6 -24 -24 8 -29 55 -34 97 -14 119 9 10 20 19 24 19
4 0 10 -27 14 -61z m-3204 -39 c-6 -11 -14 -18 -19 -16 -4 3 -22 -11 -40 -29
-53 -56 -72 -42 -23 17 48 58 76 78 85 62 4 -7 3 -23 -3 -34z m3144 -12 l21
-18 -22 0 c-13 0 -23 4 -23 9 0 6 -11 9 -24 8 -14 -1 -25 3 -25 8 0 6 9 10 19
9 12 0 20 6 21 15 0 14 1 14 6 1 3 -8 15 -23 27 -32z m-4626 4 c2 -7 -5 -12
-17 -12 -11 0 -23 -4 -26 -10 -3 -5 -11 -10 -17 -10 -6 0 -1 11 12 25 24 26
41 28 48 7z m-768 -13 c0 -6 -4 -7 -10 -4 -5 3 -10 11 -10 16 0 6 5 7 10 4 6
-3 10 -11 10 -16z m5320 -51 c32 -56 42 -101 13 -60 -32 45 -73 83 -83 77 -17
-11 -11 7 8 21 26 20 29 18 62 -38z m-3924 -7 c-22 -21 -46 0 -26 24 10 12 16
13 27 3 12 -10 12 -13 -1 -27z m3824 -10 c0 -5 -9 -7 -20 -4 -11 3 -20 7 -20
9 0 2 9 4 20 4 11 0 20 -4 20 -9z m-35 -100 c6 -20 5 -21 -12 -12 -10 6 -29
19 -42 29 l-24 19 23 23 23 23 12 -30 c7 -16 16 -40 20 -52z m69 63 c3 -9 6
-23 6 -32 -1 -12 -5 -10 -15 8 -8 14 -14 28 -15 33 0 13 18 7 24 -9z m6458
-49 c3 -14 1 -28 -3 -31 -5 -3 -9 9 -9 25 0 38 6 40 12 6z m-6444 -40 c-3 -3
-9 2 -12 12 -6 14 -5 15 5 6 7 -7 10 -15 7 -18z m-3038 -15 c0 -23 -10 -26
-28 -8 -18 18 -15 28 8 28 13 0 20 -7 20 -20z m2871 7 c17 -13 56 -82 42 -75
-96 43 -123 68 -90 81 20 9 31 7 48 -6z m6606 -29 c-3 -8 -6 -5 -6 6 -1 11 2
17 5 13 3 -3 4 -12 1 -19z m-6653 -68 c34 -37 45 -60 30 -60 -4 0 -27 16 -51
36 -35 29 -44 33 -49 20 -7 -19 -24 -21 -24 -4 0 16 30 48 45 48 7 0 29 -18
49 -40z m6613 8 c-3 -8 -6 -5 -6 6 -1 11 2 17 5 13 3 -3 4 -12 1 -19z m-21260
-64 c-3 -3 -12 -4 -19 -1 -8 3 -5 6 6 6 11 1 17 -2 13 -5z m14565 -21 c24 -23
41 -71 21 -61 -5 3 -22 10 -40 17 -36 14 -53 48 -32 62 19 12 20 12 51 -18z
m-14657 -2 c-6 -4 -58 -20 -117 -35 -120 -30 -253 -42 -313 -29 -39 9 -38 10
45 21 47 6 146 20 220 30 165 23 177 24 165 13z m-620 -81 c-29 -13 -94 -13
-75 0 8 5 33 9 55 9 31 0 36 -2 20 -9z m15203 -16 c26 -18 29 -44 5 -44 -20 0
-53 28 -53 47 0 17 20 17 48 -3z m-61 -49 c11 -23 13 -39 7 -45 -15 -15 -66
42 -58 63 10 28 33 19 51 -18z m-13514 -4 c9 -16 17 -47 17 -70 0 -112 -194
-184 -440 -161 -103 9 -147 16 -424 66 -162 29 -225 37 -441 58 -144 14 -393
61 -382 72 2 3 44 -3 93 -11 49 -9 127 -18 174 -21 72 -4 559 -22 678 -25 33
-1 34 -2 12 -8 -24 -7 -23 -8 15 -19 71 -21 218 -35 311 -29 129 7 168 21 212
76 47 58 52 63 82 84 38 26 73 22 93 -12z m13438 -44 c21 -16 47 -69 42 -84
-8 -22 -30 -14 -62 22 -34 40 -36 46 -19 63 15 15 19 15 39 -1z m-16441 -56
c0 -11 -25 -21 -55 -21 -27 0 -42 16 -23 23 22 9 78 7 78 -2z m22560 -157 c5
14 15 -6 39 -74 18 -51 45 -120 61 -154 39 -83 41 -102 12 -98 -21 3 -120 -13
-152 -25 -8 -3 -31 -7 -50 -9 -19 -2 -91 -10 -160 -19 -69 -8 -152 -17 -185
-20 -33 -3 -82 -7 -110 -9 -113 -10 -144 -14 -154 -20 -6 -4 -39 -9 -73 -12
-35 -2 -88 -9 -118 -14 -30 -5 -95 -14 -145 -20 -85 -10 -142 -16 -367 -40
-51 -5 -103 -12 -115 -14 -24 -5 -246 -19 -278 -17 -11 0 -36 -5 -55 -11 -38
-12 -70 -16 -165 -18 -33 -1 -65 -6 -72 -12 -7 -5 -16 -7 -21 -4 -6 3 -91 -1
-191 -9 -100 -9 -186 -13 -192 -9 -9 5 -60 -39 -55 -48 0 -2 -5 4 -12 12 -111
134 -233 193 -426 206 -50 3 -108 10 -128 15 -37 9 -38 11 -67 107 -25 81 -57
202 -75 285 -3 13 1 17 17 14 12 -1 28 -6 36 -11 10 -6 12 -5 7 2 -4 7 -2 12
3 12 6 0 11 -6 12 -12 0 -7 2 -8 5 -3 4 11 59 12 115 2 30 -5 207 -13 524 -23
290 -9 1079 -11 1245 -3 170 8 398 15 1068 35 114 3 168 1 177 -6 11 -9 16 -6
22 17 6 23 8 25 11 8 5 -19 5 -19 12 -1z"/>
<path d="M1030 20339 c0 -5 5 -7 10 -4 6 3 10 8 10 11 0 2 -4 4 -10 4 -5 0
-10 -5 -10 -11z"/>
<path d="M4880 16890 c0 -5 5 -10 11 -10 5 0 7 5 4 10 -3 6 -8 10 -11 10 -2 0
-4 -4 -4 -10z"/>
<path d="M15845 13516 c11 -8 23 -12 28 -9 13 8 -3 23 -26 23 -20 0 -20 0 -2
-14z"/>
<path d="M16535 12920 c3 -5 10 -10 16 -10 5 0 9 5 9 10 0 6 -7 10 -16 10 -8
0 -12 -4 -9 -10z"/>
<path d="M16478 12893 c6 -2 18 -2 25 0 6 3 1 5 -13 5 -14 0 -19 -2 -12 -5z"/>
<path d="M16166 12865 c25 -19 45 -19 38 0 -4 8 -18 15 -32 15 -25 0 -25 -1
-6 -15z"/>
<path d="M16230 12840 c8 -5 22 -9 30 -9 10 0 8 3 -5 9 -27 12 -43 12 -25 0z"/>
<path d="M16285 12800 c-3 -5 -1 -10 4 -10 6 0 11 5 11 10 0 6 -2 10 -4 10 -3
0 -8 -4 -11 -10z"/>
<path d="M19740 11013 c0 -5 4 -13 9 -18 26 -29 93 -216 103 -286 11 -79 21
-97 31 -59 10 38 -41 207 -80 265 -7 11 -13 27 -13 37 0 9 -11 29 -25 44 -14
15 -25 23 -25 17z"/>
<path d="M14120 5484 c0 -8 5 -12 10 -9 6 3 10 10 10 16 0 5 -4 9 -10 9 -5 0
-10 -7 -10 -16z"/>
<path d="M14103 5445 c-9 -25 4 -29 17 -6 7 15 7 21 0 21 -6 0 -13 -7 -17 -15z"/>
<path d="M14210 5446 c0 -27 36 -58 75 -66 22 -4 49 -11 60 -15 23 -9 -69 66
-102 83 -28 15 -33 15 -33 -2z"/>
<path d="M9728 2883 c6 -2 18 -2 25 0 6 3 1 5 -13 5 -14 0 -19 -2 -12 -5z"/>
<path d="M370 7523 c0 -21 5 -45 10 -53 7 -11 10 0 10 38 0 28 -4 52 -10 52
-5 0 -10 -17 -10 -37z"/>
<path d="M7041 6864 c0 -11 3 -14 6 -6 3 7 2 16 -1 19 -3 4 -6 -2 -5 -13z"/>
<path d="M11867 5143 c-9 -8 -9 -48 0 -56 10 -11 31 25 25 45 -5 19 -14 23
-25 11z"/>
<path d="M8253 5073 c9 -2 23 -2 30 0 6 3 -1 5 -18 5 -16 0 -22 -2 -12 -5z"/>
<path d="M8448 5063 c6 -2 18 -2 25 0 6 3 1 5 -13 5 -14 0 -19 -2 -12 -5z"/>
<path d="M9003 5023 c9 -2 23 -2 30 0 6 3 -1 5 -18 5 -16 0 -22 -2 -12 -5z"/>
<path d="M21698 19473 c7 -3 16 -2 19 1 4 3 -2 6 -13 5 -11 0 -14 -3 -6 -6z"/>
<path d="M21720 19440 c0 -5 5 -10 11 -10 5 0 7 5 4 10 -3 6 -8 10 -11 10 -2
0 -4 -4 -4 -10z"/>
<path d="M30520 15501 c0 -5 5 -13 10 -16 6 -3 10 -2 10 4 0 5 -4 13 -10 16
-5 3 -10 2 -10 -4z"/>
<path d="M30680 15376 c0 -21 20 -30 33 -17 9 9 8 14 -3 21 -21 14 -30 12 -30
-4z"/>
<path d="M0 7642 c0 -33 16 -43 27 -16 3 8 -2 23 -11 32 -15 15 -16 14 -16
-16z"/>
<path d="M2 3302 c3 -25 6 -26 48 -24 40 3 46 1 46 -17 0 -21 -12 -29 -18 -12
-3 8 -37 15 -65 12 -7 -1 -13 -10 -13 -21 0 -22 -2 -22 155 -27 55 -1 131 -7
168 -12 38 -6 180 -13 315 -16 136 -3 272 -8 302 -10 148 -10 233 -13 200 -5
-22 5 -27 8 -13 9 12 0 23 7 26 14 4 10 7 10 18 0 7 -7 28 -13 46 -13 21 0 36
-6 39 -15 9 -21 24 -19 24 5 0 18 2 18 48 5 26 -8 63 -14 82 -13 33 1 32 1
-10 8 -27 4 28 8 140 8 109 1 179 -2 171 -7 -22 -14 52 -16 340 -11 l264 5
-285 5 -285 5 315 4 c173 1 309 5 303 8 -24 9 -13 21 27 28 22 4 40 11 40 16
0 11 18 10 -620 14 -312 2 -545 8 -590 15 -41 6 -265 13 -496 16 -373 4 -422
3 -427 -11 -9 -21 -24 -19 -30 4 -3 14 -18 19 -68 24 -35 4 -95 13 -132 21
l-68 14 3 -26z m1271 -99 c-7 -2 -19 -2 -25 0 -7 3 -2 5 12 5 14 0 19 -2 13
-5z m80 -10 c-7 -2 -19 -2 -25 0 -7 3 -2 5 12 5 14 0 19 -2 13 -5z m170 0 c-7
-2 -19 -2 -25 0 -7 3 -2 5 12 5 14 0 19 -2 13 -5z m150 0 c-7 -2 -19 -2 -25 0
-7 3 -2 5 12 5 14 0 19 -2 13 -5z"/>
<path d="M2390 3190 c-9 -6 -10 -10 -3 -10 6 0 15 5 18 10 8 12 4 12 -15 0z"/>
<path d="M1480 3160 c-11 -7 -8 -10 15 -9 17 0 39 4 50 9 16 7 14 9 -15 9 -19
0 -42 -4 -50 -9z"/>
<path d="M1571 3166 c11 -10 89 -15 89 -6 0 5 -21 10 -47 10 -25 0 -44 -2 -42
-4z"/>
</g>
</svg>
