<?xml version="1.0" standalone="no"?>
<!DOCTYPE svg PUBLIC "-//W3C//DTD SVG 20010904//EN"
 "http://www.w3.org/TR/2001/REC-SVG-20010904/DTD/svg10.dtd">
<svg version="1.0" xmlns="http://www.w3.org/2000/svg"
 width="2048.000000pt" height="3072.000000pt" viewBox="0 0 2048.000000 3072.000000"
 preserveAspectRatio="xMidYMid meet">

<g transform="translate(0.000000,3072.000000) scale(0.100000,-0.100000)"
fill="#000000" stroke="none">
<path d="M0 29465 l0 -1255 68 -1 c37 -1 760 0 1607 1 1130 1 1565 -2 1635
-10 177 -22 271 -66 327 -152 15 -24 30 -45 33 -48 3 -3 14 -29 24 -59 18 -51
19 -130 17 -2580 -1 -2406 -1 -2528 16 -2543 10 -9 65 -39 122 -68 141 -70
230 -127 396 -251 77 -57 160 -118 185 -134 25 -17 51 -36 58 -42 7 -7 19 -13
26 -13 8 0 19 -6 26 -14 9 -12 81 -53 170 -96 8 -4 42 -16 75 -25 33 -9 79
-26 102 -36 23 -10 46 -19 51 -19 5 0 25 -11 44 -24 20 -13 53 -29 74 -36 219
-72 455 -286 576 -521 37 -71 45 -95 37 -106 -9 -10 -8 -13 0 -13 19 0 126
-114 140 -149 8 -17 16 -31 20 -31 3 0 17 -21 31 -47 35 -69 60 -101 81 -106
11 -3 19 -11 19 -19 0 -7 37 -30 83 -51 86 -40 162 -98 154 -120 -6 -18 -40
-9 -62 19 -12 13 -28 24 -38 24 -9 0 -17 4 -17 10 0 5 -20 9 -45 8 -50 -1 -55
-8 -23 -38 26 -24 48 -26 48 -5 0 22 31 18 37 -5 3 -11 12 -20 20 -20 12 0 13
-3 4 -14 -9 -10 -8 -16 3 -26 9 -6 19 -9 23 -7 5 3 24 -2 42 -10 26 -13 32
-21 28 -39 -3 -17 8 -36 40 -70 24 -26 46 -59 49 -73 3 -14 11 -39 19 -56 63
-135 115 -391 108 -536 -2 -41 -3 -89 -4 -107 -1 -17 -5 -35 -10 -38 -5 -3 -9
-22 -9 -43 0 -32 4 -40 23 -45 38 -10 146 -7 277 8 253 30 407 35 1520 56 305
6 679 15 830 20 151 6 736 15 1300 20 564 5 1178 12 1365 15 187 4 886 10
1553 14 919 6 1216 11 1225 20 9 9 12 324 13 1339 1 730 7 2058 14 2952 6 894
10 1731 8 1860 l-3 235 -65 -3 c-36 -2 -213 -19 -395 -38 -181 -19 -400 -41
-485 -49 -186 -17 -324 -32 -485 -51 -204 -24 -820 -93 -1015 -114 -102 -11
-311 -33 -465 -50 -154 -17 -343 -37 -420 -45 -435 -46 -616 -65 -760 -79 -88
-9 -268 -27 -400 -41 -132 -13 -314 -31 -405 -40 -246 -24 -255 -25 -385 -41
-66 -7 -172 -18 -235 -24 -120 -11 -271 -27 -550 -60 -91 -11 -241 -26 -335
-35 -93 -9 -226 -22 -295 -30 -69 -8 -226 -24 -350 -35 -124 -11 -250 -22
-280 -25 -331 -34 -509 -51 -650 -61 -52 -3 -98 -8 -102 -11 -16 -9 -411 -34
-536 -34 -121 0 -137 2 -186 25 -58 28 -104 73 -138 139 -19 36 -22 58 -23
157 0 146 14 196 78 265 53 58 135 102 209 111 23 3 54 9 68 14 14 6 45 12 70
14 25 3 101 12 170 21 69 8 197 22 284 30 88 9 270 31 405 50 249 36 503 66
576 70 38 2 110 11 165 20 14 3 97 11 185 20 88 8 201 19 250 25 50 5 142 14
205 20 115 11 211 23 305 40 77 13 182 29 265 40 41 5 161 21 265 35 105 13
278 31 385 40 107 9 211 20 230 25 19 4 87 11 150 15 137 7 185 12 305 30 50
7 135 16 190 20 55 4 217 17 360 30 143 13 298 27 345 30 47 3 113 10 145 15
33 5 105 12 160 16 55 3 107 8 115 11 8 3 100 7 204 9 114 2 193 7 200 14 14
14 163 13 172 -1 5 -8 -6 -9 -35 -4 -22 4 -41 3 -41 -2 0 -5 -9 -9 -20 -10
-11 -1 -20 2 -20 8 0 5 -8 9 -17 9 -14 0 -15 -2 -5 -9 20 -12 -9 -21 -69 -21
-37 0 -47 -3 -43 -14 4 -11 40 -14 166 -15 89 -1 164 -3 167 -5 3 -2 56 -7
116 -11 61 -4 112 -8 115 -10 7 -4 319 12 480 24 189 15 300 28 485 56 88 13
205 31 260 39 55 9 156 20 225 26 111 9 292 29 562 60 156 18 334 24 343 11 4
-7 5 -14 4 -16 -5 -4 -145 -17 -182 -16 -16 0 -30 -6 -34 -15 -8 -21 16 -35
38 -23 31 16 49 11 49 -16 0 -14 -6 -26 -12 -26 -7 -1 -19 -2 -27 -3 -8 0 -16
-7 -18 -13 -3 -9 8 -13 35 -13 23 0 45 -6 52 -15 9 -10 32 -15 76 -15 54 0 64
3 69 20 3 11 12 20 18 20 7 0 23 3 37 7 14 3 22 2 17 -2 -4 -5 10 -14 30 -21
21 -7 40 -10 43 -6 12 16 48 30 56 22 13 -12 99 -17 101 -6 3 17 34 29 46 17
8 -8 15 -6 28 5 11 10 19 12 24 5 3 -6 15 -11 26 -11 10 0 19 -4 19 -9 0 -14
52 1 73 22 l20 20 9 -22 c6 -18 13 -21 30 -16 13 4 31 14 41 23 15 13 23 13
57 2 34 -11 45 -11 82 3 31 12 45 14 55 6 10 -9 17 -8 28 1 9 7 37 13 62 12
33 0 51 5 60 16 12 15 14 15 26 2 17 -21 126 -15 142 7 8 10 14 12 18 6 5 -8
21 -8 49 -1 28 6 44 6 46 -1 2 -5 9 -8 15 -5 14 5 103 12 247 19 118 5 173 9
415 29 94 8 226 18 295 22 152 8 492 6 501 -4 4 -4 10 -39 13 -78 8 -80 -4
-104 -51 -104 -15 0 -23 -3 -20 -7 11 -10 -64 -33 -110 -33 -24 0 -43 -5 -43
-11 0 -6 31 -10 83 -9 113 2 755 36 1017 55 118 8 348 24 510 35 279 19 559
41 930 74 91 8 281 22 423 32 l257 18 0 1878 0 1878 -1270 0 c-1270 0 -1271 0
-1260 -20 37 -69 134 -427 205 -755 25 -115 55 -245 67 -287 23 -85 20 -109
-17 -169 -52 -81 -158 -108 -560 -144 -93 -8 -210 -20 -260 -25 -49 -5 -97
-10 -105 -10 -11 -1 -10 -4 5 -17 16 -13 17 -15 2 -10 -11 4 -29 -4 -49 -22
-28 -25 -30 -31 -19 -45 11 -14 11 -16 -3 -16 -12 0 -16 -10 -16 -40 0 -22 3
-40 8 -40 11 0 42 -59 42 -80 0 -10 17 -32 37 -49 34 -27 36 -30 16 -31 -14 0
-23 -6 -23 -15 0 -8 5 -15 10 -15 24 0 70 -45 70 -67 0 -22 3 -23 79 -23 64 0
83 -4 102 -20 l24 -19 -34 -1 c-49 0 -30 -12 32 -21 58 -7 132 -51 140 -81 7
-24 28 -23 34 2 3 11 9 20 14 20 5 0 9 -9 9 -20 0 -17 7 -20 41 -20 35 0 47
-6 75 -35 36 -39 44 -42 44 -20 0 11 11 15 40 15 34 0 40 -3 40 -21 0 -11 10
-29 22 -40 l23 -18 -22 -1 c-43 0 -23 -17 26 -22 30 -3 60 -14 77 -27 25 -19
29 -20 32 -7 3 12 8 14 22 6 31 -17 35 -49 9 -76 -26 -28 -25 -30 21 -38 19
-3 29 -3 23 0 -7 3 -13 12 -13 20 0 24 15 15 27 -16 9 -23 17 -29 35 -28 18 2
24 -2 26 -23 3 -24 -1 -27 -38 -33 -23 -3 -46 -3 -52 0 -7 5 -9 1 -5 -9 5 -15
-2 -17 -51 -18 -66 -2 -80 -3 -187 -18 -44 -6 -208 -25 -365 -41 -157 -17
-409 -49 -560 -71 -288 -42 -523 -73 -675 -89 -49 -6 -139 -17 -200 -25 -60
-8 -216 -29 -345 -46 -129 -16 -242 -32 -250 -34 -8 -2 -67 -11 -130 -19 -63
-8 -230 -31 -370 -50 -371 -50 -696 -89 -975 -116 -60 -5 -166 -17 -235 -25
-69 -8 -213 -24 -320 -35 -203 -22 -326 -35 -620 -69 -447 -52 -621 -72 -690
-81 -41 -5 -217 -21 -390 -35 -173 -14 -331 -27 -350 -30 -19 -3 -165 -12
-325 -20 -159 -8 -348 -19 -420 -25 -71 -6 -222 -17 -335 -25 -113 -8 -230
-17 -260 -20 -206 -18 -483 -21 -600 -5 -87 12 -160 45 -160 74 0 8 -6 16 -13
19 -11 4 -12 19 -5 69 5 34 13 104 18 153 5 50 15 122 20 160 6 39 15 108 20
154 5 46 14 116 20 155 6 39 17 127 24 196 7 69 18 135 25 148 7 13 8 22 2 22
-7 0 -7 8 -2 23 26 68 42 127 37 136 -3 5 -1 33 5 62 32 164 41 220 46 274 2
33 9 64 14 70 14 14 11 35 -7 35 -11 0 -14 6 -9 20 4 14 2 20 -9 20 -8 0 -19
7 -23 15 -8 13 -70 26 -186 39 -21 3 -163 7 -315 11 -315 7 -559 21 -647 36
-70 12 -132 49 -141 83 -14 58 60 107 186 125 144 21 517 42 1220 71 140 6
309 15 375 20 66 5 166 12 223 16 56 3 105 10 108 15 3 5 26 9 51 9 25 0 59 6
76 13 66 28 161 52 190 48 11 -1 17 4 17 16 0 24 69 48 77 27 3 -9 13 -4 30
17 20 23 31 29 50 25 35 -9 179 36 169 53 -8 12 18 21 59 21 19 0 37 5 41 11
3 6 17 9 30 6 14 -2 24 1 24 7 0 20 39 36 100 43 33 3 60 10 60 14 0 5 18 12
40 15 22 4 40 10 40 13 0 8 150 31 203 31 24 0 37 5 37 13 0 17 57 37 106 37
21 0 55 5 74 11 19 6 57 12 84 15 27 2 52 8 55 12 6 9 114 24 166 23 16 0 32
4 35 9 3 5 41 12 84 14 44 3 84 10 89 15 6 6 41 11 78 11 37 0 70 4 73 9 3 4
43 12 88 15 46 4 101 10 123 13 22 2 159 8 305 11 146 4 271 11 279 16 18 12
274 8 281 -5 10 -14 480 -33 480 -18 0 13 78 11 82 -3 3 -8 13 -9 34 -2 36 12
356 -5 366 -19 3 -6 28 -7 62 -3 31 3 56 3 56 -2 0 -10 273 -2 280 8 5 7 45
10 303 27 72 4 97 9 97 19 0 8 9 14 21 14 15 0 20 5 17 23 -2 12 5 30 15 40
21 21 25 21 29 0 3 -16 4 -16 20 0 9 9 26 17 37 17 12 0 21 6 21 13 0 7 13 21
30 30 16 10 30 22 30 28 0 5 16 9 35 9 38 0 44 10 20 34 -19 19 -19 26 0 26 8
0 15 5 15 10 0 6 7 10 16 10 14 0 14 3 4 15 -12 14 -7 19 14 16 4 -1 14 4 22
10 12 10 12 13 -1 23 -13 10 -12 16 12 51 14 22 30 42 35 43 4 2 8 12 8 22 0
11 9 24 20 30 11 6 20 15 20 20 0 7 -2832 10 -7900 10 l-7900 0 0 -1255z
m18334 -1130 c-4 -8 -8 -15 -10 -15 -2 0 -4 7 -4 15 0 8 4 15 10 15 5 0 7 -7
4 -15z m1161 -884 c-18 -7 -55 -4 -55 5 0 2 17 4 38 3 28 0 32 -2 17 -8z m-80
-14 c-11 -8 -69 -19 -130 -26 -60 -6 -195 -22 -300 -36 -104 -13 -300 -38
-435 -55 -795 -100 -838 -105 -1005 -120 -55 -5 -194 -18 -310 -29 -364 -34
-705 -45 -727 -23 -15 15 1 51 25 56 12 3 85 7 162 10 77 3 257 14 400 25 143
12 352 28 465 36 113 8 241 19 285 25 44 5 143 14 220 20 77 6 199 17 270 25
72 8 225 24 340 35 116 11 289 29 385 40 96 11 202 21 234 22 33 2 78 4 100 6
38 3 39 2 21 -11z m-5852 -444 c-7 -2 -21 -2 -30 0 -10 3 -4 5 12 5 17 0 24
-2 18 -5z m-238 -13 c4 -6 -5 -10 -19 -10 -14 0 -26 5 -26 10 0 6 9 10 19 10
11 0 23 -4 26 -10z m-162 -17 c-7 -2 -19 -2 -25 0 -7 3 -2 5 12 5 14 0 19 -2
13 -5z m-193 -16 c0 -9 -11 -12 -34 -9 -19 2 -51 -1 -70 -8 -20 -6 -41 -8 -48
-4 -17 11 17 20 82 23 30 1 57 4 59 7 8 7 11 4 11 -9z m50 3 c0 -5 -4 -10 -10
-10 -5 0 -10 5 -10 10 0 6 5 10 10 10 6 0 10 -4 10 -10z m1777 -12 c-3 -8 -6
-5 -6 6 -1 11 2 17 5 13 3 -3 4 -12 1 -19z m-1998 -2 c-12 -10 -79 -16 -79 -6
0 5 19 10 42 10 23 0 39 -2 37 -4z m-506 -63 c-7 -2 -21 -2 -30 0 -10 3 -4 5
12 5 17 0 24 -2 18 -5z m-103 -19 c0 -2 -7 -4 -15 -4 -8 0 -15 4 -15 10 0 5 7
7 15 4 8 -4 15 -8 15 -10z m2464 -5 c-3 -5 -10 -7 -15 -3 -5 3 -7 10 -3 15 3
5 10 7 15 3 5 -3 7 -10 3 -15z m366 11 c0 -5 -7 -10 -15 -10 -8 0 -15 5 -15
10 0 6 7 10 15 10 8 0 15 -4 15 -10z m-5817 -3360 c45 -17 79 -42 145 -107
l87 -84 90 6 c323 24 1227 49 1286 35 67 -16 104 -43 136 -97 l28 -48 0 -285
c0 -157 4 -337 9 -400 8 -108 7 -118 -13 -158 -36 -71 -75 -89 -236 -108 -157
-18 -333 -21 -391 -5 -31 8 -51 7 -94 -5 -88 -25 -280 -44 -480 -46 -191 -2
-206 0 -312 46 l-37 16 -73 -61 c-202 -167 -328 -213 -515 -190 -196 24 -333
127 -420 317 -55 117 -67 182 -67 349 -1 126 3 165 23 245 62 250 236 478 428
561 123 54 297 62 406 19z"/>
<path d="M14360 26925 c-36 -7 -128 -20 -205 -30 -310 -38 -320 -40 -323 -58
-2 -11 6 -19 25 -23 15 -4 37 -13 48 -20 26 -17 317 -19 347 -3 11 6 40 11 64
11 24 0 47 4 50 9 3 6 14 7 25 4 14 -5 19 -2 19 10 0 13 6 16 21 12 12 -3 30
0 40 6 20 12 26 37 9 37 -5 0 -10 6 -10 14 0 7 -10 20 -22 28 -19 12 -34 13
-88 3z"/>
<path d="M13686 26843 c-1 -2 -40 -10 -87 -18 -46 -9 -100 -22 -119 -30 -19
-8 -55 -17 -80 -19 -95 -9 -224 -28 -244 -36 -37 -15 83 -11 159 5 39 8 108
15 156 15 47 0 89 4 95 9 7 8 170 31 214 31 6 0 10 10 8 23 -3 19 -9 22 -51
22 -27 0 -50 -1 -51 -2z"/>
<path d="M11738 26813 c6 -2 18 -2 25 0 6 3 1 5 -13 5 -14 0 -19 -2 -12 -5z"/>
<path d="M17170 26760 l-25 -8 28 -1 c15 -1 27 4 27 9 0 6 -1 10 -2 9 -2 -1
-14 -5 -28 -9z"/>
<path d="M1960 23110 c-125 -16 -340 -51 -428 -70 -46 -10 -90 -16 -97 -14 -7
3 -16 1 -19 -5 -4 -6 -13 -8 -21 -4 -8 3 -15 1 -15 -5 0 -6 -19 -14 -42 -18
-39 -7 -41 -8 -18 -15 21 -6 22 -7 4 -8 -11 -1 -25 -6 -32 -13 -7 -7 -12 -9
-12 -5 0 12 -154 -86 -215 -137 -33 -28 -106 -95 -162 -148 -97 -93 -123 -111
-123 -88 0 6 4 10 9 10 5 0 12 8 15 18 26 71 78 131 167 193 54 39 72 59 50
59 -4 0 -25 -13 -46 -30 -21 -16 -41 -30 -46 -30 -15 0 -122 -105 -146 -143
-15 -23 -30 -37 -38 -33 -15 5 -25 -14 -25 -47 0 -12 -11 -43 -25 -69 -30 -57
-32 -72 -5 -65 11 3 20 3 20 -1 0 -7 -101 -102 -133 -124 -13 -9 -27 -30 -30
-45 -4 -19 -20 -37 -51 -57 -25 -16 -46 -33 -46 -37 0 -5 -7 -9 -15 -9 -7 0
-18 -7 -23 -16 -8 -15 -10 -15 -15 0 -6 16 -8 16 -32 0 -14 -9 -22 -20 -19
-25 3 -5 -9 -9 -26 -9 -37 0 -139 -45 -243 -108 l-77 -47 2 -2745 c2 -1510 7
-2752 11 -2760 8 -15 34 -35 207 -155 123 -85 429 -311 451 -334 9 -9 25 -23
35 -31 11 -8 33 -26 50 -40 17 -14 43 -34 58 -45 85 -61 195 -155 273 -232 28
-29 58 -51 65 -50 7 2 10 2 6 0 -13 -7 -9 -20 7 -27 21 -8 65 10 87 37 15 17
21 18 27 8 10 -16 20 -3 16 22 -3 13 4 17 31 17 27 0 34 4 34 19 0 11 -3 21
-7 24 -5 2 -3 2 4 1 6 -2 14 4 17 12 3 8 14 14 25 14 12 0 32 17 51 45 33 48
39 52 58 33 10 -10 17 -10 32 0 11 6 30 12 42 13 20 0 21 2 7 11 -15 10 -15
14 0 39 8 15 22 27 31 26 8 0 43 12 78 28 53 24 76 28 155 29 77 1 99 -3 134
-21 23 -13 45 -33 48 -45 4 -13 13 -30 19 -38 27 -32 57 -137 71 -244 22 -168
19 -470 -5 -551 -31 -107 -47 -708 -20 -770 7 -16 13 -33 12 -37 -1 -5 39 -99
89 -210 182 -408 193 -427 260 -447 24 -7 92 -36 151 -64 81 -38 108 -55 108
-69 0 -14 -5 -18 -17 -14 -39 12 -163 10 -175 -2 -9 -9 -6 -12 17 -13 47 -3
59 -5 76 -13 9 -4 52 2 95 13 71 17 85 18 131 6 28 -7 60 -18 70 -23 10 -5 63
-19 118 -30 201 -41 311 -55 445 -55 139 0 180 8 339 67 33 13 51 14 75 7 48
-16 500 -31 929 -30 213 0 391 -3 396 -5 5 -3 301 -8 657 -11 357 -3 708 -10
780 -15 139 -11 258 -36 314 -67 79 -44 118 -151 141 -383 13 -136 6 -744 -11
-920 -17 -183 -56 -339 -114 -462 -31 -65 -32 -74 -9 -82 23 -9 171 1 368 25
770 94 929 106 1231 89 303 -16 544 -42 1084 -115 360 -49 829 -111 1070 -140
215 -26 370 -47 685 -90 105 -14 240 -32 300 -40 61 -8 220 -32 355 -54 135
-22 412 -61 615 -86 204 -25 404 -49 445 -55 41 -5 95 -12 120 -15 25 -3 122
-14 215 -26 94 -11 226 -26 295 -34 131 -14 442 -52 915 -111 236 -30 461 -57
746 -89 30 -3 119 -15 199 -25 80 -11 208 -26 285 -35 130 -15 187 -22 480
-60 236 -30 276 -35 450 -55 238 -28 537 -67 1025 -136 140 -19 284 -39 320
-44 239 -33 543 -96 950 -198 538 -136 830 -220 1163 -336 l187 -65 0 4818 0
4818 -272 8 c-254 7 -2134 1 -3468 -10 -2226 -19 -2910 -27 -3238 -35 -206 -6
-409 -10 -453 -10 -73 0 -80 -2 -88 -22 -4 -13 -11 -169 -15 -348 -7 -327 -28
-925 -46 -1315 -6 -115 -15 -312 -20 -437 -17 -398 -34 -605 -71 -858 -30
-209 -36 -238 -59 -275 -15 -23 -17 -34 -8 -37 9 -3 9 -11 -1 -36 -7 -17 -17
-29 -21 -27 -5 3 -11 1 -15 -5 -12 -19 -22 -10 -35 30 -7 22 -17 40 -22 40 -4
0 -8 6 -8 14 0 7 -7 19 -15 26 -8 7 -15 22 -15 33 0 12 -6 39 -14 62 -13 37
-40 132 -65 231 -6 22 -16 76 -21 120 -6 43 -15 93 -20 109 -5 17 -14 50 -21
75 -7 25 -16 50 -20 55 -4 6 -10 25 -14 43 -6 30 -9 32 -51 32 -32 0 -44 4
-44 15 0 21 -12 19 -55 -11 -29 -19 -40 -22 -46 -13 -6 10 -11 10 -24 -1 -9
-8 -34 -15 -55 -16 -21 -1 -67 -14 -103 -28 -36 -14 -72 -26 -81 -26 -8 0 -18
-4 -21 -10 -3 -5 -18 -9 -33 -8 -55 4 -82 -2 -82 -17 0 -8 -3 -15 -7 -16 -5
-1 -51 -5 -103 -9 -52 -5 -144 -15 -205 -24 -60 -8 -158 -15 -217 -15 -65 -1
-108 -5 -108 -11 0 -6 -33 -10 -80 -10 -64 0 -80 3 -80 15 0 11 -11 15 -39 15
-22 0 -41 4 -43 10 -1 5 -52 13 -113 18 -60 6 -128 17 -150 25 -22 9 -61 16
-87 17 -27 0 -48 4 -48 9 0 5 -35 12 -77 16 -43 4 -81 11 -84 17 -5 7 -207 22
-279 20 -40 -2 -116 -16 -120 -23 -3 -5 -23 -6 -43 -2 -27 4 -37 10 -37 24 0
25 -11 24 -34 -2 -13 -15 -23 -19 -39 -14 -12 5 -71 10 -132 12 -60 3 -112 8
-115 12 -3 4 -26 13 -52 19 -40 10 -51 9 -78 -6 -28 -15 -32 -16 -43 -1 -27
35 -147 54 -147 24 0 -18 -14 -19 -32 -2 -34 31 -79 57 -89 51 -6 -3 -18 1
-27 9 -17 16 -55 25 -129 31 -32 3 -43 1 -43 -10 0 -16 -6 -16 -35 -4 -11 5
-15 9 -8 9 6 1 10 14 9 31 -1 17 3 30 8 31 6 0 0 5 -14 10 -36 15 -38 15 -38
4 2 -28 -263 -35 -281 -7 -3 4 -14 11 -23 15 -25 9 -23 27 3 27 12 0 17 4 13
11 -4 7 -22 9 -48 5 -29 -5 -47 -2 -61 8 -22 17 -101 21 -110 6 -3 -5 -20 -1
-41 10 -39 22 -79 26 -90 9 -5 -8 -10 -6 -16 5 -5 9 -15 16 -22 16 -8 0 -19 7
-26 15 -14 17 -66 20 -104 6 -26 -10 -106 13 -106 31 0 5 -7 20 -16 34 -11 17
-20 21 -28 15 -7 -6 -27 -7 -48 -2 -21 5 -39 6 -42 4 -3 -3 -8 8 -12 23 -4 16
-9 32 -11 36 -7 13 -72 -36 -75 -57 -2 -14 -9 -19 -23 -17 -11 2 -31 4 -45 5
-33 3 -39 13 -36 59 4 47 -9 57 -35 29 -11 -12 -28 -21 -39 -21 -10 0 -22 -5
-25 -10 -4 -6 -10 -8 -15 -5 -5 3 -11 1 -15 -5 -11 -18 -23 -11 -45 28 -21 37
-21 37 -83 36 -34 0 -70 -4 -79 -8 -11 -5 -18 -4 -18 3 0 16 -83 61 -113 61
-15 0 -27 -4 -27 -9 0 -9 -56 -5 -90 6 -12 4 -12 7 5 19 17 12 17 16 4 29 -11
12 -22 13 -52 4 -21 -5 -35 -14 -32 -18 2 -5 -1 -14 -8 -19 -21 -18 -114 40
-122 76 -5 26 -11 30 -53 36 -26 4 -72 6 -104 6 -48 -1 -59 2 -72 22 -13 19
-24 22 -67 20 -29 -1 -57 2 -63 7 -7 6 -30 6 -60 0 -76 -14 -119 7 -54 26 17
6 33 15 35 22 6 16 -38 28 -47 13 -9 -15 -30 -4 -30 16 0 7 -15 22 -34 31 -19
10 -51 27 -71 37 -29 15 -41 17 -56 8 -15 -10 -17 -8 -14 10 6 28 -12 48 -42
48 -14 0 -33 10 -42 22 -12 14 -30 22 -57 22 -28 1 -40 7 -42 19 -2 9 2 17 8
17 6 0 8 5 5 10 -3 6 -17 7 -31 4 -15 -4 -34 0 -49 10 -17 11 -31 13 -47 7
-19 -7 -48 -8 -78 -2 -3 1 2 6 10 11 13 8 12 10 -4 10 -13 0 -17 5 -13 20 7
26 -10 26 -18 0 -4 -11 -10 -18 -14 -16 -4 3 -7 -32 -6 -77 3 -93 -11 -122
-48 -108 -12 5 -43 7 -69 5 -26 -2 -50 1 -53 7 -10 15 -40 10 -61 -9 -22 -21
-55 -31 -124 -38 -25 -3 -49 -9 -54 -14 -6 -6 -25 -10 -43 -10 -18 0 -33 -4
-33 -8 0 -5 -24 -7 -52 -4 -43 3 -57 0 -77 -17 -13 -12 -34 -21 -47 -21 -13 0
-26 -4 -29 -10 -3 -5 -1 -10 4 -10 19 0 12 -27 -7 -32 -13 -4 -18 -13 -17 -29
2 -20 7 -24 34 -23 36 2 40 -9 9 -30 -15 -11 -24 -12 -29 -5 -4 7 -9 8 -13 1
-14 -22 7 -39 64 -50 33 -7 60 -17 60 -22 0 -5 15 -4 33 2 17 6 50 12 72 13
22 2 58 7 79 13 22 6 42 9 47 7 9 -6 0 -161 -13 -203 -20 -68 -58 -67 -285 10
-127 43 -154 49 -167 39 -9 -8 -16 -20 -16 -28 0 -15 39 -93 51 -103 8 -7 39
-68 40 -77 1 -51 37 -94 94 -113 32 -10 38 -10 49 6 17 22 36 10 36 -24 0 -89
121 -618 172 -752 31 -81 120 -396 130 -458 13 -82 4 -147 -30 -226 -17 -37
-29 -48 -85 -76 -69 -34 -157 -50 -217 -39 l-35 6 32 2 c70 3 136 23 158 49
25 29 21 43 -22 88 -13 13 -23 27 -23 32 0 5 -19 15 -42 22 -24 7 -54 20 -68
28 -22 14 -145 24 -274 23 -33 -1 -116 57 -136 94 -10 20 -59 51 -65 43 -49
-73 -76 -163 -68 -228 6 -39 13 -49 129 -151 26 -23 43 -8 38 34 -4 35 18 36
70 1 21 -15 50 -30 65 -33 22 -7 26 -12 23 -42 -24 -298 -77 -469 -154 -507
-41 -19 -153 -28 -163 -12 -14 22 24 40 81 37 40 -1 58 2 71 16 12 12 14 20 7
25 -6 4 -15 20 -20 35 l-9 28 -48 -26 c-58 -30 -96 -32 -127 -5 -13 11 -33 20
-44 20 -12 0 -39 9 -61 20 -47 24 -69 19 -85 -20 -32 -78 -134 -164 -180 -153
-14 3 -31 15 -38 25 -7 10 -22 18 -33 18 -14 0 -19 7 -19 29 0 20 -6 32 -18
36 -11 3 -24 17 -30 30 -7 14 -23 30 -38 35 -19 8 -24 15 -19 29 4 13 0 23
-12 29 -16 9 -15 12 10 23 29 13 36 29 12 29 -8 0 -15 6 -15 14 0 8 -6 27 -14
43 -8 15 -20 42 -27 58 -7 17 -21 42 -31 57 -18 26 -18 27 -1 38 13 8 14 13 6
16 -7 3 -13 11 -13 18 0 7 -9 21 -20 31 -24 21 -26 35 -5 35 18 0 49 45 40 60
-3 6 -25 20 -47 31 -30 15 -37 24 -29 32 8 8 3 19 -20 40 l-32 28 34 28 34 29
-37 32 c-33 30 -35 34 -26 66 5 19 6 39 3 45 -4 5 -1 16 5 24 10 12 10 25 1
62 -10 37 -9 48 1 55 11 6 11 10 0 17 -8 4 -13 12 -11 17 1 5 -8 13 -20 19
-25 12 -26 22 -6 45 14 15 14 22 1 61 -8 24 -14 62 -14 84 0 22 -3 69 -6 105
-4 36 -6 76 -5 90 1 27 1 36 -5 95 -2 22 1 76 6 120 5 44 11 100 13 125 2 25
11 92 20 150 9 58 23 148 30 200 42 299 80 516 95 535 4 6 10 28 13 50 4 22
18 68 32 102 14 35 25 72 25 82 0 11 8 25 18 30 9 5 30 40 46 78 17 37 36 72
43 76 7 4 16 26 19 47 4 22 11 40 16 40 6 0 8 6 5 14 -3 8 6 24 19 37 14 13
44 60 66 104 60 119 60 120 108 160 25 20 50 42 55 49 15 18 195 106 217 106
11 0 28 5 38 10 10 6 71 14 135 20 125 10 182 25 203 52 7 10 19 18 26 18 18
0 29 31 16 44 -5 5 -10 20 -10 33 0 13 -6 23 -14 23 -14 0 -26 57 -26 121 0
46 -59 135 -99 150 -19 8 -21 12 -11 24 10 13 10 19 -4 34 -15 17 -16 27 -8
73 5 29 10 85 11 125 1 47 8 87 21 115 11 24 20 62 20 85 0 23 5 45 11 49 6 4
9 19 5 36 -4 19 1 43 14 68 11 22 20 47 20 56 0 17 11 56 33 117 5 15 13 27
18 27 5 0 15 14 24 30 11 20 23 30 39 30 13 0 29 7 36 15 14 16 65 21 74 6 3
-5 15 -7 26 -4 15 4 35 -8 73 -43 28 -27 54 -53 57 -59 12 -25 36 -52 52 -58
9 -3 25 -21 34 -39 9 -18 31 -51 49 -73 57 -73 94 -143 130 -251 19 -59 35
-113 35 -120 0 -23 19 -25 41 -3 16 16 28 20 52 15 88 -17 159 -5 202 34 11
10 43 29 71 42 57 26 195 146 222 193 34 59 110 251 135 345 39 142 41 298 6
363 -6 10 -19 47 -30 82 -10 34 -26 68 -34 75 -8 7 -15 20 -15 29 -1 20 -39
66 -62 74 -10 4 -18 15 -18 26 0 22 -62 63 -88 59 -12 -2 -16 3 -15 16 1 11
-6 26 -15 33 -9 7 -13 13 -7 13 5 0 -1 7 -14 17 -22 15 -25 15 -36 0 -18 -25
-65 -22 -65 3 0 13 7 20 20 20 28 0 25 12 -11 40 -107 85 -214 193 -196 199 7
2 15 8 18 13 3 5 24 5 50 -1 24 -6 53 -10 64 -10 17 0 16 2 -5 10 -30 12 -96
82 -81 87 17 6 -16 49 -57 74 -58 37 -58 37 -43 47 11 7 9 11 -10 22 -33 17
-49 35 -41 44 4 5 1 5 -6 1 -17 -10 -92 72 -85 91 3 7 -2 13 -12 13 -9 0 -14
4 -11 8 3 5 -8 19 -24 31 -17 12 -30 17 -30 11 0 -5 4 -10 9 -10 5 0 11 -6 14
-13 4 -11 -2 -11 -32 -3 -25 8 -72 46 -156 128 -119 116 -257 228 -281 228 -7
0 -50 31 -96 68 -46 37 -117 90 -159 117 -41 28 -82 55 -90 60 -17 11 -120 86
-277 202 -102 75 -254 213 -234 213 6 0 34 -13 62 -30 28 -16 55 -30 60 -30 4
0 10 -3 12 -7 2 -5 26 -24 53 -42 28 -19 52 -38 55 -42 8 -12 138 -99 147 -99
4 1 -1 8 -12 18 -11 9 -31 31 -43 49 -12 17 -80 73 -150 124 -70 51 -133 98
-139 105 -7 7 -18 14 -25 17 -7 2 -10 8 -6 12 7 7 98 -45 127 -73 7 -7 16 -10
19 -7 3 3 3 6 1 8 -265 210 -396 305 -490 357 -52 29 -117 68 -145 86 -92 61
-357 169 -524 213 -88 24 -378 76 -500 91 -116 14 -637 21 -730 10z m575 -60
c3 -5 15 -10 26 -10 10 0 27 -4 37 -9 9 -5 29 -14 44 -22 49 -22 23 -20 -43 4
-80 29 -112 46 -87 47 9 0 20 -4 23 -10z m666 -170 c5 0 7 -4 4 -10 -3 -5 1
-10 9 -10 9 0 16 -4 16 -10 0 -5 7 -7 15 -4 8 4 15 2 15 -3 0 -6 12 -15 28
-22 66 -30 163 -94 154 -103 -6 -6 -20 -3 -37 8 -15 10 -39 25 -54 33 -100 57
-261 157 -261 163 0 3 22 -5 50 -18 27 -13 55 -24 61 -24z m309 -196 c27 -20
50 -41 50 -47 0 -6 3 -7 6 -4 4 4 23 -6 43 -21 20 -15 55 -41 79 -56 23 -16
42 -33 42 -37 0 -5 8 -9 17 -9 12 0 14 -3 6 -11 -12 -12 -56 13 -168 95 -38
29 -87 65 -108 80 -20 15 -35 32 -32 37 9 13 10 13 65 -27z m420 -326 c0 -6
-6 -5 -15 2 -8 7 -15 14 -15 16 0 2 7 1 15 -2 8 -4 15 -11 15 -16z m70 -25
c14 -9 27 -19 30 -22 3 -3 39 -23 80 -43 42 -21 92 -53 112 -70 37 -33 42 -38
94 -72 16 -11 44 -35 62 -53 17 -19 32 -29 32 -23 0 6 5 8 11 4 8 -5 8 -9 -1
-14 -8 -5 -89 43 -212 126 -109 74 -203 134 -207 134 -4 0 -21 11 -37 25 -26
22 -27 25 -9 25 11 0 32 -8 45 -17z m-3380 -43 c-14 -10 -27 -17 -29 -14 -6 5
31 33 44 33 6 1 -1 -8 -15 -19z m0 -80 c0 -12 -7 -20 -18 -20 -9 0 -33 -9 -53
-19 -43 -23 -76 -12 -38 12 79 49 109 57 109 27z m-154 -55 c-11 -8 -25 -15
-30 -15 -6 0 -2 7 8 15 11 8 25 15 30 15 6 0 2 -7 -8 -15z m-86 -25 c0 -5 -2
-10 -4 -10 -3 0 -8 5 -11 10 -3 6 -1 10 4 10 6 0 11 -4 11 -10z m4125 -130 c6
-10 -5 -8 -58 12 -20 8 -24 13 -16 19 13 8 63 -13 74 -31z m108 -731 c12 -7
26 -18 30 -25 4 -8 15 -14 22 -14 8 0 15 -4 15 -10 0 -5 -4 -10 -8 -10 -11 0
-102 58 -102 65 0 9 20 6 43 -6z m-353 -49 c0 -5 -2 -10 -4 -10 -3 0 -8 5 -11
10 -3 6 -1 10 4 10 6 0 11 -4 11 -10z m850 -137 c11 -10 20 -23 20 -30 0 -7 5
-13 12 -13 6 0 9 -2 6 -5 -10 -10 -66 26 -71 45 -6 25 6 26 33 3z m-69 -208
c19 -14 49 -32 67 -40 40 -19 41 -27 2 -20 -48 8 -119 54 -120 78 0 13 17 7
51 -18z m674 -25 c3 -5 1 -10 -4 -10 -6 0 -11 5 -11 10 0 6 2 10 4 10 3 0 8
-4 11 -10z m-198 -192 c13 -10 17 -10 20 0 5 13 55 17 67 5 3 -4 30 -8 58 -10
28 -2 59 -10 68 -18 9 -8 24 -15 33 -15 9 0 19 -4 22 -10 3 -5 14 -10 24 -10
23 0 47 -29 49 -57 1 -27 -28 -31 -70 -9 -23 12 -29 12 -47 -1 -27 -19 -48 -7
-27 15 13 15 12 17 -9 17 -13 0 -21 -3 -19 -6 13 -21 -68 -25 -104 -5 -15 8
-35 17 -45 20 -11 3 -21 15 -24 26 -3 11 -13 20 -22 20 -9 0 -22 9 -29 21 -8
12 -19 18 -28 15 -14 -5 -19 5 -8 17 10 9 74 0 91 -15z m-57 -47 c0 -9 -41
-23 -48 -17 -1 2 4 11 13 20 16 16 35 14 35 -3z m565 -11 c3 -5 -1 -10 -9 -10
-8 0 -18 5 -21 10 -3 6 1 10 9 10 8 0 18 -4 21 -10z m-656 -344 c25 -49 14
-79 -27 -74 -27 3 -27 4 -27 75 0 68 1 71 17 55 9 -9 25 -35 37 -56z m10176
-1422 c138 -3 279 -7 315 -9 66 -3 293 -12 495 -19 61 -3 166 -8 235 -11 73
-4 144 -3 170 3 30 7 61 7 95 0 59 -12 135 -14 581 -21 372 -5 350 0 388 -84
29 -65 7 -142 -47 -168 -29 -13 -42 -14 -80 -5 -35 9 -50 9 -68 -1 -17 -9 -75
-11 -214 -9 -188 4 -316 4 -365 0 -28 -2 -190 -3 -235 0 -127 6 -346 9 -1075
14 -570 3 -852 9 -888 16 -67 15 -98 43 -113 100 -14 55 -6 106 24 151 41 62
31 61 782 43z m-12613 -34 c108 -40 216 -166 287 -332 18 -42 49 -101 68 -130
48 -72 118 -221 137 -288 19 -71 38 -209 30 -222 -3 -5 -8 -112 -9 -236 -2
-125 -8 -267 -15 -317 -12 -90 -76 -300 -112 -365 -49 -92 -79 -138 -122 -191
-25 -31 -46 -61 -46 -66 0 -5 -12 -16 -27 -24 -38 -19 -83 -61 -77 -71 3 -4
-1 -6 -8 -3 -8 3 -22 -13 -37 -40 -13 -25 -26 -43 -29 -41 -9 9 -32 -23 -32
-44 0 -12 -9 -33 -20 -47 -11 -14 -20 -32 -20 -39 0 -8 -5 -14 -11 -14 -5 0
-8 -4 -5 -9 3 -5 -1 -14 -9 -21 -8 -7 -15 -18 -15 -25 0 -16 -47 -66 -76 -81
-52 -27 -77 -26 -122 7 -23 17 -42 34 -42 39 0 5 -53 62 -117 129 -155 158
-196 225 -224 366 -50 250 -60 432 -39 715 6 80 15 242 19 361 8 189 12 225
35 297 34 110 79 185 151 257 78 78 131 103 184 87 47 -15 52 -31 44 -158 -3
-50 -3 -103 1 -118 4 -15 38 -61 76 -102 91 -98 92 -114 8 -154 -35 -17 -75
-30 -89 -30 -79 0 -199 -67 -218 -121 -21 -61 -10 -139 19 -139 10 0 20 -7 24
-15 3 -8 13 -12 23 -9 10 2 4 -3 -14 -12 -17 -9 -36 -27 -42 -40 -12 -28 -25
-176 -17 -202 4 -13 27 -25 67 -37 58 -18 109 -55 109 -80 0 -34 127 -195 182
-230 87 -54 128 77 128 403 0 158 -10 260 -28 271 -10 6 5 61 40 141 31 71 47
116 58 160 7 25 16 61 20 80 47 187 56 328 27 408 -18 47 -73 123 -111 153
-81 64 -185 77 -302 39 -131 -44 -380 -239 -464 -363 -33 -48 -43 -47 -35 5
16 95 157 292 274 383 66 51 207 124 263 134 74 14 197 5 260 -19z m3883
-1390 c3 -5 1 -10 -4 -10 -6 0 -11 5 -11 10 0 6 2 10 4 10 3 0 8 -4 11 -10z
m6945 -1206 c30 -2 116 -6 190 -10 221 -10 250 -12 370 -23 63 -6 122 -14 130
-17 8 -3 93 -7 188 -9 199 -4 282 -10 442 -32 63 -8 172 -14 242 -14 78 1 162
-4 220 -14 62 -11 151 -17 268 -17 124 0 197 -4 250 -16 53 -12 128 -16 260
-17 160 0 190 -3 222 -19 85 -44 87 -168 3 -246 l-27 -25 -231 0 c-128 0 -266
3 -307 7 -41 4 -208 12 -370 18 -162 6 -396 16 -520 21 -124 6 -342 14 -485
18 -143 5 -350 14 -460 20 -252 15 -311 18 -570 26 -188 6 -217 9 -275 31 -73
27 -105 63 -121 134 -17 77 8 139 75 182 29 19 43 19 241 13 116 -4 235 -9
265 -11z m-9916 -779 c19 -14 18 -15 -5 -24 -28 -10 -51 3 -42 25 7 18 23 17
47 -1z m733 -753 c99 -7 115 -10 137 -31 22 -21 26 -33 26 -83 0 -104 -52
-178 -166 -234 -74 -36 -76 -37 -128 -24 -63 15 -89 5 -153 -62 -74 -77 -106
-169 -123 -348 -7 -82 -23 -144 -41 -165 -5 -5 -9 -18 -9 -30 0 -11 -7 -29
-15 -39 -11 -15 -15 -16 -15 -5 0 8 -9 22 -20 32 -23 19 -27 47 -6 47 8 0 16
7 20 15 4 10 -1 15 -15 15 -18 0 -19 4 -13 53 4 28 10 59 15 68 12 24 3 99
-21 158 -11 29 -19 65 -16 80 8 43 41 123 69 168 15 24 27 49 27 57 0 7 7 19
16 27 8 7 13 21 11 31 -5 16 24 61 59 93 6 6 32 39 59 75 74 101 102 122 150
115 22 -3 90 -9 152 -13z m6768 -897 c28 -9 88 -22 135 -30 47 -8 103 -21 125
-29 54 -20 75 -20 145 4 32 11 74 18 92 15 18 -2 100 -11 182 -20 90 -10 166
-24 193 -36 55 -23 90 -24 134 -2 46 23 345 21 392 -2 33 -17 129 -20 156 -6
37 20 223 22 371 4 80 -9 208 -17 285 -18 85 0 157 -5 183 -13 24 -7 67 -13
95 -12 71 2 256 -16 307 -30 23 -6 68 -11 99 -10 124 4 150 2 256 -13 61 -9
162 -18 225 -20 64 -2 128 -9 145 -17 31 -13 72 -16 320 -24 128 -4 266 -19
286 -32 5 -3 64 -7 131 -10 68 -2 149 -10 181 -16 31 -6 78 -8 105 -5 62 7
186 -7 242 -28 33 -13 81 -18 180 -19 110 -1 146 -5 191 -23 41 -15 61 -18 74
-10 27 15 245 1 263 -17 11 -10 33 -13 91 -9 47 2 108 -2 161 -12 47 -9 96
-16 110 -15 154 7 192 2 278 -31 15 -6 39 -5 65 2 49 13 193 3 210 -16 8 -8
33 -10 80 -7 47 3 88 -1 134 -13 58 -16 67 -22 79 -51 16 -37 46 -58 72 -50
10 4 37 25 61 47 40 39 44 41 89 35 26 -4 60 -7 76 -9 34 -2 44 -22 45 -84 1
-23 6 -45 11 -48 6 -3 10 0 10 7 0 8 9 32 21 53 11 22 22 48 24 59 7 30 15 33
33 11 15 -17 27 -20 95 -17 42 2 101 -2 130 -9 28 -7 99 -15 157 -18 l105 -6
0 -80 0 -80 -38 -3 c-25 -2 -45 2 -56 12 -16 14 -22 11 -70 -31 l-53 -46 -121
7 c-123 6 -157 18 -157 53 0 9 -9 4 -23 -12 -15 -18 -28 -24 -40 -20 -9 4 -17
11 -17 15 0 5 -19 -1 -42 -12 -35 -17 -53 -19 -107 -14 -35 4 -77 14 -92 23
-24 15 -34 15 -82 3 -44 -10 -87 -10 -218 -1 -289 19 -321 22 -470 30 -80 4
-152 12 -159 16 -12 7 -201 16 -334 15 -22 0 -46 6 -54 13 -11 8 -50 11 -131
9 -112 -3 -117 -2 -145 22 -35 31 -30 31 -81 6 -58 -28 -199 -29 -274 -2 -50
18 -58 19 -100 5 -83 -26 -127 -27 -199 -5 -100 32 -227 46 -417 48 -105 0
-189 6 -220 14 -30 8 -113 14 -205 15 -139 1 -160 4 -208 25 -52 23 -55 23
-105 7 -45 -14 -72 -15 -196 -7 -79 6 -164 17 -190 26 -40 14 -60 14 -151 4
-88 -10 -125 -10 -228 3 -67 8 -131 13 -141 10 -33 -8 -273 17 -302 33 -21 10
-81 15 -231 19 -234 5 -315 19 -433 72 -56 26 -94 36 -125 36 -25 0 -91 -1
-148 -2 -122 -2 -202 12 -295 51 l-67 29 -218 -4 c-172 -3 -231 -1 -285 11
-57 14 -77 14 -128 3 -69 -14 -396 -14 -462 0 -55 12 -156 57 -181 80 -11 11
-23 19 -28 19 -4 0 -13 21 -21 46 -13 44 -12 47 12 75 14 16 30 29 35 29 5 0
17 6 25 14 9 8 39 21 66 30 61 19 204 15 280 -9z m169 -1449 c38 1 63 -2 56
-6 -16 -10 5 -24 25 -16 19 7 85 -32 85 -50 0 -8 7 -14 16 -14 11 0 15 -6 11
-17 -15 -49 -34 -90 -50 -108 -10 -10 -15 -25 -13 -32 7 -18 -24 -32 -57 -26
-22 4 -27 2 -27 -16 0 -17 -6 -21 -32 -21 -25 0 -29 3 -20 12 16 16 15 38 -2
38 -7 0 -19 -7 -26 -15 -16 -19 -40 -19 -40 -1 0 8 10 17 23 19 14 3 8 5 -15
6 -35 1 -92 30 -129 66 -9 8 -21 15 -27 15 -7 0 -12 4 -12 8 0 5 -18 15 -40
22 -43 14 -47 19 -28 38 8 8 8 12 1 12 -6 0 -13 9 -16 20 -5 18 0 20 39 20 32
0 44 4 44 15 0 8 10 16 23 16 21 2 21 2 -3 7 -37 9 65 20 110 13 19 -3 66 -5
104 -5z"/>
<path d="M1041 22881 c-8 -5 -9 -11 -3 -15 5 -3 15 1 22 9 14 16 3 20 -19 6z"/>
<path d="M4505 22238 c43 -40 100 -94 125 -120 26 -25 91 -76 146 -112 54 -36
131 -91 169 -122 39 -31 88 -65 110 -76 22 -12 51 -30 65 -40 14 -11 40 -26
59 -34 19 -8 71 -38 115 -68 45 -29 107 -69 139 -90 59 -38 73 -58 35 -49
l-23 5 23 -21 c14 -12 30 -17 40 -14 9 3 14 3 10 -2 -7 -7 14 -35 26 -35 3 0
30 -25 60 -56 46 -46 58 -54 73 -45 17 10 17 10 -1 11 -12 0 -16 5 -13 14 4 9
1 13 -6 10 -7 -2 -28 12 -47 33 -19 21 -26 30 -15 22 63 -49 55 -28 -11 33
-48 44 -52 60 -10 32 15 -9 29 -14 33 -10 3 3 1 6 -5 6 -7 0 -12 6 -12 14 0
19 -81 88 -97 82 -7 -3 -10 1 -6 10 7 19 10 18 45 -11 27 -23 48 -32 48 -20 0
13 -125 103 -137 98 -11 -4 -10 -8 4 -18 10 -8 15 -16 12 -20 -8 -7 -129 64
-129 76 0 23 82 2 102 -26 4 -5 10 -2 13 7 8 21 -11 58 -29 58 -9 0 -12 7 -9
20 6 24 -64 96 -109 112 -16 6 -25 14 -22 19 3 5 11 6 17 3 9 -5 9 -4 1 5 -14
15 -71 48 -109 63 -16 6 -86 39 -155 74 -149 74 -291 125 -298 106 -3 -9 -12
-6 -32 8 -15 11 -31 20 -34 20 -3 0 -56 27 -118 60 -61 33 -114 60 -117 60 -3
0 30 -33 74 -72z m195 -134 c0 -9 -37 15 -51 33 -10 12 -5 11 19 -6 17 -12 32
-24 32 -27z m70 17 c0 -9 78 -61 91 -61 6 0 47 -18 91 -40 45 -22 86 -40 90
-40 5 0 28 -9 52 -21 41 -19 64 -45 52 -57 -3 -2 -47 15 -98 40 -51 25 -127
61 -169 81 -42 20 -91 51 -108 69 -34 34 -40 51 -16 42 8 -4 15 -9 15 -13z
m219 -207 c14 -12 -19 -1 -35 12 -18 14 -18 14 6 3 14 -6 27 -13 29 -15z m101
-40 c46 -19 65 -22 70 -14 5 9 27 2 73 -24 36 -20 71 -43 77 -52 22 -25 2 -28
-38 -6 -62 36 -135 69 -169 75 -31 6 -107 47 -87 47 6 0 39 -12 74 -26z"/>
<path d="M5207 21679 c7 -7 15 -10 18 -7 3 3 -2 9 -12 12 -14 6 -15 5 -6 -5z"/>
<path d="M5368 21568 c18 -21 72 -50 72 -38 0 6 -8 14 -17 17 -10 4 -24 13
-31 20 -18 17 -38 18 -24 1z"/>
<path d="M5395 21420 c10 -11 20 -18 23 -15 7 6 -18 35 -31 35 -5 0 -2 -9 8
-20z"/>
<path d="M20023 21071 c-89 -3 -165 -9 -169 -13 -4 -5 10 -9 32 -9 l39 -2 -35
-7 c-19 -4 -30 -8 -25 -9 6 -1 1 -6 -10 -11 -18 -8 -17 -9 8 -9 16 -1 35 -8
44 -16 12 -12 18 -13 30 -4 11 10 15 8 20 -9 3 -11 15 -23 27 -25 17 -3 15 -5
-6 -6 -25 -1 -28 -5 -28 -36 0 -50 -28 -48 -32 3 -2 20 -7 37 -13 37 -5 0 -11
-17 -13 -37 -2 -25 -8 -38 -18 -38 -10 0 -14 -12 -14 -40 0 -22 -4 -40 -10
-40 -5 0 -10 -25 -10 -55 0 -32 -4 -55 -11 -55 -6 0 -25 -11 -43 -25 -18 -14
-37 -25 -42 -25 -13 -1 -64 -88 -64 -109 0 -9 -18 -28 -40 -41 -22 -14 -40
-29 -40 -34 0 -11 -60 -66 -72 -66 -4 0 -8 7 -8 15 0 23 -16 18 -28 -10 -13
-28 -32 -34 -32 -10 0 8 -4 15 -10 15 -5 0 -10 -12 -10 -26 0 -14 -6 -32 -14
-40 -8 -8 -26 -14 -40 -14 -24 0 -26 -4 -26 -40 0 -38 -2 -40 -29 -40 -16 0
-36 -7 -45 -15 -8 -8 -17 -15 -21 -15 -3 0 -21 -11 -39 -25 -18 -14 -40 -25
-48 -25 -9 0 -21 -7 -28 -15 -7 -8 -27 -16 -44 -16 -21 -1 -25 -3 -11 -6 16
-4 10 -9 -25 -23 -37 -14 -46 -24 -58 -58 -12 -37 -16 -40 -49 -40 -27 0 -41
-7 -59 -28 -13 -16 -23 -35 -24 -41 0 -7 -9 -13 -19 -13 -11 0 -23 -5 -26 -10
-4 -6 -16 -10 -28 -9 -31 3 -94 -2 -82 -6 6 -2 24 -7 40 -11 l30 -7 -25 -7
c-21 -7 -19 -8 15 -9 22 -1 55 -5 74 -11 62 -18 201 -22 1141 -35 212 -3 406
-8 433 -11 l47 -6 0 641 0 641 -147 -2 c-82 -1 -221 -4 -310 -7z m-103 -281
c0 -5 -7 -7 -15 -4 -8 4 -15 8 -15 10 0 2 7 4 15 4 8 0 15 -4 15 -10z"/>
<path d="M19728 21053 c6 -2 18 -2 25 0 6 3 1 5 -13 5 -14 0 -19 -2 -12 -5z"/>
<path d="M19803 21053 c9 -2 23 -2 30 0 6 3 -1 5 -18 5 -16 0 -22 -2 -12 -5z"/>
<path d="M19798 21033 c6 -3 10 -9 6 -14 -3 -5 1 -9 9 -9 22 0 16 26 -7 27
-12 1 -15 -1 -8 -4z"/>
<path d="M5840 20909 c0 -5 9 -9 20 -9 11 0 20 2 20 4 0 2 -9 6 -20 9 -11 3
-20 1 -20 -4z"/>
<path d="M6110 20824 c0 -8 32 -33 43 -34 4 0 -2 9 -13 20 -21 21 -30 25 -30
14z"/>
<path d="M6065 20800 c-3 -5 -1 -10 4 -10 6 0 11 5 11 10 0 6 -2 10 -4 10 -3
0 -8 -4 -11 -10z"/>
<path d="M7520 17250 c0 -5 5 -10 10 -10 6 0 10 5 10 10 0 6 -4 10 -10 10 -5
0 -10 -4 -10 -10z"/>
<path d="M8240 17106 c0 -9 5 -16 10 -16 6 0 10 4 10 9 0 6 -4 13 -10 16 -5 3
-10 -1 -10 -9z"/>
<path d="M4 15833 c8 -583 11 -625 44 -663 30 -34 47 -38 56 -14 4 11 15 15
35 12 26 -4 30 -1 35 25 7 35 20 28 21 -11 0 -20 6 -28 23 -30 16 -2 22 2 22
14 0 14 3 15 12 6 7 -7 20 -12 30 -12 9 0 22 -9 28 -20 6 -11 19 -20 28 -20
10 0 23 -5 29 -11 6 -6 32 -11 59 -12 47 -2 49 -3 46 -29 -2 -21 1 -26 13 -22
8 3 15 1 15 -5 0 -7 9 -9 25 -5 16 4 30 0 40 -10 9 -8 32 -20 51 -25 20 -5 50
-20 67 -33 18 -13 44 -29 58 -37 15 -7 32 -24 39 -37 7 -13 26 -26 44 -30 17
-4 37 -16 45 -26 7 -11 29 -27 48 -35 20 -8 37 -22 40 -32 3 -12 11 -17 23
-14 15 4 18 1 13 -16 -8 -32 45 -52 99 -37 35 9 42 8 54 -9 20 -26 17 -38 -6
-32 -24 6 -24 4 -3 -45 17 -37 27 -45 80 -54 15 -3 33 -14 41 -25 7 -10 21
-19 31 -19 25 0 33 -11 19 -27 -16 -19 2 -34 42 -36 43 -2 49 18 10 31 -30 11
-40 36 -17 45 9 4 9 8 -2 15 -11 8 -11 10 0 15 8 3 3 6 -11 6 -31 1 -50 18
-50 43 0 10 -7 18 -15 18 -8 0 -15 4 -15 9 0 12 39 25 47 17 4 -3 1 -6 -6 -6
-22 0 0 -20 44 -40 24 -11 53 -20 65 -20 13 0 24 -9 30 -25 11 -30 50 -35 50
-7 0 23 -19 42 -41 42 -10 0 -19 11 -22 28 -3 15 -19 36 -36 47 -46 30 -49 49
-9 41 29 -5 30 -4 13 6 -11 6 -25 16 -32 22 -7 6 -19 17 -28 24 -8 7 -18 30
-21 51 -5 29 -12 41 -28 45 l-21 6 23 18 24 18 -24 16 c-12 8 -34 18 -47 23
-17 5 -20 10 -12 18 8 8 19 7 40 -6 35 -21 50 -6 23 21 -10 10 -16 24 -14 32
3 7 -1 18 -9 24 -16 13 -31 37 -56 86 -9 19 -23 39 -30 43 -7 4 -13 17 -13 28
0 20 -28 67 -57 97 -7 7 -13 19 -13 27 0 7 -11 20 -25 29 -14 9 -25 22 -25 28
0 7 -13 26 -29 42 -123 133 -155 167 -194 213 -117 134 -385 363 -592 507 -67
46 -204 126 -216 126 -7 0 -8 -153 -5 -427z m246 -622 c0 -6 -4 -13 -10 -16
-5 -3 -10 1 -10 9 0 9 5 16 10 16 6 0 10 -4 10 -9z m950 -227 c0 -8 -5 -12
-10 -9 -6 4 -8 11 -5 16 9 14 15 11 15 -7z m-166 -199 c-6 -16 -24 -21 -24 -7
0 11 11 22 21 22 5 0 6 -7 3 -15z"/>
<path d="M4820 15030 c0 -5 5 -10 10 -10 6 0 10 5 10 10 0 6 -4 10 -10 10 -5
0 -10 -4 -10 -10z"/>
<path d="M13 14964 c-9 -24 33 -98 154 -276 124 -182 182 -253 261 -322 98
-85 429 -412 442 -436 18 -33 29 -47 74 -89 21 -20 71 -69 110 -109 78 -80
128 -118 87 -66 -12 16 -48 63 -80 104 -32 41 -143 163 -247 270 -228 233
-284 294 -349 380 -27 36 -84 108 -126 160 -42 52 -97 127 -124 165 -26 39
-72 98 -101 132 -30 33 -54 65 -54 70 0 4 -9 14 -20 21 -17 10 -21 10 -27 -4z"/>
<path d="M4757 14953 c-12 -11 -8 -23 8 -23 8 0 15 7 15 15 0 16 -12 20 -23 8z"/>
<path d="M1315 14870 c-3 -5 1 -10 10 -10 9 0 13 5 10 10 -3 6 -8 10 -10 10
-2 0 -7 -4 -10 -10z"/>
<path d="M1430 14428 c0 -9 5 -20 11 -23 17 -11 18 -2 3 19 -12 17 -14 17 -14
4z"/>
<path d="M1368 14393 c7 -3 16 -2 19 1 4 3 -2 6 -13 5 -11 0 -14 -3 -6 -6z"/>
<path d="M0 7135 l0 -7135 10240 0 10240 0 0 2589 0 2589 -222 -112 c-235
-119 -307 -148 -559 -226 -252 -77 -262 -86 -365 -293 -41 -82 -74 -161 -74
-175 0 -44 23 -103 47 -122 13 -10 45 -26 71 -36 85 -31 110 -80 77 -157 -13
-31 -88 -107 -105 -107 -11 0 -49 -57 -56 -84 -6 -24 -4 -26 25 -26 17 0 31
-4 31 -10 0 -5 -15 -10 -34 -10 -42 0 -77 -37 -100 -108 -13 -39 -14 -55 -5
-78 18 -47 23 -286 9 -424 -7 -69 -13 -147 -14 -173 -1 -55 -21 -77 -69 -77
-30 0 -286 38 -296 44 -3 2 -94 20 -201 41 -175 33 -485 97 -825 170 -167 36
-531 112 -645 135 -132 26 -735 151 -970 200 -439 92 -1624 330 -1890 379
-200 37 -687 130 -900 172 -85 16 -193 37 -240 45 -47 8 -92 17 -100 20 -8 3
-24 7 -35 9 -11 2 -60 11 -110 20 -49 9 -135 24 -190 35 -55 11 -181 34 -280
51 -99 17 -186 36 -193 42 -9 7 -6 13 15 24 27 14 87 13 283 -3 25 -2 96 -6
159 -8 63 -3 117 -9 120 -14 3 -5 29 -9 56 -9 28 0 97 -2 155 -5 66 -3 107 -1
112 5 4 6 12 4 22 -6 16 -15 44 -13 56 4 3 5 38 5 77 1 39 -5 104 -5 144 -1
41 4 107 8 147 8 57 1 72 4 72 16 0 19 11 19 57 0 34 -14 37 -14 51 6 8 11 20
18 27 15 7 -2 32 0 55 6 31 8 44 8 49 -1 10 -16 38 -4 44 20 6 24 45 25 63 2
13 -17 13 -17 14 0 0 12 8 17 27 17 31 0 124 42 143 65 7 8 18 15 26 15 7 0
17 7 22 15 4 9 45 54 90 100 47 48 88 101 98 124 9 23 22 41 30 41 9 0 14 11
14 28 0 16 9 37 20 47 11 10 17 21 15 26 -3 4 -1 10 4 13 5 4 12 25 16 47 5
26 10 37 15 29 10 -15 30 18 30 49 0 11 7 26 15 35 9 8 16 33 18 56 1 23 6 38
13 36 6 -2 16 5 23 15 10 18 20 19 99 14 48 -3 112 -7 142 -9 30 -1 65 -8 77
-14 12 -7 48 -12 79 -12 40 0 63 -5 76 -17 12 -11 41 -18 86 -20 90 -4 134
-12 127 -23 -3 -4 23 -11 57 -15 63 -8 128 -30 139 -47 4 -6 27 -12 52 -13 25
-2 55 -8 66 -14 14 -8 21 -8 21 -1 0 18 26 11 53 -14 17 -15 45 -27 74 -32 27
-3 54 -11 60 -16 7 -6 22 -8 32 -5 11 3 21 2 23 -2 7 -14 73 -42 76 -32 2 7
11 6 25 -4 12 -8 32 -15 45 -15 28 0 75 -25 108 -57 13 -13 35 -23 50 -23 25
0 86 -28 92 -42 2 -5 28 -8 57 -8 43 0 59 -5 79 -24 15 -13 26 -31 26 -40 0
-9 8 -16 18 -16 9 0 25 -14 34 -30 10 -18 22 -28 31 -24 8 3 17 -2 20 -10 4
-9 18 -16 32 -16 19 0 25 -5 25 -21 0 -26 22 -49 58 -59 15 -4 26 -13 24 -21
-5 -19 19 -59 35 -59 7 0 13 -4 13 -8 0 -5 8 -18 18 -30 9 -11 26 -33 37 -49
11 -15 29 -37 41 -49 11 -11 19 -25 17 -31 -2 -5 15 -22 37 -38 22 -15 40 -33
40 -39 0 -13 54 -57 74 -60 6 -1 21 -11 33 -23 12 -12 46 -27 77 -34 31 -7 56
-17 56 -23 0 -12 51 -46 69 -46 6 0 11 7 11 15 0 19 9 19 34 0 29 -22 286 -22
286 0 0 10 10 15 30 15 24 0 30 -4 30 -21 0 -25 20 -20 97 22 60 33 63 34 63
15 0 -8 -10 -17 -22 -19 -16 -3 -13 -5 10 -6 20 0 31 3 27 9 -3 6 1 10 9 10 9
0 16 7 16 15 0 10 10 15 30 15 23 0 30 -4 30 -20 0 -26 24 -26 50 0 12 12 25
18 30 15 15 -9 80 17 80 32 0 7 9 13 19 13 10 0 21 6 24 14 3 8 29 22 58 31
29 10 65 29 79 42 14 13 37 31 53 39 15 8 27 19 27 24 0 6 5 10 10 10 6 0 10
-7 10 -16 0 -27 24 -9 35 25 8 26 14 32 31 28 15 -2 31 5 47 22 71 73 92 97
92 103 0 9 51 48 64 48 6 0 11 7 11 15 0 8 4 15 8 15 5 0 17 18 28 40 11 24
26 40 37 40 10 0 24 15 35 38 9 20 20 39 24 40 5 2 8 10 8 17 0 7 7 16 15 19
9 3 21 19 26 36 6 16 15 30 21 30 5 0 6 5 3 11 -4 6 2 13 13 16 12 3 22 16 26
34 3 16 17 55 32 87 14 31 30 66 35 77 5 11 16 47 24 80 9 33 18 67 20 75 8
29 36 105 46 126 6 11 9 24 8 30 -2 5 4 25 13 45 9 20 23 62 32 95 9 32 21 68
26 79 5 11 23 67 41 125 51 170 89 282 113 335 63 138 68 181 37 344 -24 132
-30 213 -35 561 -5 343 8 454 71 587 21 44 77 75 135 75 53 0 248 -61 318 -99
277 -153 401 -262 483 -424 26 -51 47 -97 47 -102 0 -4 11 -30 24 -57 14 -28
32 -80 41 -117 9 -36 20 -73 25 -82 8 -16 45 -137 53 -176 3 -11 5 548 6 1243
l1 1264 -27 -6 c-16 -3 -86 -13 -158 -23 -153 -21 -618 -23 -875 -4 -310 23
-747 69 -975 101 -38 6 -92 12 -120 15 -27 3 -67 8 -87 11 -74 10 -105 14
-198 24 -52 5 -180 21 -285 35 -228 30 -617 78 -730 90 -65 6 -423 49 -635 76
-91 11 -203 27 -250 34 -47 8 -164 26 -260 40 -96 14 -218 32 -270 39 -52 8
-117 17 -145 20 -27 3 -126 17 -220 31 -207 31 -496 70 -665 90 -69 8 -192 24
-275 35 -82 11 -220 29 -305 41 -85 11 -216 29 -290 40 -125 18 -233 33 -435
59 -44 5 -143 19 -220 30 -77 11 -158 22 -180 25 -43 5 -190 25 -410 55 -131
18 -210 27 -412 51 -46 5 -120 13 -165 19 -46 5 -177 21 -293 35 -217 27 -430
55 -595 80 -533 81 -685 101 -1065 141 -77 8 -212 23 -300 34 -420 51 -578 70
-675 80 -58 6 -141 15 -185 20 -44 6 -289 17 -545 25 -641 19 -962 45 -1345
105 -66 10 -169 26 -230 35 -307 44 -383 57 -600 105 -54 11 -155 51 -185 73
-13 9 -28 17 -32 17 -15 0 -106 100 -131 143 -30 52 -36 84 -38 212 -2 128 -5
143 -40 160 -39 21 -123 24 -760 30 -438 4 -559 2 -573 -8 -15 -11 -16 -19 -7
-57 18 -85 30 -195 36 -350 3 -85 10 -198 16 -250 17 -165 25 -288 19 -306 -9
-24 -15 -11 -35 66 -21 86 -30 110 -78 208 -33 68 -56 98 -131 170 -176 170
-396 329 -631 457 -272 147 -349 194 -464 280 -65 48 -161 140 -161 155 0 5
-4 10 -10 10 -14 0 -12 27 3 32 6 3 36 3 64 2 83 -4 224 -79 362 -191 119 -97
371 -258 556 -354 44 -23 126 -68 182 -101 116 -68 156 -77 161 -37 2 14 -11
53 -28 87 -46 94 -159 202 -319 307 -150 98 -220 163 -359 338 -51 65 -101
127 -110 137 -41 44 -83 110 -77 120 3 5 1 10 -4 10 -6 0 -11 13 -11 29 0 35
24 44 77 28 28 -9 78 -52 193 -168 170 -172 252 -245 290 -261 35 -14 142 -18
158 -6 28 23 14 83 -39 164 -151 233 -401 454 -632 560 -38 18 -74 37 -80 43
-6 6 -16 11 -23 11 -10 0 -44 14 -189 75 -16 8 -55 24 -85 38 -30 14 -80 35
-110 48 -30 12 -62 28 -70 34 -8 7 -26 16 -40 20 -14 4 -63 24 -110 45 -47 21
-93 41 -103 44 -10 3 -15 10 -12 16 3 5 0 10 -8 10 -22 0 -129 51 -151 72 -11
10 -28 18 -38 18 -10 0 -38 10 -60 21 -80 41 -153 60 -253 66 -55 3 -104 9
-110 13 -5 4 -34 11 -62 15 -29 4 -53 11 -53 17 0 6 -11 7 -25 4 -14 -4 -25
-3 -25 1 0 5 -25 19 -55 33 -30 14 -55 30 -55 35 0 6 -25 26 -55 45 -30 19
-54 38 -55 43 0 4 -11 7 -24 7 -13 0 -26 4 -28 9 -7 18 -298 170 -374 195 -29
9 -60 26 -69 36 -10 11 -26 20 -35 20 -9 0 -25 9 -35 20 -10 11 -23 20 -30 20
-13 0 -131 75 -140 90 -3 5 -15 10 -27 10 -11 0 -31 9 -45 20 -17 13 -33 18
-49 14 -17 -4 -24 -2 -24 8 0 15 -40 38 -65 38 -8 0 -15 5 -15 10 0 6 -15 10
-33 10 -18 0 -43 7 -55 16 -12 8 -30 13 -40 9 -11 -3 -35 1 -55 10 -20 8 -53
15 -72 15 -21 0 -34 4 -30 10 3 6 -1 7 -9 4 -9 -3 -23 1 -31 10 -9 9 -23 16
-31 16 -20 0 -17 14 6 35 11 10 20 28 20 41 0 25 35 64 57 64 8 0 13 9 12 23
-4 41 1 57 17 57 9 0 14 5 12 12 -3 7 3 28 13 47 l17 35 -32 31 c-34 32 -88
100 -87 109 2 16 -1 17 -16 5 -10 -7 -15 -10 -11 -5 11 13 -11 46 -38 56 -14
6 -30 23 -35 40 -7 19 -28 40 -60 60 l-49 30 0 -7135z m3190 3825 c14 -5 39
-11 55 -15 128 -27 320 -108 457 -193 100 -63 300 -214 353 -267 124 -124 215
-269 277 -443 17 -48 36 -93 42 -101 7 -10 10 -87 9 -240 l-2 -226 185 2 c120
2 193 -1 206 -8 15 -8 22 -8 28 0 3 7 14 9 22 6 9 -4 67 -10 130 -15 62 -4
178 -15 258 -23 207 -23 481 -47 650 -58 80 -5 161 -14 181 -20 78 -24 155
-15 294 35 224 81 346 105 855 173 194 26 699 25 850 0 121 -21 206 -35 490
-82 113 -19 246 -41 295 -49 50 -9 164 -27 255 -41 91 -14 190 -30 220 -35 30
-5 105 -17 165 -25 125 -18 511 -80 880 -140 163 -27 516 -80 770 -115 182
-25 360 -53 825 -131 372 -62 448 -73 725 -114 94 -14 213 -32 265 -40 52 -8
129 -19 170 -25 41 -5 152 -21 245 -35 94 -14 204 -30 245 -36 41 -6 170 -24
285 -40 116 -17 257 -37 315 -45 58 -7 114 -16 125 -18 11 -3 74 -12 140 -20
66 -9 273 -36 460 -61 187 -25 408 -54 490 -65 83 -11 218 -29 300 -40 83 -11
191 -25 240 -30 50 -6 158 -19 240 -31 220 -30 873 -123 1085 -154 58 -9 263
-38 455 -65 942 -132 1277 -198 1462 -286 52 -25 80 -45 98 -72 39 -57 33 -83
-27 -137 -118 -106 -393 -219 -1283 -525 -110 -38 -252 -87 -315 -109 -202
-70 -304 -74 -690 -25 -189 23 -678 99 -1195 185 -137 22 -275 45 -305 50 -30
5 -91 16 -135 24 -94 18 -405 68 -770 125 -143 22 -345 54 -450 71 -304 48
-362 57 -505 79 -74 12 -252 41 -395 65 -143 24 -334 56 -425 70 -91 14 -221
34 -290 45 -69 11 -217 33 -330 50 -113 17 -245 38 -295 46 -49 8 -103 17
-120 20 -16 2 -115 20 -220 39 -255 46 -1533 257 -1695 280 -25 4 -133 22
-240 41 -443 79 -974 167 -1315 219 -725 111 -1544 262 -1845 341 -145 39
-233 68 -321 107 -52 24 -56 24 -76 9 -39 -32 -95 -128 -263 -447 -35 -66 -81
-155 -103 -197 -23 -46 -53 -88 -73 -103 -44 -34 -134 -46 -240 -33 -69 9 -90
8 -132 -6 -59 -20 -132 -70 -132 -91 0 -18 104 -103 150 -122 20 -9 51 -13 75
-10 60 7 231 78 337 140 51 30 136 74 188 97 52 23 104 45 115 50 55 25 214
64 370 91 33 5 116 24 185 40 149 37 395 79 455 79 23 0 78 9 121 19 151 38
171 37 255 -2 41 -19 94 -54 119 -77 129 -120 172 -142 243 -129 23 4 60 6 82
3 22 -2 63 -6 91 -8 29 -2 57 -7 64 -11 7 -4 42 -8 79 -9 37 -1 72 -5 78 -9 5
-3 19 -5 30 -2 12 2 38 -3 59 -10 29 -10 41 -10 46 -2 5 9 10 9 20 -1 6 -6 24
-12 39 -12 15 0 31 -5 34 -10 4 -7 12 -7 25 0 12 7 27 7 45 0 14 -5 41 -10 59
-10 18 0 36 -3 39 -7 4 -3 21 -8 37 -10 17 -1 106 -14 198 -28 92 -14 184 -28
204 -30 21 -2 46 -6 55 -9 25 -7 122 -19 155 -18 15 1 30 -3 33 -7 3 -5 14 -7
25 -4 11 3 20 1 20 -4 0 -5 15 -9 33 -10 32 0 112 -10 112 -14 0 -1 123 -25
175 -33 14 -3 75 -14 135 -26 61 -11 142 -27 180 -34 39 -7 80 -18 92 -24 13
-7 34 -10 48 -6 14 4 32 1 40 -6 8 -7 29 -10 47 -7 24 3 39 -1 55 -16 20 -17
27 -19 49 -9 20 10 30 9 47 -3 12 -8 38 -15 58 -15 19 0 39 -3 43 -7 4 -4 20
-8 36 -9 16 -1 37 -5 47 -9 10 -4 43 -8 74 -10 30 -1 66 -8 79 -15 13 -7 44
-12 69 -12 25 1 56 -5 68 -13 18 -12 27 -13 42 -3 15 9 24 8 45 -6 15 -9 41
-16 60 -14 19 1 41 -4 50 -11 9 -8 26 -11 40 -7 16 4 30 0 40 -9 12 -12 20
-14 36 -5 14 8 26 8 41 -1 12 -6 29 -9 40 -6 10 3 19 1 21 -4 4 -12 67 -19 74
-8 3 5 16 9 29 9 13 0 26 4 29 9 9 13 125 33 196 33 91 0 166 -36 240 -114 47
-50 62 -59 86 -57 16 2 46 -3 67 -10 23 -8 56 -10 81 -7 28 5 54 2 79 -9 20
-8 49 -15 64 -15 15 0 43 -9 61 -20 69 -42 175 -69 198 -49 7 5 15 6 18 1 3
-5 22 -9 42 -10 20 -1 42 -6 50 -12 9 -8 19 -8 32 -1 16 9 23 6 34 -11 15 -22
16 -22 42 -5 23 16 27 16 32 2 11 -29 44 -39 65 -19 18 16 20 16 44 -10 l25
-27 27 21 c26 20 28 20 40 4 7 -10 13 -21 13 -26 0 -14 28 -9 34 7 7 20 36 19
51 -2 10 -13 17 -14 45 -5 45 16 49 15 60 -13 10 -25 10 -25 41 -9 23 11 34
13 42 5 6 -6 21 -11 33 -11 12 0 25 -7 28 -16 4 -9 11 -12 18 -7 7 4 18 8 23
9 6 1 17 5 26 9 12 4 18 -1 23 -19 7 -30 22 -32 62 -11 27 14 29 13 36 -6 6
-14 14 -19 27 -14 12 4 21 0 25 -11 6 -15 8 -15 26 1 28 25 70 13 70 -20 0
-31 18 -32 54 -4 23 18 32 20 52 10 13 -6 24 -18 24 -26 0 -9 4 -14 9 -11 5 4
11 0 14 -6 3 -10 9 -8 24 4 28 25 45 22 78 -12 31 -33 45 -38 45 -16 0 7 6 19
14 26 12 9 17 8 27 -8 7 -11 19 -18 26 -15 7 3 13 -2 13 -11 0 -20 14 -20 45
0 28 18 45 12 45 -18 0 -19 1 -20 25 -4 19 13 30 14 45 6 11 -6 20 -8 20 -5 0
3 11 -2 25 -11 17 -11 25 -12 25 -4 0 11 39 5 50 -9 3 -3 34 -6 69 -6 56 0 65
-3 74 -22 11 -25 37 -31 37 -9 0 26 21 29 45 6 20 -19 27 -21 40 -10 18 15 45
6 45 -15 0 -19 5 -19 41 2 28 17 30 16 77 -9 47 -25 48 -25 71 -7 32 26 38 24
51 -17 l12 -36 30 28 c24 24 30 26 38 14 5 -8 10 -22 10 -30 1 -12 3 -12 14 3
17 23 32 22 39 -3 6 -23 29 -19 63 12 23 20 34 15 34 -16 1 -12 7 -32 14 -45
l13 -23 23 36 c25 41 41 42 51 5 6 -21 7 -21 9 -4 1 14 5 10 11 -12 12 -42 22
-41 50 3 20 33 24 35 34 20 7 -9 15 -35 19 -57 7 -46 22 -47 46 -4 24 44 38
42 42 -7 l3 -43 24 39 c23 36 25 37 38 20 7 -10 13 -30 13 -46 0 -15 5 -28 10
-28 6 0 10 6 10 14 0 17 48 76 61 76 5 0 9 -13 9 -29 0 -16 7 -34 15 -41 11
-9 15 -10 15 -1 0 7 8 10 18 7 12 -4 28 3 45 18 l27 25 11 -38 c13 -43 30 -45
81 -9 l27 19 11 -41 c10 -37 13 -39 32 -29 12 7 33 22 47 35 29 27 35 22 52
-41 l11 -40 38 43 c41 46 50 50 50 26 0 -9 8 -29 17 -45 l17 -29 31 29 c35 34
52 28 74 -26 7 -18 17 -33 22 -33 5 0 22 18 37 40 15 21 31 38 37 36 5 -1 16
-24 23 -49 16 -57 34 -60 64 -12 13 19 28 35 33 35 13 0 39 -39 45 -69 8 -37
25 -36 50 4 27 44 46 44 64 0 8 -19 19 -35 24 -35 6 0 26 16 46 36 46 46 58
37 58 -43 1 -92 -79 -273 -121 -273 -19 0 -28 32 -20 69 5 20 9 46 9 59 0 21
-1 21 -17 4 -10 -10 -30 -37 -46 -60 -37 -57 -67 -58 -67 -2 0 48 -10 50 -60
10 -45 -36 -50 -37 -50 -9 0 13 -11 25 -34 34 -19 8 -38 20 -42 26 -4 7 -12
-1 -20 -20 -20 -48 -54 -36 -54 19 0 10 -9 20 -20 23 -14 4 -24 -4 -39 -29
-29 -49 -51 -45 -51 9 0 24 -3 46 -6 49 -12 13 -45 -6 -63 -38 -32 -53 -43
-47 -56 30 -4 27 -9 35 -15 26 -4 -7 -15 -10 -24 -7 -11 4 -18 -1 -22 -18 -7
-29 -42 -44 -55 -24 -5 8 -9 37 -9 64 0 36 -3 46 -10 34 -21 -36 -69 -79 -89
-79 -20 0 -26 16 -24 68 1 21 -39 3 -69 -31 -15 -17 -30 -29 -32 -26 -3 2 -7
27 -11 54 -3 27 -7 51 -9 53 -2 2 -14 -15 -27 -37 -12 -23 -26 -41 -30 -41 -4
0 -12 14 -18 31 l-11 31 -25 -29 c-21 -24 -26 -26 -35 -13 -5 8 -10 25 -10 38
0 31 -22 27 -43 -8 -23 -39 -47 -39 -47 -1 0 34 -9 61 -20 61 -4 0 -17 -16
-29 -35 -13 -22 -28 -35 -41 -35 -16 0 -20 7 -20 38 0 61 -13 68 -44 22 -14
-22 -30 -40 -34 -40 -17 0 -32 25 -32 52 0 37 -21 36 -42 -2 -23 -41 -37 -38
-44 10 -4 22 -9 40 -13 40 -3 0 -15 -17 -26 -37 -31 -57 -45 -54 -45 12 l0 56
-22 -21 c-12 -11 -25 -20 -29 -20 -4 0 -9 -9 -12 -20 -3 -12 -14 -20 -26 -20
-21 0 -28 15 -33 75 l-3 30 -34 -48 c-19 -26 -39 -46 -45 -44 -6 2 -15 22 -20
45 -10 44 -30 55 -41 23 -7 -22 -43 -57 -51 -48 -3 3 -8 24 -11 46 -6 45 -16
51 -35 21 -15 -24 -58 -27 -58 -4 0 14 -1 14 -16 0 -22 -23 -41 -20 -48 8 -6
26 -38 44 -45 25 -6 -20 -42 -50 -54 -46 -7 2 -13 18 -15 35 -2 18 -7 32 -12
32 -5 0 -15 3 -24 6 -11 4 -16 0 -16 -13 0 -29 -33 -56 -48 -41 -7 7 -12 21
-12 33 0 11 -5 27 -10 35 -9 12 -16 9 -45 -23 -38 -44 -51 -42 -61 8 -7 39
-29 52 -44 25 -12 -23 -39 -50 -49 -50 -4 0 -14 18 -21 40 -15 47 -23 49 -52
15 -26 -30 -44 -32 -53 -5 -7 22 -20 26 -30 9 -4 -6 -12 -4 -20 8 -12 16 -17
17 -47 5 -30 -11 -35 -10 -50 8 -9 11 -14 29 -11 40 7 27 0 25 -41 -11 -46
-40 -74 -33 -78 19 l-3 37 -38 -37 c-21 -21 -40 -38 -43 -38 -3 0 -13 19 -23
41 l-19 41 -28 -31 c-15 -17 -30 -31 -33 -31 -4 0 -12 14 -18 30 -12 32 -40
40 -49 15 -8 -19 -24 -20 -24 -1 0 21 -20 30 -33 17 -19 -19 -46 -12 -53 14
-7 30 -11 30 -36 8 -14 -12 -21 -14 -30 -5 -6 6 -23 8 -38 5 -20 -3 -34 1 -47
14 -15 15 -25 18 -42 11 -13 -4 -28 -5 -33 -1 -6 3 -27 8 -47 10 -19 2 -44 11
-54 21 -15 13 -22 14 -37 4 -12 -7 -21 -8 -25 -2 -4 6 -11 8 -16 5 -5 -4 -9 1
-9 9 0 14 -3 14 -19 4 -16 -10 -23 -9 -39 5 -24 22 -39 22 -47 -3 -6 -20 -37
-22 -76 -6 -21 9 -33 -19 -19 -44 6 -10 10 -44 10 -75 0 -56 0 -57 28 -51 138
26 215 15 311 -48 184 -119 321 -305 321 -436 0 -17 7 -20 46 -20 50 0 155
-38 219 -79 22 -14 75 -53 118 -86 43 -33 97 -74 120 -92 97 -75 292 -151 395
-155 18 -1 35 -5 38 -10 3 -4 20 -8 39 -8 19 0 37 -5 40 -10 4 -6 11 -8 16 -5
5 4 9 1 9 -4 0 -6 17 -11 38 -11 20 0 44 -5 52 -10 11 -7 11 -10 2 -10 -7 0
-10 -4 -7 -10 3 -6 -4 -10 -17 -10 -18 0 -20 -2 -8 -10 12 -8 10 -10 -10 -10
-14 0 -45 -9 -69 -20 -24 -11 -56 -20 -72 -20 -16 0 -29 -4 -29 -8 0 -4 -26
-16 -57 -25 -32 -10 -118 -41 -193 -70 -142 -54 -201 -63 -306 -43 -47 9 -56
6 -289 -111 -283 -142 -391 -226 -575 -448 -41 -49 -101 -118 -132 -153 -32
-35 -87 -107 -124 -160 -145 -211 -248 -322 -299 -322 -9 0 -13 -5 -9 -11 4
-6 -1 -10 -12 -8 -27 4 -87 -11 -104 -26 -11 -10 -27 -11 -58 -5 -34 6 -51 3
-85 -13 -23 -12 -45 -26 -49 -31 -4 -6 -10 -4 -14 7 -8 21 -52 23 -60 2 -7
-16 -49 -21 -58 -6 -14 22 -104 -2 -128 -34 -5 -6 -12 -4 -18 5 -11 16 -6 -18
11 -75 29 -97 91 -366 114 -500 18 -98 18 -150 0 -75 -18 76 -92 281 -108 296
-4 4 -7 14 -7 21 0 14 -23 43 -34 43 -4 0 -3 -18 0 -40 4 -27 3 -40 -5 -40 -6
0 -11 5 -11 10 0 6 -5 10 -11 10 -8 0 -8 -4 0 -14 15 -18 -6 -56 -31 -56 -14
0 -17 -7 -14 -41 3 -33 -1 -43 -20 -56 -13 -8 -24 -23 -24 -33 0 -12 -9 -20
-22 -22 -13 -2 -22 -9 -20 -16 1 -6 -2 -12 -8 -12 -5 0 -10 -9 -10 -19 0 -11
-6 -21 -12 -24 -10 -4 -10 -7 0 -18 10 -11 5 -15 -30 -24 -29 -7 -44 -16 -46
-29 -5 -26 -52 -65 -79 -66 -14 0 -23 -6 -23 -15 0 -9 -9 -15 -24 -15 -16 0
-26 -7 -29 -21 -5 -17 -11 -20 -31 -17 -15 3 -31 0 -37 -8 -6 -7 -17 -10 -24
-7 -8 2 -28 -5 -44 -16 -16 -12 -35 -21 -43 -21 -8 0 -19 -5 -25 -11 -6 -6
-30 -12 -54 -14 -24 -2 -46 -4 -49 -5 -3 -1 -8 -2 -13 -1 -4 1 -22 -5 -40 -12
-19 -8 -40 -11 -52 -6 -11 4 -37 8 -57 8 -20 1 -40 6 -43 11 -3 6 -17 10 -31
10 -13 0 -32 4 -42 9 -19 11 -92 26 -107 22 -5 -2 -36 -7 -68 -13 -32 -6 -63
-16 -70 -22 -28 -28 -136 -26 -129 3 1 7 -17 20 -40 31 -39 17 -48 17 -95 5
-29 -8 -63 -23 -75 -35 -13 -12 -42 -30 -65 -40 -24 -10 -43 -24 -43 -29 0 -6
-6 -11 -13 -11 -7 0 -19 -16 -26 -37 -22 -59 -64 -123 -83 -123 -22 0 -25 16
-67 455 -24 238 -40 346 -86 565 -95 444 -278 813 -496 998 -41 35 -78 66 -84
70 -45 31 -100 68 -116 77 -10 5 -60 35 -110 65 -51 30 -133 75 -183 100 -127
63 -125 72 15 67 63 -3 104 -3 92 0 -25 5 -30 19 -10 26 20 7 47 -4 40 -17 -4
-6 5 -3 21 7 16 11 39 17 52 14 13 -2 24 0 24 4 0 5 -4 9 -9 9 -6 0 -16 12
-23 27 -9 19 -24 30 -50 36 -22 5 -38 15 -38 23 0 8 -10 14 -22 14 -35 0 -6
22 34 25 18 2 33 4 33 5 0 1 32 3 72 3 45 2 69 -2 65 -8 -3 -5 5 -3 18 6 14 9
50 17 80 19 108 5 150 8 158 10 4 1 11 2 15 1 4 -1 34 6 65 15 31 9 72 16 90
16 19 -1 30 3 27 8 -3 6 4 10 17 10 18 0 20 -2 8 -10 -12 -8 -11 -10 8 -10 13
0 22 6 22 15 0 23 44 29 210 26 182 -2 325 -1 395 4 28 1 54 0 60 -3 5 -3 16
-7 25 -8 8 -1 27 -5 43 -9 17 -5 27 -3 27 4 0 20 171 -18 238 -53 17 -9 40
-16 52 -16 11 0 20 -4 20 -10 0 -5 25 -17 55 -25 30 -9 55 -20 55 -25 0 -5 7
-7 15 -4 8 4 15 1 15 -6 0 -6 4 -9 9 -6 4 3 16 -3 26 -14 10 -11 21 -17 26
-15 4 3 13 0 21 -7 7 -7 31 -26 52 -42 79 -59 184 -175 314 -349 126 -167 170
-219 141 -166 -18 35 -218 336 -232 351 -7 7 -26 32 -43 56 -63 86 -144 164
-228 219 -44 30 -289 133 -315 133 -6 0 -26 7 -45 17 -29 13 -37 24 -48 66 -7
27 -18 52 -25 54 -15 6 -18 54 -4 68 5 6 14 26 19 45 6 19 25 76 42 125 18 50
39 125 46 168 7 44 20 87 30 98 9 10 14 25 11 33 -4 9 -2 18 3 21 6 4 10 -23
10 -66 0 -40 5 -88 12 -106 10 -28 9 -38 -5 -62 -9 -16 -17 -39 -17 -51 0 -12
-4 -29 -10 -39 -11 -22 18 -71 30 -50 5 6 20 13 34 15 21 2 26 -2 26 -19 0
-30 -39 -65 -51 -46 -7 12 -11 11 -19 -1 -14 -21 -12 -30 4 -30 8 0 17 -7 20
-16 8 -20 -2 -54 -15 -54 -5 0 -9 -12 -9 -26 0 -21 4 -24 20 -19 10 3 28 1 39
-4 17 -9 23 -7 38 19 9 16 24 31 33 31 8 1 22 2 31 3 9 1 26 9 36 19 43 38
163 51 183 20 8 -13 13 -14 16 -5 3 6 13 12 22 12 10 0 23 9 30 20 7 11 18 20
25 20 18 0 67 24 67 33 0 4 6 7 14 7 8 0 24 12 35 26 15 19 21 22 21 10 0 -12
12 -8 55 20 31 19 60 32 65 29 13 -8 120 41 120 54 0 6 6 11 13 11 8 0 20 19
27 43 7 23 21 69 31 101 26 83 25 88 -15 85 -19 -2 -40 2 -47 8 -26 20 -54 23
-83 8 -39 -21 -56 -19 -56 6 0 21 -1 21 -33 -4 -21 -16 -49 -26 -77 -28 -62
-4 -87 6 -95 41 -3 16 -12 34 -20 40 -17 14 -16 65 2 107 7 18 13 48 13 68 0
20 7 49 15 65 8 16 17 43 18 60 2 16 7 33 10 37 12 11 8 23 -8 23 -8 0 -15 7
-15 15 0 8 -6 15 -13 15 -20 0 -88 -60 -98 -87 -5 -13 -17 -26 -26 -30 -10 -4
-32 -22 -49 -40 -17 -18 -36 -33 -42 -33 -6 0 -16 -9 -22 -20 -6 -11 -20 -25
-32 -31 -19 -10 -25 -8 -44 15 -13 14 -28 26 -35 26 -14 0 -79 -70 -79 -86 0
-6 -7 -17 -15 -24 -8 -7 -15 -21 -15 -31 0 -10 -5 -21 -11 -25 -9 -5 -10 6 -5
42 5 27 9 64 10 82 2 18 15 51 30 73 14 23 26 45 26 50 0 5 5 9 10 9 6 0 10 9
10 20 0 11 7 23 15 26 8 4 13 10 10 14 -8 13 157 156 226 195 35 20 224 167
228 178 2 6 -12 8 -40 4 -24 -3 -52 -1 -63 6 -24 12 -77 23 -186 38 -41 6 -80
15 -86 20 -7 5 -30 7 -53 3 -33 -5 -42 -3 -47 10 -4 11 -17 16 -38 15 -57 -1
-137 10 -151 21 -7 6 -25 8 -39 4 -14 -3 -37 0 -53 8 -16 8 -39 11 -53 8 -14
-4 -30 -3 -37 3 -7 5 -29 11 -50 14 -110 14 -227 35 -244 43 -9 5 -26 6 -37 3
-12 -3 -31 2 -43 11 -13 9 -32 13 -45 10 -13 -3 -37 1 -53 9 -17 8 -40 13 -51
10 -11 -3 -26 -1 -33 5 -6 6 -35 10 -62 10 -33 0 -53 5 -59 15 -7 12 -16 13
-38 5 -23 -8 -33 -7 -48 7 -11 10 -26 14 -39 10 -11 -3 -34 1 -52 10 -22 12
-35 13 -42 6 -7 -7 -16 -7 -29 0 -10 5 -22 7 -27 4 -5 -3 -11 0 -13 7 -3 7
-22 13 -44 15 -21 1 -59 5 -84 8 -25 4 -56 8 -70 10 -14 1 -32 5 -40 9 -24 9
-213 39 -324 50 -32 3 -62 8 -66 11 -5 3 -37 8 -71 11 -34 2 -67 8 -73 12 -6
4 -22 8 -36 9 -66 5 -124 12 -225 27 -60 9 -124 16 -142 16 -67 0 -63 -5 201
-260 143 -138 225 -238 268 -328 17 -37 34 -69 37 -72 3 -3 11 -18 17 -35 19
-49 94 -228 109 -262 8 -17 15 -34 15 -37 0 -3 12 -31 26 -63 41 -94 87 -199
121 -283 37 -91 49 -104 103 -116 28 -7 65 -19 83 -27 39 -19 176 -49 188 -41
5 3 9 -2 9 -10 0 -15 32 -22 85 -18 16 2 17 0 5 -8 -13 -8 -12 -10 5 -11 52
-3 98 -20 113 -41 7 -10 24 -18 37 -18 14 0 38 -13 55 -30 17 -17 28 -30 26
-30 -3 0 -1 -11 4 -25 6 -16 6 -26 -1 -31 -8 -4 -7 -9 1 -14 8 -5 3 -10 -14
-14 -15 -4 -24 -11 -21 -17 4 -5 -7 -14 -24 -20 -21 -8 -28 -15 -24 -26 4 -10
2 -14 -4 -10 -5 4 -61 -7 -124 -24 -63 -16 -130 -34 -149 -38 -19 -5 -89 -25
-155 -46 -66 -20 -196 -56 -290 -80 -128 -33 -159 -44 -127 -44 31 -1 42 -5
42 -17 0 -9 -5 -12 -11 -8 -11 7 -219 6 -273 -1 -31 -4 -58 3 -52 14 3 4 -8
12 -24 20 -16 7 -32 21 -35 32 -4 10 -13 19 -21 19 -8 0 -14 4 -14 8 0 5 -13
24 -30 43 -82 94 -103 164 -50 164 34 0 72 -19 112 -56 18 -17 49 -43 68 -57
19 -15 40 -33 46 -41 15 -19 78 -16 115 6 17 10 40 34 50 53 11 19 30 53 43
75 29 48 41 116 26 145 -11 21 -52 49 -139 96 -30 16 -57 39 -62 52 -14 37 -9
95 11 127 49 78 53 93 37 128 -8 17 -20 57 -27 87 -7 30 -16 60 -20 65 -4 6
-11 30 -15 55 -11 67 -55 176 -87 215 -5 6 -26 38 -47 71 -54 85 -185 214
-351 345 -233 185 -350 264 -408 275 -18 4 -35 11 -38 15 -6 10 -64 12 -88 3
-8 -3 -34 -31 -57 -62 -40 -53 -85 -102 -94 -102 -10 0 -92 -60 -107 -79 -9
-11 -41 -55 -70 -98 -29 -42 -86 -109 -125 -148 -55 -54 -73 -78 -73 -99 0
-31 77 -191 117 -242 55 -70 163 -136 558 -344 231 -122 250 -136 374 -266
123 -130 138 -191 69 -270 -52 -59 -84 -48 -173 59 -27 32 -67 68 -89 79 -23
12 -54 31 -71 44 -34 25 -254 127 -300 138 -29 7 -177 64 -242 92 -17 8 -34
14 -38 14 -4 0 -21 6 -38 14 -18 7 -57 23 -87 36 -30 12 -82 35 -115 50 -72
32 -159 60 -189 60 -13 0 -26 3 -29 6 -3 4 -22 8 -42 9 -31 2 -35 -1 -35 -23
0 -21 70 -146 91 -162 4 -3 17 -21 30 -40 13 -19 42 -60 65 -90 82 -112 250
-369 336 -515 19 -33 65 -110 101 -170 36 -61 69 -120 73 -130 7 -17 73 -122
96 -150 5 -5 26 -33 47 -61 22 -27 55 -57 73 -66 18 -8 62 -29 98 -47 38 -19
66 -28 68 -22 7 20 22 11 22 -12 0 -16 9 -28 25 -35 31 -14 32 -6 4 17 -20 16
-21 18 -4 35 28 28 144 22 390 -20 129 -21 365 -101 410 -137 6 -4 41 -26 80
-49 61 -36 235 -193 235 -212 0 -4 13 -24 29 -44 48 -61 127 -209 160 -302 7
-19 17 -44 22 -55 5 -11 13 -42 18 -70 5 -27 17 -86 26 -130 9 -44 18 -91 20
-105 32 -221 61 -346 100 -425 40 -83 114 -160 145 -152 14 4 20 0 20 -11 1
-15 2 -15 14 0 7 10 16 15 19 11 19 -18 -5 -117 -36 -154 -20 -22 -64 -24 -92
-4 -81 59 -125 102 -171 165 -54 75 -105 159 -110 183 -3 17 -71 115 -99 142
-24 25 -61 45 -82 45 -51 0 -53 -134 -8 -425 7 -45 10 -70 20 -172 6 -53 5
-73 -4 -73 -6 0 -11 -7 -11 -15 0 -9 -10 -15 -26 -15 -28 0 -94 28 -94 40 0 4
-12 20 -27 36 -15 16 -32 52 -39 79 -7 28 -20 75 -29 105 -8 30 -20 73 -25 95
-65 284 -120 460 -181 586 -21 44 -39 82 -39 86 0 12 -117 210 -190 323 -121
186 -324 405 -481 517 -47 34 -92 69 -99 77 -7 9 -21 16 -32 16 -25 0 -20 -20
34 -125 33 -64 133 -218 176 -270 5 -6 17 -24 27 -40 10 -17 32 -44 48 -62 17
-18 40 -48 51 -67 184 -308 175 -283 250 -676 37 -193 45 -310 22 -310 -13 0
-53 49 -136 170 -42 61 -87 110 -93 103 -3 -2 -10 5 -17 16 -6 12 -17 21 -25
21 -8 0 -20 8 -27 19 -7 10 -29 26 -48 36 -19 10 -37 21 -40 24 -3 4 -21 15
-42 24 -41 19 -120 82 -112 90 3 3 -1 20 -9 38 -8 19 -24 97 -36 174 -12 77
-31 185 -42 240 -47 234 -56 259 -92 263 -15 2 -37 -4 -49 -12 -28 -20 -58
-21 -58 -1 0 8 -4 15 -10 15 -5 0 -19 18 -30 40 -28 55 -89 112 -136 128 -99
34 -260 95 -264 101 -3 3 -17 12 -32 20 -16 8 -28 18 -28 23 0 4 -9 8 -20 8
-11 0 -27 11 -36 25 -9 14 -23 25 -30 25 -8 0 -14 4 -14 9 0 4 -17 20 -37 33
-21 14 -49 36 -63 50 -14 13 -38 32 -53 41 -15 10 -31 26 -35 35 -3 9 -17 26
-30 36 -13 10 -52 48 -85 83 -34 36 -88 91 -119 124 -32 32 -58 60 -58 63 0 5
-105 116 -170 181 -22 22 -40 45 -40 50 0 13 -36 45 -50 45 -6 0 -10 5 -10 10
0 6 -20 32 -44 58 -24 26 -60 65 -81 87 -20 22 -44 50 -52 63 -8 12 -22 22
-29 22 -8 0 -14 3 -14 8 0 4 -16 24 -35 45 -18 20 -46 53 -61 72 -14 19 -33
35 -40 35 -8 0 -14 5 -14 10 0 6 -6 10 -14 10 -7 0 -16 9 -19 21 -3 11 -15 23
-26 26 -12 3 -21 10 -21 15 0 25 -201 238 -224 238 -9 0 -16 6 -16 13 0 6 -18
23 -40 37 -22 13 -40 30 -40 38 0 8 -7 20 -16 26 -18 13 -33 74 -34 131 0 22
-8 56 -19 75 -15 28 -28 37 -77 52 -32 10 -65 15 -73 13 -26 -10 -101 6 -101
21 0 8 -4 14 -10 14 -23 0 -5 53 33 92 9 10 17 22 17 27 0 6 16 27 35 48 45
49 53 73 29 90 -11 8 -28 16 -39 18 -244 46 -266 60 -225 138 13 24 39 54 57
67 23 16 33 30 31 44 -3 20 -34 33 -128 51 -61 12 -134 35 -139 44 -4 5 -19
14 -34 20 -15 6 -27 14 -27 19 0 10 81 72 94 72 16 0 67 50 61 59 -2 5 -19 14
-37 22 -55 22 -108 74 -108 104 0 39 21 55 138 106 67 29 83 53 44 67 -41 16
-93 30 -137 37 -36 5 -155 38 -195 53 -21 7 -21 8 -52 16 -16 5 -28 14 -28 21
0 18 76 26 211 23 77 -2 110 1 122 11 15 12 8 19 -61 65 -42 29 -100 65 -129
81 -52 28 -73 53 -53 65 21 13 200 1 231 -16 17 -8 34 -13 37 -9 11 11 -62
137 -100 173 -65 59 -265 212 -305 234 -14 7 -23 20 -23 35 0 22 3 24 30 18
33 -7 149 -69 178 -95 59 -51 151 -114 158 -107 3 2 0 25 -6 51 -5 25 -8 70
-6 100 2 30 0 60 -5 68 -6 9 -9 5 -9 -13 0 -15 -6 -32 -14 -38 -12 -10 -22 -2
-57 41 -37 46 -74 81 -199 189 -14 12 -36 29 -50 38 -14 9 -38 27 -53 41 -79
70 -383 234 -607 328 -52 22 -102 42 -110 46 -30 13 -118 72 -151 101 -33 29
-48 47 -114 131 -16 21 -40 49 -52 61 -13 13 -23 27 -23 30 0 4 -9 16 -19 27
-33 36 -71 114 -68 138 9 59 100 18 211 -96 43 -44 104 -107 135 -138 31 -32
60 -58 65 -58 5 0 19 -8 30 -19 35 -32 209 -128 467 -257 136 -68 282 -147
326 -176 96 -65 202 -171 245 -247 l33 -56 3 32 c5 47 -27 100 -104 174 -77
73 -175 149 -192 149 -7 0 -12 5 -12 10 0 6 -6 10 -12 10 -7 0 -40 25 -73 56
-33 30 -78 67 -100 82 -60 41 -133 116 -140 145 -9 36 20 50 77 37 58 -13 68
-12 68 3 0 43 -81 137 -242 283 -33 30 -48 53 -58 90 -30 110 -152 233 -337
341 -64 37 -82 53 -80 68 2 18 9 20 67 18 143 -5 314 -50 485 -128 90 -41 158
-94 271 -211 126 -131 199 -236 258 -377 16 -38 32 -65 37 -60 19 19 -38 211
-97 327 -129 255 -290 408 -709 676 -169 107 -179 113 -337 192 -118 58 -140
75 -119 87 14 9 138 2 171 -9z m6010 -818 c0 -5 24 -8 53 -8 58 1 164 -10 247
-24 30 -5 90 -14 133 -21 42 -6 77 -16 77 -20 0 -5 7 -9 16 -9 13 0 37 -14
111 -65 2 -1 -16 -23 -40 -48 -53 -58 -127 -85 -214 -80 -206 12 -350 40 -385
74 -9 10 -31 20 -48 24 -16 4 -30 12 -30 18 0 7 -19 20 -41 29 -27 12 -39 22
-36 31 3 8 -3 20 -14 28 -10 7 -19 21 -19 31 0 18 34 43 48 34 5 -3 87 4 135
13 4 0 7 -3 7 -7z m7523 -1040 c10 -8 58 -16 126 -19 61 -3 111 -10 111 -16 0
-5 7 -6 16 -3 9 4 23 1 30 -5 8 -6 32 -12 54 -13 22 0 40 -3 40 -7 0 -3 6 -6
13 -6 27 0 162 -35 186 -48 14 -8 43 -17 64 -20 28 -4 37 -11 37 -25 0 -11 -4
-20 -10 -20 -5 0 -10 -9 -10 -20 0 -11 -4 -20 -10 -20 -5 0 -10 9 -10 20 0 15
-7 20 -29 20 -16 0 -36 2 -44 6 -8 3 -28 -6 -45 -20 -32 -28 -97 -36 -105 -13
-3 10 -9 10 -26 0 -25 -15 -71 -17 -71 -3 0 15 -78 12 -82 -2 -3 -9 -15 -4
-35 13 -26 22 -46 28 -115 33 -58 5 -89 13 -103 26 -11 10 -36 20 -55 23 -79
13 -131 24 -137 30 -3 4 1 7 9 7 26 0 7 54 -20 58 -13 2 -22 11 -22 20 0 15
14 17 114 17 78 0 118 -4 129 -13z m-243 -62 c0 -18 -2 -19 -20 -8 -11 7 -20
16 -20 20 0 5 9 8 20 8 13 0 20 -7 20 -20z m-6190 -2334 c-12 -20 -26 -33 -32
-30 -5 3 -2 14 8 25 9 10 14 19 10 19 -4 0 -2 9 5 21 7 15 14 18 21 11 7 -7 4
-22 -12 -46z m392 2 c6 -16 80 -20 91 -5 15 21 -5 -57 -21 -85 -13 -23 -24
-28 -53 -28 -24 0 -39 -5 -43 -15 -3 -8 -1 -15 4 -15 6 0 10 -10 10 -23 0 -13
5 -28 11 -34 23 -23 -32 -100 -87 -120 -133 -50 -206 -31 -147 38 8 9 13 20
12 25 -6 32 3 54 20 54 15 0 19 -6 18 -26 -3 -39 19 -41 42 -4 10 17 23 32 27
32 18 1 34 10 34 20 0 5 -10 6 -22 3 -13 -4 -31 -9 -40 -11 -10 -3 -18 -1 -18
5 0 6 8 11 18 11 17 0 29 19 64 105 28 70 69 107 80 73z m5977 -57 c20 -13 0
-99 -50 -215 -42 -97 -68 -132 -93 -123 -20 8 -20 30 -1 93 8 27 15 57 15 66
0 31 41 128 67 158 26 31 39 36 62 21z m-6300 -37 c-15 -41 -21 -47 -29 -33
-9 13 16 59 31 59 5 0 4 -12 -2 -26z m6411 -18 c0 -106 -86 -306 -131 -306
-24 0 -25 37 -4 106 9 27 21 65 26 84 25 80 70 160 90 160 16 0 19 -7 19 -44z
m130 -30 c0 -40 -53 -215 -77 -257 -18 -30 -53 -47 -72 -34 -35 21 34 252 97
327 22 27 52 6 52 -36z m137 -12 c14 -38 -92 -314 -121 -314 -32 0 -38 27 -28
107 12 87 32 142 68 191 27 35 70 44 81 16z m-6417 -278 c0 -8 -4 -17 -9 -21
-12 -7 -24 12 -16 25 9 15 25 12 25 -4z m806 -2378 c-10 -6 -20 -7 -24 -3 -9
8 20 25 31 18 5 -3 2 -10 -7 -15z m-1026 -1397 c0 -6 -4 -13 -10 -16 -5 -3
-10 1 -10 9 0 9 5 16 10 16 6 0 10 -4 10 -9z"/>
<path d="M4435 8564 c1 -36 22 -81 54 -116 69 -77 45 27 -26 111 l-29 33 1
-28z"/>
<path d="M12185 6885 c-59 -22 -114 -72 -136 -122 -20 -47 -18 -63 8 -63 18 0
231 73 265 91 48 24 107 64 108 72 1 29 -183 45 -245 22z"/>
<path d="M12750 6433 c-85 -14 -203 -66 -265 -118 -25 -20 -28 -28 -19 -42 17
-28 87 -27 184 1 47 14 129 38 183 53 53 14 97 30 97 34 0 22 -121 85 -150 78
-3 -1 -16 -4 -30 -6z"/>
<path d="M10350 6190 c0 -5 5 -10 10 -10 6 0 10 5 10 10 0 6 -4 10 -10 10 -5
0 -10 -4 -10 -10z"/>
<path d="M10550 6055 c-7 -8 -9 -19 -5 -25 3 -5 -7 -15 -22 -22 -43 -18 -63
-39 -63 -64 0 -18 5 -22 23 -20 12 2 29 6 38 10 8 4 29 1 45 -5 16 -7 36 -13
45 -14 9 -1 21 -5 28 -9 15 -10 35 42 22 58 -6 7 -8 24 -6 38 4 22 0 28 -25
36 -16 6 -30 15 -30 19 0 14 -38 13 -50 -2z"/>
<path d="M10700 6056 c0 -2 6 -16 14 -30 11 -22 15 -24 20 -11 11 30 6 45 -14
45 -11 0 -20 -2 -20 -4z"/>
<path d="M12981 5885 c-89 -33 -100 -47 -31 -40 30 3 92 10 138 14 46 5 86 12
90 16 4 4 -2 13 -12 21 -29 21 -112 16 -185 -11z"/>
<path d="M12868 5833 c7 -3 16 -2 19 1 4 3 -2 6 -13 5 -11 0 -14 -3 -6 -6z"/>
<path d="M8640 5730 c0 -5 6 -10 14 -10 8 0 18 5 21 10 3 6 -3 10 -14 10 -12
0 -21 -4 -21 -10z"/>
<path d="M8655 5580 c3 -5 21 -10 38 -10 24 0 28 3 17 10 -20 13 -63 13 -55 0z"/>
<path d="M11360 5145 c0 -14 25 -55 36 -59 21 -8 17 17 -6 42 -20 21 -30 27
-30 17z"/>
<path d="M240 13749 c0 -5 5 -7 10 -4 6 3 10 8 10 11 0 2 -4 4 -10 4 -5 0 -10
-5 -10 -11z"/>
<path d="M2591 13338 c-24 -8 -21 -22 8 -38 14 -7 24 -5 40 9 11 10 21 21 21
24 0 10 -47 14 -69 5z"/>
<path d="M2687 13320 c-4 -15 0 -20 14 -20 21 0 22 1 13 24 -8 22 -21 20 -27
-4z"/>
<path d="M16780 4311 c0 -6 5 -13 10 -16 6 -3 10 1 10 9 0 9 -4 16 -10 16 -5
0 -10 -4 -10 -9z"/>
</g>
</svg>
