<?xml version="1.0" encoding="UTF-8"?>
<!DOCTYPE svg PUBLIC "-//W3C//DTD SVG 1.1//EN" "http://www.w3.org/Graphics/SVG/1.1/DTD/svg11.dtd">
<svg xmlns="http://www.w3.org/2000/svg" version="1.1" width="500px" height="500px" style="shape-rendering:geometricPrecision; text-rendering:geometricPrecision; image-rendering:optimizeQuality; fill-rule:evenodd; clip-rule:evenodd" xmlns:xlink="http://www.w3.org/1999/xlink">
<g><path style="opacity:1" fill="#3e3e3e" d="M 316.5,97.5 C 315.432,98.4345 314.099,98.7678 312.5,98.5C 275.728,84.5471 238.394,82.8805 200.5,93.5C 201.591,91.4658 203.257,90.1324 205.5,89.5C 213.878,86.9312 222.545,85.0979 231.5,84C 261.218,80.7515 289.552,85.2515 316.5,97.5 Z"/></g>
<g><path style="opacity:0.997" fill="#434343" d="M 205.5,89.5 C 203.257,90.1324 201.591,91.4658 200.5,93.5C 186.224,98.8043 172.557,105.471 159.5,113.5C 158.833,112.833 158.167,112.167 157.5,111.5C 171.932,100.954 187.932,93.6204 205.5,89.5 Z"/></g>
<g><path style="opacity:0.997" fill="#464646" d="M 316.5,97.5 C 327.875,101.911 338.208,107.911 347.5,115.5C 346.5,115.833 345.833,116.5 345.5,117.5C 334.954,110.393 323.954,104.06 312.5,98.5C 314.099,98.7678 315.432,98.4345 316.5,97.5 Z"/></g>
<g><path style="opacity:0.988" fill="#96827a" d="M 253.5,104.5 C 255.924,104.192 258.257,104.526 260.5,105.5C 258.476,107.739 258.642,110.072 261,112.5C 262.202,110.323 262.702,107.989 262.5,105.5C 264.288,105.215 265.955,105.548 267.5,106.5C 265,110.833 262.5,115.167 260,119.5C 258.842,119.002 258.009,118.169 257.5,117C 256.459,112.712 255.126,108.545 253.5,104.5 Z"/></g>
<g><path style="opacity:1" fill="#444444" d="M 157.5,111.5 C 158.167,112.167 158.833,112.833 159.5,113.5C 143.249,124.417 129.249,137.75 117.5,153.5C 116.89,152.609 116.557,151.609 116.5,150.5C 127.258,134.408 140.925,121.408 157.5,111.5 Z"/></g>
<g><path style="opacity:0.996" fill="#725952" d="M 233.5,110.5 C 233.833,110.5 234.167,110.5 234.5,110.5C 235.117,110.389 235.617,110.056 236,109.5C 236.765,111.066 236.598,112.399 235.5,113.5C 235.167,113.5 234.833,113.5 234.5,113.5C 234.167,112.167 233.833,112.167 233.5,113.5C 233.762,114.978 233.429,116.311 232.5,117.5C 231.83,115.709 231.163,114.042 230.5,112.5C 230.5,112.167 230.5,111.833 230.5,111.5C 231.015,105.587 232.015,105.253 233.5,110.5 Z"/></g>
<g><path style="opacity:0.902" fill="#927b75" d="M 204.5,110.5 C 210.651,108.844 214.317,111.01 215.5,117C 213.854,123.321 209.854,125.821 203.5,124.5C 204.369,120.423 203.369,116.757 200.5,113.5C 201.624,112.141 202.958,111.141 204.5,110.5 Z M 206.5,112.5 C 210.827,113.48 212.327,116.147 211,120.5C 210,121.833 209,121.833 208,120.5C 206.921,117.937 206.421,115.271 206.5,112.5 Z"/></g>
<g><path style="opacity:0.999" fill="#474747" d="M 347.5,115.5 C 370.687,131.686 388.021,152.686 399.5,178.5C 398.167,178.5 397.5,179.167 397.5,180.5C 385.128,155.433 367.795,134.433 345.5,117.5C 345.833,116.5 346.5,115.833 347.5,115.5 Z"/></g>
<g><path style="opacity:0.937" fill="#ad9c96" d="M 230.5,112.5 C 231.163,114.042 231.83,115.709 232.5,117.5C 233.429,116.311 233.762,114.978 233.5,113.5C 233.833,113.5 234.167,113.5 234.5,113.5C 234.494,116.548 235.494,117.048 237.5,115C 236.584,114.722 235.918,114.222 235.5,113.5C 236.598,112.399 236.765,111.066 236,109.5C 235.617,110.056 235.117,110.389 234.5,110.5C 234.577,109.25 235.244,108.417 236.5,108C 235.552,107.517 234.552,107.351 233.5,107.5C 233.5,108.5 233.5,109.5 233.5,110.5C 232.015,105.253 231.015,105.587 230.5,111.5C 229.694,110.003 229.028,108.336 228.5,106.5C 231.654,104.974 234.987,104.307 238.5,104.5C 238.557,106.884 238.223,109.218 237.5,111.5C 239.849,113.204 240.849,115.537 240.5,118.5C 236.762,119.079 233.096,119.079 229.5,118.5C 230.348,116.591 230.682,114.591 230.5,112.5 Z M 234.5,113.5 C 234.833,113.5 235.167,113.5 235.5,113.5C 235.918,114.222 236.584,114.722 237.5,115C 235.494,117.048 234.494,116.548 234.5,113.5 Z M 234.5,110.5 C 234.167,110.5 233.833,110.5 233.5,110.5C 233.5,109.5 233.5,108.5 233.5,107.5C 234.552,107.351 235.552,107.517 236.5,108C 235.244,108.417 234.577,109.25 234.5,110.5 Z"/></g>
<g><path style="opacity:0.959" fill="#947e7a" d="M 281.5,108.5 C 283.5,108.833 285.5,109.167 287.5,109.5C 285.58,113.26 284.247,117.26 283.5,121.5C 285.484,121.617 287.15,120.95 288.5,119.5C 289.82,121.864 289.154,123.531 286.5,124.5C 283.275,123.816 280.275,122.649 277.5,121C 280.883,117.556 282.216,113.39 281.5,108.5 Z"/></g>
<g><path style="opacity:0.831" fill="#988380" d="M 305.5,119.5 C 311.518,118.191 315.185,120.524 316.5,126.5C 314.164,133.727 309.664,135.393 303,131.5C 300.696,126.855 301.529,122.855 305.5,119.5 Z M 309.5,121.5 C 313.172,123.599 313.506,126.265 310.5,129.5C 307.749,132.455 306.082,131.955 305.5,128C 306.207,125.413 307.541,123.246 309.5,121.5 Z"/></g>
<g><path style="opacity:0.906" fill="#98807a" d="M 167.5,129.5 C 170.484,129.787 171.817,131.454 171.5,134.5C 176.068,134.083 177.568,136.083 176,140.5C 173.925,143.961 171.092,145.294 167.5,144.5C 167.709,143.914 168.043,143.414 168.5,143C 166.5,139.667 163.833,137 160.5,135C 162.903,133.147 165.236,131.314 167.5,129.5 Z M 166.5,134.5 C 166.56,133.957 166.893,133.624 167.5,133.5C 168.583,134.365 168.749,135.365 168,136.5C 167.722,135.584 167.222,134.918 166.5,134.5 Z M 169.5,137.5 C 173.161,137.426 173.828,138.426 171.5,140.5C 170.081,139.995 169.415,138.995 169.5,137.5 Z"/></g>
<g><path style="opacity:1" fill="#424242" d="M 273.5,138.5 C 272.081,139.451 270.415,139.784 268.5,139.5C 255.502,138.194 242.502,138.194 229.5,139.5C 227.901,139.768 226.568,139.434 225.5,138.5C 233.268,136.942 241.268,136.276 249.5,136.5C 257.732,136.276 265.732,136.942 273.5,138.5 Z"/></g>
<g><path style="opacity:1" fill="#4a4a4a" d="M 273.5,138.5 C 291.127,141.815 306.794,149.149 320.5,160.5C 320.631,161.239 320.464,161.906 320,162.5C 319.329,161.748 318.496,161.414 317.5,161.5C 302.711,150.603 286.378,143.27 268.5,139.5C 270.415,139.784 272.081,139.451 273.5,138.5 Z"/></g>
<g><path style="opacity:0.851" fill="#98817e" d="M 330.5,132.5 C 333.944,134.108 336.61,136.608 338.5,140C 337.407,144.206 334.74,145.539 330.5,144C 330,143.5 329.5,143 329,142.5C 328.369,143.872 327.702,145.205 327,146.5C 325.04,145.708 323.54,144.375 322.5,142.5C 326.605,139.793 329.271,136.46 330.5,132.5 Z M 332.5,137.5 C 335.041,138.623 335.041,139.956 332.5,141.5C 331.374,140.192 331.374,138.858 332.5,137.5 Z"/></g>
<g><path style="opacity:1" fill="#4a4a4a" d="M 225.5,138.5 C 226.568,139.434 227.901,139.768 229.5,139.5C 207.918,144.124 188.918,153.791 172.5,168.5C 172.158,167.662 171.492,167.328 170.5,167.5C 185.793,152.35 204.127,142.684 225.5,138.5 Z"/></g>
<g><path style="opacity:0.997" fill="#484848" d="M 116.5,150.5 C 116.557,151.609 116.89,152.609 117.5,153.5C 109.789,164.922 103.122,176.922 97.5,189.5C 97.7148,187.821 97.0481,186.821 95.5,186.5C 100.471,173.211 107.471,161.211 116.5,150.5 Z"/></g>
<g><path style="opacity:0.986" fill="#9c8780" d="M 148.5,145.5 C 150.594,147.559 152.428,149.893 154,152.5C 156.291,151.689 158.125,152.523 159.5,155C 156.983,157.349 154.65,159.849 152.5,162.5C 150.378,159.876 148.045,157.376 145.5,155C 144.552,154.517 143.552,154.351 142.5,154.5C 142.351,153.448 142.517,152.448 143,151.5C 145.04,149.63 146.873,147.63 148.5,145.5 Z M 147.5,149.5 C 150.907,149.125 151.407,150.125 149,152.5C 147.961,151.756 147.461,150.756 147.5,149.5 Z M 154.5,153.5 C 155.774,154.189 155.774,155.023 154.5,156C 153.275,156.563 152.275,156.23 151.5,155C 152.737,154.768 153.737,154.268 154.5,153.5 Z"/></g>
<g><path style="opacity:0.971" fill="#9d8883" d="M 349.5,150.5 C 350.496,150.414 351.329,150.748 352,151.5C 353.515,153.677 355.015,155.844 356.5,158C 356.355,158.772 356.022,159.439 355.5,160C 353.782,160.346 352.115,160.846 350.5,161.5C 350.716,163.899 349.549,165.899 347,167.5C 344.128,164.963 341.628,162.13 339.5,159C 343.978,158.062 347.311,155.229 349.5,150.5 Z M 350.5,157.5 C 351.658,154.866 352.658,155.033 353.5,158C 352.423,158.47 351.423,158.303 350.5,157.5 Z M 346.5,159.5 C 347.239,159.369 347.906,159.536 348.5,160C 347.888,161.303 347.554,162.47 347.5,163.5C 345.358,162.563 345.024,161.23 346.5,159.5 Z"/></g>
<g><path style="opacity:0.788" fill="#b09e9b" d="M 139.5,173.5 C 137.716,174.72 136.05,174.72 134.5,173.5C 135.332,172.671 134.999,171.838 133.5,171C 132.552,170.517 131.552,170.351 130.5,170.5C 130.197,167.412 131.53,165.746 134.5,165.5C 134.351,166.552 134.517,167.552 135,168.5C 136.707,170.037 138.207,171.704 139.5,173.5 Z"/></g>
<g><path style="opacity:1" fill="#4a4a4a" d="M 170.5,167.5 C 171.492,167.328 172.158,167.662 172.5,168.5C 163.695,178.116 155.862,188.45 149,199.5C 148.5,199.167 148,198.833 147.5,198.5C 153.296,186.715 160.962,176.381 170.5,167.5 Z"/></g>
<g><path style="opacity:0.982" fill="#816660" d="M 133.5,173.5 C 133.833,173.5 134.167,173.5 134.5,173.5C 136.05,174.72 137.716,174.72 139.5,173.5C 141.446,174.254 142.279,175.588 142,177.5C 140.224,178.536 138.391,178.536 136.5,177.5C 134.407,176.006 132.241,175.339 130,175.5C 129.833,175.167 129.667,174.833 129.5,174.5C 130.689,173.571 132.022,173.238 133.5,173.5 Z"/></g>
<g><path style="opacity:0.98" fill="#99837c" d="M 364.5,171.5 C 366.888,172.219 368.388,173.885 369,176.5C 370.753,182.253 368.586,184.919 362.5,184.5C 361.754,185.736 361.421,187.07 361.5,188.5C 358.315,188.278 357.315,186.778 358.5,184C 356.269,182.723 354.602,180.889 353.5,178.5C 356.947,177.277 360.28,175.777 363.5,174C 364.252,173.329 364.586,172.496 364.5,171.5 Z M 364.5,177.5 C 367.012,178.216 367.012,179.216 364.5,180.5C 361.955,179.451 361.955,178.451 364.5,177.5 Z"/></g>
<g><path style="opacity:0.737" fill="#b6a49e" d="M 133.5,173.5 C 132.022,173.238 130.689,173.571 129.5,174.5C 129.667,174.833 129.833,175.167 130,175.5C 132.241,175.339 134.407,176.006 136.5,177.5C 134.302,177.409 133.969,178.075 135.5,179.5C 134.166,181.461 132.5,181.461 130.5,179.5C 130.938,179.565 131.272,179.399 131.5,179C 125.51,173.717 126.177,171.883 133.5,173.5 Z"/></g>
<g><path style="opacity:1" fill="#414141" d="M 399.5,178.5 C 415.803,212.932 419.969,248.932 412,286.5C 410.496,293.509 408.33,300.175 405.5,306.5C 404.5,306.5 403.5,306.5 402.5,306.5C 417.065,263.854 415.398,221.854 397.5,180.5C 397.5,179.167 398.167,178.5 399.5,178.5 Z"/></g>
<g><path style="opacity:0.949" fill="#8e756e" d="M 130.5,179.5 C 132.5,181.461 134.166,181.461 135.5,179.5C 137.727,180.401 138.727,182.067 138.5,184.5C 133.523,183.673 128.523,183.006 123.5,182.5C 123.893,176.128 126.227,175.128 130.5,179.5 Z"/></g>
<g><path style="opacity:0.984" fill="#494949" d="M 320.5,160.5 C 333.334,171.343 343.667,184.177 351.5,199C 350.216,199.684 349.049,199.517 348,198.5C 340.582,183.914 330.416,171.581 317.5,161.5C 318.496,161.414 319.329,161.748 320,162.5C 320.464,161.906 320.631,161.239 320.5,160.5 Z"/></g>
<g><path style="opacity:1" fill="#414141" d="M 95.5,186.5 C 97.0481,186.821 97.7148,187.821 97.5,189.5C 82.3734,231.417 83.0401,273.084 99.5,314.5C 99.5,315.833 98.8333,316.5 97.5,316.5C 84.3348,286.522 80.1681,255.188 85,222.5C 86.994,210.022 90.494,198.022 95.5,186.5 Z"/></g>
<g><path style="opacity:1" fill="#363636" d="M 190.5,244.5 C 185.025,243.511 179.358,243.178 173.5,243.5C 173.187,247.042 173.521,250.375 174.5,253.5C 174.611,254.117 174.944,254.617 175.5,255C 173.167,255.667 170.833,255.667 168.5,255C 169,254.5 169.5,254 170,253.5C 170.667,246.5 170.667,239.5 170,232.5C 169.5,232 169,231.5 168.5,231C 170.833,230.333 173.167,230.333 175.5,231C 174.544,234.394 174.211,237.894 174.5,241.5C 179.833,241.5 185.167,241.5 190.5,241.5C 190.665,238.482 190.498,235.482 190,232.5C 189.5,232 189,231.5 188.5,231C 190.833,230.333 193.167,230.333 195.5,231C 194.167,239 194.167,247 195.5,255C 193.167,255.667 190.833,255.667 188.5,255C 189,254.5 189.5,254 190,253.5C 190.498,250.518 190.665,247.518 190.5,244.5 Z"/></g>
<g><path style="opacity:0.997" fill="#2b2b2b" d="M 226.5,231.5 C 226.427,233.027 227.094,234.027 228.5,234.5C 229.629,236.628 229.796,238.961 229,241.5C 228.578,243.426 227.411,244.426 225.5,244.5C 224.325,244.281 223.325,244.614 222.5,245.5C 222.624,246.107 222.957,246.44 223.5,246.5C 225.834,249.829 228.834,252.496 232.5,254.5C 230.102,255.724 227.769,255.558 225.5,254C 222.931,251.521 220.598,248.854 218.5,246C 215.854,245.503 213.187,245.336 210.5,245.5C 209.994,249.007 210.66,252.174 212.5,255C 210.167,255.667 207.833,255.667 205.5,255C 206.126,254.25 206.626,253.416 207,252.5C 207.167,249.5 207.333,246.5 207.5,243.5C 207.698,239.142 207.032,234.975 205.5,231C 212.58,230.205 219.58,230.372 226.5,231.5 Z M 212.5,233.5 C 216.637,233.146 220.637,233.646 224.5,235C 226.439,238.689 225.439,241.023 221.5,242C 217.848,242.499 214.182,242.665 210.5,242.5C 210.5,240.167 210.5,237.833 210.5,235.5C 211.5,235.167 212.167,234.5 212.5,233.5 Z"/></g>
<g><path style="opacity:1" fill="#3f3f3f" d="M 196.5,231.5 C 198.628,230.371 200.961,230.204 203.5,231C 202.167,239 202.167,247 203.5,255C 201.167,255.667 198.833,255.667 196.5,255C 197,254.5 197.5,254 198,253.5C 198.667,246.5 198.667,239.5 198,232.5C 197.617,231.944 197.117,231.611 196.5,231.5 Z"/></g>
<g><path style="opacity:1" fill="#2a2a2a" d="M 253.5,231.5 C 253.737,232.791 253.404,233.791 252.5,234.5C 248.253,233.398 243.92,233.232 239.5,234C 238.565,236.381 238.232,238.881 238.5,241.5C 241.167,241.5 243.833,241.5 246.5,241.5C 248.552,242.053 248.885,243.053 247.5,244.5C 244.5,244.5 241.5,244.5 238.5,244.5C 238.232,247.119 238.565,249.619 239.5,252C 243.821,252.499 248.154,252.666 252.5,252.5C 254.203,251.34 254.869,252.007 254.5,254.5C 254.5,254.833 254.5,255.167 254.5,255.5C 247.646,255.824 240.979,255.491 234.5,254.5C 234.815,246.58 234.482,238.747 233.5,231C 240.346,230.179 247.013,230.346 253.5,231.5 Z"/></g>
<g><path style="opacity:1" fill="#434343" d="M 283.5,247.5 C 281.952,247.821 281.285,248.821 281.5,250.5C 279.05,244.923 276.55,239.257 274,233.5C 273.237,240.882 273.403,248.216 274.5,255.5C 272.585,255.784 270.919,255.451 269.5,254.5C 269.5,246.5 269.5,238.5 269.5,230.5C 272.247,230.187 274.914,230.52 277.5,231.5C 280.076,236.646 282.076,241.979 283.5,247.5 Z"/></g>
<g><path style="opacity:1" fill="#434343" d="M 304.5,254.5 C 304.083,255.124 303.416,255.457 302.5,255.5C 301.287,255.253 300.62,254.586 300.5,253.5C 300.666,246.825 300.5,240.158 300,233.5C 296.928,240.884 293.762,248.218 290.5,255.5C 285.025,258.001 282.025,256.334 281.5,250.5C 281.285,248.821 281.952,247.821 283.5,247.5C 284.931,248.78 285.598,250.447 285.5,252.5C 286.5,252.5 287.5,252.5 288.5,252.5C 290.764,245.379 293.43,238.379 296.5,231.5C 299.086,230.52 301.753,230.187 304.5,230.5C 304.5,238.5 304.5,246.5 304.5,254.5 Z"/></g>
<g><path style="opacity:0.999" fill="#2b2b2b" d="M 327.5,231.5 C 327.737,232.791 327.404,233.791 326.5,234.5C 322.253,233.398 317.92,233.232 313.5,234C 312.565,236.381 312.232,238.881 312.5,241.5C 315.167,241.5 317.833,241.5 320.5,241.5C 322.552,242.053 322.885,243.053 321.5,244.5C 318.5,244.5 315.5,244.5 312.5,244.5C 312.232,247.119 312.565,249.619 313.5,252C 317.821,252.499 322.154,252.666 326.5,252.5C 328.203,251.34 328.869,252.007 328.5,254.5C 328.5,254.833 328.5,255.167 328.5,255.5C 321.646,255.824 314.979,255.491 308.5,254.5C 308.815,246.58 308.482,238.747 307.5,231C 314.346,230.179 321.013,230.346 327.5,231.5 Z"/></g>
<g><path style="opacity:0.004" fill="#dcdcdc" d="M 212.5,233.5 C 212.167,234.5 211.5,235.167 210.5,235.5C 210.5,234.167 211.167,233.5 212.5,233.5 Z"/></g>
<g><path style="opacity:0.529" fill="#919191" d="M 226.5,231.5 C 227.906,231.973 228.573,232.973 228.5,234.5C 227.094,234.027 226.427,233.027 226.5,231.5 Z"/></g>
<g><path style="opacity:0.8" fill="#909090" d="M 253.5,231.5 C 254.306,232.997 254.972,234.664 255.5,236.5C 253.917,237.312 252.917,236.645 252.5,234.5C 253.404,233.791 253.737,232.791 253.5,231.5 Z"/></g>
<g><path style="opacity:0.804" fill="#8c8c8c" d="M 327.5,231.5 C 328.306,232.997 328.972,234.664 329.5,236.5C 327.917,237.312 326.917,236.645 326.5,234.5C 327.404,233.791 327.737,232.791 327.5,231.5 Z"/></g>
<g><path style="opacity:0.553" fill="#888888" d="M 321.5,244.5 C 322.885,243.053 322.552,242.053 320.5,241.5C 321.172,240.733 322.005,240.066 323,239.5C 323.667,241.833 323.667,244.167 323,246.5C 322.283,245.956 321.783,245.289 321.5,244.5 Z"/></g>
<g><path style="opacity:0.625" fill="#727272" d="M 190.5,244.5 C 185.167,244.5 179.833,244.5 174.5,244.5C 174.5,247.5 174.5,250.5 174.5,253.5C 173.521,250.375 173.187,247.042 173.5,243.5C 179.358,243.178 185.025,243.511 190.5,244.5 Z"/></g>
<g><path style="opacity:0.543" fill="#919191" d="M 247.5,244.5 C 248.885,243.053 248.552,242.053 246.5,241.5C 247.172,240.733 248.005,240.066 249,239.5C 249.667,241.833 249.667,244.167 249,246.5C 248.283,245.956 247.783,245.289 247.5,244.5 Z"/></g>
<g><path style="opacity:0.459" fill="#989898" d="M 225.5,244.5 C 224.833,245.167 224.167,245.833 223.5,246.5C 222.957,246.44 222.624,246.107 222.5,245.5C 223.325,244.614 224.325,244.281 225.5,244.5 Z"/></g>
<g><path style="opacity:0.584" fill="#8c8c8c" d="M 254.5,254.5 C 254.869,252.007 254.203,251.34 252.5,252.5C 252.685,250.804 253.519,249.471 255,248.5C 255.789,250.712 255.622,252.712 254.5,254.5 Z"/></g>
<g><path style="opacity:0.576" fill="#888888" d="M 328.5,254.5 C 328.869,252.007 328.203,251.34 326.5,252.5C 326.685,250.804 327.519,249.471 329,248.5C 329.789,250.712 329.622,252.712 328.5,254.5 Z"/></g>
<g><path style="opacity:0.026" fill="#fbfbfb" d="M 234.5,254.5 C 240.979,255.491 247.646,255.824 254.5,255.5C 247.656,256.819 240.656,256.819 233.5,255.5C 233.624,254.893 233.957,254.56 234.5,254.5 Z"/></g>
<g><path style="opacity:0.024" fill="#f1f1f1" d="M 269.5,254.5 C 270.919,255.451 272.585,255.784 274.5,255.5C 272.636,256.793 270.636,256.793 268.5,255.5C 268.624,254.893 268.957,254.56 269.5,254.5 Z"/></g>
<g><path style="opacity:0.02" fill="#dedede" d="M 300.5,253.5 C 300.62,254.586 301.287,255.253 302.5,255.5C 303.416,255.457 304.083,255.124 304.5,254.5C 305.043,254.56 305.376,254.893 305.5,255.5C 303.604,256.466 301.604,256.799 299.5,256.5C 299.263,255.209 299.596,254.209 300.5,253.5 Z"/></g>
<g><path style="opacity:0.023" fill="#fbfbfb" d="M 308.5,254.5 C 314.979,255.491 321.646,255.824 328.5,255.5C 321.656,256.819 314.656,256.819 307.5,255.5C 307.624,254.893 307.957,254.56 308.5,254.5 Z"/></g>
<g><path style="opacity:0.91" fill="#937a73" d="M 382.5,254.5 C 383.649,254.791 384.316,255.624 384.5,257C 384.458,260.406 384.125,263.906 383.5,267.5C 381.808,266.031 379.808,265.365 377.5,265.5C 375.076,266.021 372.743,266.688 370.5,267.5C 370.163,263.692 370.663,260.026 372,256.5C 375.086,254.78 377.419,255.447 379,258.5C 380.627,257.468 381.793,256.134 382.5,254.5 Z M 373.5,259.5 C 375.346,259.222 376.68,259.889 377.5,261.5C 376.311,262.429 374.978,262.762 373.5,262.5C 373.5,261.5 373.5,260.5 373.5,259.5 Z M 381.5,260.5 C 382.773,261.077 382.773,261.743 381.5,262.5C 380.537,262.03 380.537,261.363 381.5,260.5 Z"/></g>
<g><path style="opacity:0.969" fill="#977e79" d="M 125.5,262.5 C 124.796,264.344 123.463,264.844 121.5,264C 122.056,263.617 122.389,263.117 122.5,262.5C 123.412,261.262 123.579,259.928 123,258.5C 121.519,259.471 120.685,260.804 120.5,262.5C 118.138,266.001 115.305,266.335 112,263.5C 111.503,260.854 111.336,258.187 111.5,255.5C 113.167,255.5 114.833,255.5 116.5,255.5C 116.297,257.638 115.297,259.305 113.5,260.5C 113.808,261.308 114.308,261.975 115,262.5C 116.252,260.999 117.252,259.332 118,257.5C 124.181,253.857 126.681,255.524 125.5,262.5 Z M 122.5,262.5 C 121.833,262.5 121.167,262.5 120.5,262.5C 120.685,260.804 121.519,259.471 123,258.5C 123.579,259.928 123.412,261.262 122.5,262.5 Z"/></g>
<g><path style="opacity:0.106" fill="#f5e9ea" d="M 120.5,262.5 C 121.167,262.5 121.833,262.5 122.5,262.5C 122.389,263.117 122.056,263.617 121.5,264C 123.463,264.844 124.796,264.344 125.5,262.5C 126.404,263.209 126.737,264.209 126.5,265.5C 124.5,265.5 122.5,265.5 120.5,265.5C 120.5,264.5 120.5,263.5 120.5,262.5 Z"/></g>
<g><path style="opacity:0.847" fill="#9c8882" d="M 368.5,280.5 C 371.551,280.454 374.218,281.454 376.5,283.5C 377.854,281.816 379.521,281.316 381.5,282C 382.266,285.418 382.266,288.918 381.5,292.5C 378.166,291.194 374.666,290.194 371,289.5C 370.127,289.735 369.293,290.069 368.5,290.5C 367.808,287.23 367.808,283.897 368.5,280.5 Z M 378.5,283.5 C 379.782,284.708 379.782,286.042 378.5,287.5C 376.206,286.375 376.206,285.041 378.5,283.5 Z M 372.5,285.5 C 370.027,285.053 369.86,284.053 372,282.5C 372.483,283.448 372.649,284.448 372.5,285.5 Z"/></g>
<g><path style="opacity:0.922" fill="#947d79" d="M 120.5,278.5 C 128.997,280.502 130.664,285.002 125.5,292C 115.938,293.946 112.605,290.446 115.5,281.5C 117.145,280.304 118.811,279.304 120.5,278.5 Z M 120.5,282.5 C 128.46,284.677 128.293,287.011 120,289.5C 118.378,289.046 117.212,288.046 116.5,286.5C 117.549,284.784 118.882,283.451 120.5,282.5 Z"/></g>
<g><path style="opacity:1" fill="#535253" d="M 310.5,345.5 C 310.672,344.508 310.338,343.842 309.5,343.5C 328.913,330.415 343.247,313.082 352.5,291.5C 353.365,290.417 354.365,290.251 355.5,291C 345.799,313.585 330.799,331.752 310.5,345.5 Z"/></g>
<g><path style="opacity:1" fill="#474747" d="M 402.5,306.5 C 403.5,306.5 404.5,306.5 405.5,306.5C 403.574,313.026 401.074,319.359 398,325.5C 395.333,330.167 392.667,334.833 390,339.5C 388.054,342.42 385.887,345.087 383.5,347.5C 383.167,346.5 382.5,345.833 381.5,345.5C 390.183,333.492 397.183,320.492 402.5,306.5 Z"/></g>
<g><path style="opacity:0.847" fill="#998680" d="M 131.5,303.5 C 132.496,303.414 133.329,303.748 134,304.5C 135.312,306.955 136.478,309.455 137.5,312C 135.572,314.455 133.738,314.622 132,312.5C 130.667,313.167 129.333,313.833 128,314.5C 127.213,313.289 126.546,312.289 126,311.5C 125.747,312.535 124.914,313.535 123.5,314.5C 122.218,312.821 121.218,310.987 120.5,309C 123.327,308.47 126.327,307.47 129.5,306C 130.756,305.583 131.423,304.75 131.5,303.5 Z M 132.5,308.5 C 133.573,309.251 133.74,310.251 133,311.5C 131.933,310.809 130.766,310.309 129.5,310C 130.737,309.768 131.737,309.268 132.5,308.5 Z"/></g>
<g><path style="opacity:0.958" fill="#9b837e" d="M 364.5,302.5 C 370.264,302.86 371.931,305.693 369.5,311C 370.784,311.684 371.951,311.517 373,310.5C 374.465,313.009 373.965,315.342 371.5,317.5C 370.713,316.758 370.047,315.925 369.5,315C 365.829,313.462 362.496,312.128 359.5,311C 360.556,307.707 362.223,304.874 364.5,302.5 Z M 364.5,306.5 C 365.995,306.415 366.995,307.081 367.5,308.5C 364.623,309.911 363.623,309.244 364.5,306.5 Z"/></g>
<g><path style="opacity:0.908" fill="#9d8782" d="M 141.5,322.5 C 145.077,324.922 147.743,328.255 149.5,332.5C 145.456,336.939 143.956,336.272 145,330.5C 141.88,332.113 139.713,334.447 138.5,337.5C 135.886,337.148 134.219,335.648 133.5,333C 136.766,331.668 140.1,329.668 143.5,327C 141.744,326.798 140.078,326.298 138.5,325.5C 139.77,324.712 140.77,323.712 141.5,322.5 Z"/></g>
<g><path style="opacity:0.78" fill="#505050" d="M 192.5,345.5 C 192.158,346.338 191.492,346.672 190.5,346.5C 168.808,333.463 153.141,315.13 143.5,291.5C 144,291.167 144.5,290.833 145,290.5C 155.679,313.341 171.512,331.675 192.5,345.5 Z"/></g>
<g><path style="opacity:0.937" fill="#937e7a" d="M 352.5,325.5 C 362.694,326.158 365.028,330.658 359.5,339C 350.612,340.779 347.112,337.279 349,328.5C 350.145,327.364 351.312,326.364 352.5,325.5 Z M 352.5,328.5 C 354.84,329.086 357.007,330.086 359,331.5C 358.812,337.451 356.478,338.118 352,333.5C 351.626,332.584 351.126,331.75 350.5,331C 351.381,330.292 352.047,329.458 352.5,328.5 Z"/></g>
<g><path style="opacity:0.997" fill="#4c4c4c" d="M 99.5,314.5 C 104.728,325.289 110.728,335.623 117.5,345.5C 116.5,345.833 115.833,346.5 115.5,347.5C 107.911,338.208 101.911,327.875 97.5,316.5C 98.8333,316.5 99.5,315.833 99.5,314.5 Z"/></g>
<g><path style="opacity:0.871" fill="#97847e" d="M 155.5,341.5 C 161.193,343.383 161.693,346.049 157,349.5C 156.333,350.167 156.333,350.833 157,351.5C 163.405,345.429 165.238,346.429 162.5,354.5C 163.002,355.521 163.668,355.688 164.5,355C 166.431,350.646 168.431,350.812 170.5,355.5C 166.052,357.224 161.719,359.224 157.5,361.5C 156.5,361.167 155.833,360.5 155.5,359.5C 156.89,357.831 157.223,356.164 156.5,354.5C 154.677,355.747 152.677,356.414 150.5,356.5C 152.446,351.604 154.113,346.604 155.5,341.5 Z"/></g>
<g><path style="opacity:1" fill="#4d4d4d" d="M 309.5,343.5 C 310.338,343.842 310.672,344.508 310.5,345.5C 297.086,354.194 282.419,359.528 266.5,361.5C 264.735,360.539 262.735,360.205 260.5,360.5C 277.843,358.008 294.176,352.341 309.5,343.5 Z"/></g>
<g><path style="opacity:0.937" fill="#99847d" d="M 334.5,346.5 C 336.07,349.636 338.57,352.636 342,355.5C 342.983,353.429 343.65,351.429 344,349.5C 345.353,350.685 346.52,352.019 347.5,353.5C 345.313,357.037 342.313,359.37 338.5,360.5C 337.174,356.33 334.508,353.163 330.5,351C 332.041,349.629 333.375,348.129 334.5,346.5 Z"/></g>
<g><path style="opacity:1" fill="#414141" d="M 381.5,345.5 C 382.5,345.833 383.167,346.5 383.5,347.5C 377.649,357.025 370.316,365.358 361.5,372.5C 361.167,371.5 360.5,370.833 359.5,370.5C 367.078,362.314 374.412,353.98 381.5,345.5 Z"/></g>
<g><path style="opacity:1" fill="#525252" d="M 192.5,345.5 C 206.703,353.123 221.703,358.123 237.5,360.5C 235.265,360.205 233.265,360.539 231.5,361.5C 216.498,359.836 202.831,354.836 190.5,346.5C 191.492,346.672 192.158,346.338 192.5,345.5 Z"/></g>
<g><path style="opacity:1" fill="#494949" d="M 117.5,345.5 C 125.427,356.096 134.427,365.763 144.5,374.5C 143.209,374.263 142.209,374.596 141.5,375.5C 131.103,367.769 122.436,358.436 115.5,347.5C 115.833,346.5 116.5,345.833 117.5,345.5 Z"/></g>
<g><path style="opacity:0.012" fill="#f3edec" d="M 320.5,359.5 C 321.302,358.115 321.969,358.282 322.5,360C 322.43,360.765 322.097,361.265 321.5,361.5C 321.672,360.508 321.338,359.842 320.5,359.5 Z"/></g>
<g><path style="opacity:1" fill="#363636" d="M 231.5,361.5 C 233.265,360.539 235.265,360.205 237.5,360.5C 245.167,360.5 252.833,360.5 260.5,360.5C 262.735,360.205 264.735,360.539 266.5,361.5C 254.833,362.833 243.167,362.833 231.5,361.5 Z"/></g>
<g><path style="opacity:0.846" fill="#947e7a" d="M 183.5,363.5 C 185.026,364.492 185.693,365.992 185.5,368C 185.21,371.118 184.544,374.118 183.5,377C 184.993,378.156 184.826,378.99 183,379.5C 178.846,378.937 178.012,377.27 180.5,374.5C 178.667,371.71 177.667,372.043 177.5,375.5C 175.088,375.756 173.421,374.756 172.5,372.5C 176.495,369.833 180.161,366.833 183.5,363.5 Z"/></g>
<g><path style="opacity:0.858" fill="#977f7a" d="M 320.5,359.5 C 321.338,359.842 321.672,360.508 321.5,361.5C 322.369,365.169 323.369,368.835 324.5,372.5C 324.167,373.5 323.5,374.167 322.5,374.5C 318.228,372.226 314.228,369.559 310.5,366.5C 312.022,363.545 314.022,362.712 316.5,364C 316.167,364.333 315.833,364.667 315.5,365C 321.366,369.367 322.033,368.2 317.5,361.5C 318.005,360.081 319.005,359.415 320.5,359.5 Z"/></g>
<g><path style="opacity:0.816" fill="#a18d89" d="M 297.5,371.5 C 300.341,372.688 301.008,374.688 299.5,377.5C 299.877,379.824 300.877,380.491 302.5,379.5C 303.357,380.736 304.023,382.069 304.5,383.5C 301.605,385.532 298.438,387.199 295,388.5C 294.095,383.644 292.262,378.977 289.5,374.5C 292.443,374.02 295.11,373.02 297.5,371.5 Z M 296.5,374.5 C 297.289,374.783 297.956,375.283 298.5,376C 295.651,379.358 294.984,378.858 296.5,374.5 Z M 297.5,380.5 C 302.774,381.556 302.774,382.556 297.5,383.5C 297.5,382.5 297.5,381.5 297.5,380.5 Z"/></g>
<g><path style="opacity:1" fill="#464646" d="M 359.5,370.5 C 360.5,370.833 361.167,371.5 361.5,372.5C 341.225,391.143 317.558,403.809 290.5,410.5C 290.918,409.778 291.584,409.278 292.5,409C 291.207,408.51 289.873,408.343 288.5,408.5C 314.885,400.809 338.551,388.143 359.5,370.5 Z"/></g>
<g><path style="opacity:0.998" fill="#464646" d="M 144.5,374.5 C 158.441,385.302 173.441,394.302 189.5,401.5C 187.585,401.216 185.919,401.549 184.5,402.5C 168.305,396.248 153.971,387.248 141.5,375.5C 142.209,374.596 143.209,374.263 144.5,374.5 Z"/></g>
<g><path style="opacity:0.878" fill="#98817c" d="M 200.5,373.5 C 205.254,373.351 208.921,375.184 211.5,379C 210.758,381.566 209.425,383.733 207.5,385.5C 208.954,391.299 207.621,391.966 203.5,387.5C 201.002,388.121 198.668,387.455 196.5,385.5C 198.724,382.847 200.391,379.847 201.5,376.5C 200.873,375.583 200.539,374.583 200.5,373.5 Z M 204.5,377.5 C 208.157,377.974 208.324,379.307 205,381.5C 204.51,380.207 204.343,378.873 204.5,377.5 Z"/></g>
<g><path style="opacity:0.91" fill="#96837e" d="M 266.5,380.5 C 270.308,380.163 273.974,380.663 277.5,382C 279.851,385.052 280.018,388.219 278,391.5C 274.942,393.575 271.608,394.908 268,395.5C 267.308,394.975 266.808,394.308 266.5,393.5C 267.642,389.542 266.976,385.876 264.5,382.5C 265.243,381.818 265.909,381.151 266.5,380.5 Z M 269.5,383.5 C 270.884,382.199 272.384,382.199 274,383.5C 276.495,386.825 275.995,389.492 272.5,391.5C 271.247,388.816 270.247,386.15 269.5,383.5 Z"/></g>
<g><path style="opacity:0.918" fill="#9b8580" d="M 231.5,390.5 C 233.256,391.552 233.923,393.219 233.5,395.5C 229.846,395.058 226.179,394.724 222.5,394.5C 223.79,391.126 224.79,387.626 225.5,384C 225.265,383.127 224.931,382.293 224.5,381.5C 227.795,380.599 231.128,380.599 234.5,381.5C 234.274,384.882 233.274,387.882 231.5,390.5 Z M 229.5,383.5 C 231.934,384.354 231.767,385.354 229,386.5C 228.53,385.423 228.697,384.423 229.5,383.5 Z M 231.5,390.5 C 231.38,391.586 230.713,392.253 229.5,392.5C 227.084,391.965 226.917,390.965 229,389.5C 229.671,390.252 230.504,390.586 231.5,390.5 Z"/></g>
<g><path style="opacity:1" fill="#3b3b3b" d="M 184.5,402.5 C 185.919,401.549 187.585,401.216 189.5,401.5C 221.791,413.269 254.791,415.602 288.5,408.5C 289.873,408.343 291.207,408.51 292.5,409C 291.584,409.278 290.918,409.778 290.5,410.5C 283.373,412.826 276.04,414.326 268.5,415C 239.331,418.189 211.331,414.022 184.5,402.5 Z"/></g>
</svg>
