<svg xmlns="http://www.w3.org/2000/svg" version="1.1" xmlns:xlink="http://www.w3.org/1999/xlink" xmlns:svgjs="http://svgjs.dev/svgjs" width="1000" height="1000" viewBox="0 0 1000 1000"><rect width="1000" height="1000" fill="#ffffff"></rect><g transform="matrix(0.3713527851458886,0,0,0.3713527851458886,313.63814493528685,150.28340080971662)"><svg viewBox="0 0 131 247" data-background-color="#ffffff" preserveAspectRatio="xMidYMid meet" height="1885" width="1000" xmlns="http://www.w3.org/2000/svg" xmlns:xlink="http://www.w3.org/1999/xlink"><g id="tight-bounds" transform="matrix(1,0,0,1,0.2418066862927617,-0.09999999999999432)"><svg viewBox="0 0 130.5163866274145 247.2" height="247.2" width="130.5163866274145"><g><svg viewBox="0 0 249.71603053435112 472.96591901760075" height="247.2" width="130.5163866274145"><g transform="matrix(1,0,0,1,0,225.7659190176008)"><svg viewBox="0 0 249.71603053435112 247.2" height="247.2" width="249.71603053435112"><g id="textblocktransform"><svg viewBox="0 0 249.71603053435112 247.2" height="247.2" width="249.71603053435112" id="textblock"><g><svg viewBox="0 0 249.71603053435112 247.2" height="247.2" width="249.71603053435112"><g transform="matrix(1,0,0,1,0,0)"><svg width="249.71603053435112" viewBox="0 -39.29999923706055 39.70000076293945 39.29999923706055" height="247.2" data-palette-color="#ea3c12"><path d="M22.5-14.7L22.5-3.6 27.7-1.75 26.8 0 12.05 0 12.05-1.3 16.75-5 16.75-14.4 4.05-35 0-37.55 1-39.3 15.85-39.3 15.85-38 11.05-34.3 21.25-17.55 31.95-34.5 23.85-37.55 24.7-39.3 39.7-39.3 39.7-38 35.75-35.7 22.5-14.7Z" opacity="1" transform="matrix(1,0,0,1,0,0)" fill="#000000" class="wordmark-text-0" data-fill-palette-color="primary" id="text-0"></path></svg></g></svg></g></svg></g></svg></g><g transform="matrix(1,0,0,1,70.33304295837516,0)"><svg viewBox="0 0 109.0499446176008 109.0499446176008" height="109.0499446176008" width="109.0499446176008"><g><svg></svg></g><g id="icon-0"><svg viewBox="0 0 109.0499446176008 109.0499446176008" height="109.0499446176008" width="109.0499446176008"><g><path d="M0 54.525c0-30.113 24.412-54.525 54.525-54.525 30.113 0 54.525 24.412 54.525 54.525 0 30.113-24.412 54.525-54.525 54.525-30.113 0-54.525-24.412-54.525-54.525zM54.525 86.757c17.801 0 32.232-14.431 32.232-32.232 0-17.801-14.431-32.232-32.232-32.232-17.801 0-32.232 14.431-32.232 32.232 0 17.801 14.431 32.232 32.232 32.232z" data-fill-palette-color="accent" fill="#000000" stroke="transparent"></path></g><g transform="matrix(1,0,0,1,54.61425076359596,54.61425076359596)"><svg viewBox="0 0 -0.1785569095911228 -0.1785569095911228" height="-0.1785569095911228" width="-0.1785569095911228"><g><svg xmlns="http://www.w3.org/2000/svg" xmlns:xlink="http://www.w3.org/1999/xlink" version="1.1" x="0" y="0" viewBox="0 0 16 16" style="enable-background:new 0 0 16 16;" xml:space="preserve" height="-0.1785569095911228" width="-0.1785569095911228" class="icon-s-0" data-fill-palette-color="accent" id="s-0"><path d="M8 0C3.582 0 0 3.582 0 8c0 4.418 3.582 8 8 8 4.418 0 8-3.582 8-8C16 3.582 12.418 0 8 0zM10.759 5.555c0.683 0 1.236 0.553 1.236 1.236s-0.554 1.236-1.236 1.236S9.523 7.474 9.523 6.791 10.076 5.555 10.759 5.555zM5.241 5.555c0.683 0 1.236 0.553 1.236 1.236S5.924 8.027 5.241 8.027 4.005 7.474 4.005 6.791 4.559 5.555 5.241 5.555zM12.327 11.488c-1.121 1.189-2.698 1.873-4.325 1.873-1.651 0-3.188-0.665-4.329-1.873-0.187-0.198-0.178-0.512 0.021-0.699 0.199-0.188 0.512-0.18 0.7 0.02 0.951 1.008 2.232 1.563 3.608 1.563 1.375 0 2.655-0.556 3.604-1.563 0.188-0.199 0.502-0.207 0.701-0.02C12.505 10.977 12.514 11.289 12.327 11.488z" fill="#000000" data-fill-palette-color="accent"></path></svg></g></svg></g></svg></g></svg></g><g></g></svg></g><defs></defs></svg><rect width="130.5163866274145" height="247.2" fill="none" stroke="none" visibility="hidden"></rect></g></svg></g></svg>